<svg width="64" height="20" viewBox="0 0 64 20" xmlns="http://www.w3.org/2000/svg"><title>Fill-15 2</title><desc>Created with Sketch.</desc><path d="M63.95 11.34c.014.03.023.053.027.07.096.393-.115.69-.534.91-2.442 3.34-12.105 8.18-12.33 7.638-.43-1.034 5.242-4.848 8.345-7.043-2.08.037-4.226-.117-4.872-.106-6.415.105-12.827.293-19.237.497-6.847.218-13.692.44-20.536.664-1.37.047-14.795 0-14.814.03.83-1.31 12.473-1.382 14.375-1.51 6.41-.433 12.823-.85 19.244-1.205 6.437-.355 12.882-.653 19.333-.867 1.316-.044 3.848-.398 6.17-.417-3.55-2.305-7.876-5.05-9.05-9.145-.556-1.943 2.215.04 2.155-.01 1.378 1.19 2.606 2.56 4.018 3.71 2.398 1.955 5.05 3.53 7.368 5.603.364.325.456.728.337 1.183zm-.007.028z" fill-opacity=".2" fill="#3F3F3F"/></svg>