<svg width="130" height="130" viewBox="0 0 130 130" xmlns="http://www.w3.org/2000/svg"><title>Slice 2</title><desc>Created with Sketch.</desc><defs><filter x="-50%" y="-50%" width="200%" height="200%" filterUnits="objectBoundingBox" id="a"><feOffset dy="6" in="SourceAlpha" result="shadowOffsetInner1"/><feGaussianBlur in="shadowOffsetInner1" result="shadowBlurInner1"/><feComposite in="shadowBlurInner1" in2="SourceAlpha" operator="arithmetic" k2="-1" k3="1" result="shadowInnerInner1"/><feColorMatrix values="0 0 0 0 0.129533574 0 0 0 0 0.656382866 0 0 0 0 0.419838286 0 0 0 0.7 0" in="shadowInnerInner1" result="shadowMatrixInner1"/><feMerge><feMergeNode in="SourceGraphic"/><feMergeNode in="shadowMatrixInner1"/></feMerge></filter><filter x="-50%" y="-50%" width="200%" height="200%" filterUnits="objectBoundingBox" id="b"><feOffset dx="1" dy="4" in="SourceAlpha" result="shadowOffsetOuter1"/><feGaussianBlur in="shadowOffsetOuter1" result="shadowBlurOuter1"/><feColorMatrix values="0 0 0 0 0.0923500792 0 0 0 0 0.643707483 0 0 0 0 0.394463725 0 0 0 0.7 0" in="shadowBlurOuter1" result="shadowMatrixOuter1"/><feMerge><feMergeNode in="shadowMatrixOuter1"/><feMergeNode in="SourceGraphic"/></feMerge></filter></defs><g fill="none"><circle fill="#22B573" filter="url(#a)" cx="65" cy="65" r="65"/><path d="M38.834 58.314c-.53 0-1.13.33-1.78.98l-5.843 5.842c-1.312 1.314-1.313 2.245 0 3.558l22.097 22.098c1.302 1.3 2.26 1.3 3.56 0l43.893-42.73c1.298-1.3 1.298-2.232-.014-3.546l-5.843-5.842c-1.3-1.3-2.26-1.3-3.56 0L56.36 72.92c-.58.564-1.507.56-2.08-.01L40.615 59.296c-.653-.653-1.25-.983-1.782-.983z" filter="url(#b)" fill="#fff"/></g></svg>