<svg width="130" height="130" viewBox="0 0 130 130" xmlns="http://www.w3.org/2000/svg"><title>Slice 2</title><desc>Created with Sketch.</desc><defs><filter x="-50%" y="-50%" width="200%" height="200%" filterUnits="objectBoundingBox" id="a"><feOffset dy="6" in="SourceAlpha" result="shadowOffsetInner1"/><feGaussianBlur in="shadowOffsetInner1" result="shadowBlurInner1"/><feComposite in="shadowBlurInner1" in2="SourceAlpha" operator="arithmetic" k2="-1" k3="1" result="shadowInnerInner1"/><feColorMatrix values="0 0 0 0 0.278431373 0 0 0 0 0.556862745 0 0 0 0 0.619607843 0 0 0 0.192179008 0" in="shadowInnerInner1" result="shadowMatrixInner1"/><feMerge><feMergeNode in="SourceGraphic"/><feMergeNode in="shadowMatrixInner1"/></feMerge></filter><filter x="-50%" y="-50%" width="200%" height="200%" filterUnits="objectBoundingBox" id="b"><feOffset dx="3" dy="4" in="SourceAlpha" result="shadowOffsetOuter1"/><feGaussianBlur in="shadowOffsetOuter1" result="shadowBlurOuter1"/><feColorMatrix values="0 0 0 0 0.298877902 0 0 0 0 0.617851751 0 0 0 0 0.690529337 0 0 0 0.7 0" in="shadowBlurOuter1" result="shadowMatrixOuter1"/><feMerge><feMergeNode in="shadowMatrixOuter1"/><feMergeNode in="SourceGraphic"/></feMerge></filter></defs><g fill="none"><circle fill="#62B2C4" filter="url(#a)" cx="65" cy="65" r="65"/><rect stroke="#13447F" stroke-width="5" fill="#fff" filter="url(#b)" x="35" y="28" width="60" height="74" rx="2"/><path fill="#FFB728" d="M50 30h30v6H50z"/><g id="icon_8204" transform="translate(46 44)" fill="#000"><circle id="Oval" cx="7" cy="4" r="4"/><path d="M14 15v-1.135C14 11.19 12.03 9 9.625 9h-5.25C1.97 9 0 11.19 0 13.865V15h14z" id="Shape"/></g><g id="icon_8204" transform="translate(46 70)" fill="#000"><circle id="Oval" cx="7" cy="4" r="4"/><path d="M14 15v-1.135C14 11.19 12.03 9 9.625 9h-5.25C1.97 9 0 11.19 0 13.865V15h14z" id="Shape"/></g><g id="icon_8204" transform="translate(69 44)" fill="#000"><circle id="Oval" cx="7" cy="4" r="4"/><path d="M14 15v-1.135C14 11.19 12.03 9 9.625 9h-5.25C1.97 9 0 11.19 0 13.865V15h14z" id="Shape"/></g><g transform="translate(69 70)" fill="#000"><circle cx="7" cy="4" r="4"/><path d="M14 15v-1.135C14 11.19 12.03 9 9.625 9h-5.25C1.97 9 0 11.19 0 13.865V15h14z"/></g></g></svg>