<?xml version="1.0" encoding="UTF-8" standalone="no"?>
<svg width="275px" height="107px" viewBox="0 0 275 107" version="1.1" xmlns="http://www.w3.org/2000/svg" xmlns:xlink="http://www.w3.org/1999/xlink" xmlns:sketch="http://www.bohemiancoding.com/sketch/ns">
    <!-- Generator: Sketch 3.1 (8751) - http://www.bohemiancoding.com/sketch -->
    <title>Slice 2</title>
    <desc>Created with Sketch.</desc>
    <defs></defs>
    <g id="Page-1" stroke="none" stroke-width="1" fill="none" fill-rule="evenodd" sketch:type="MSPage">
        <g id="logo-2" sketch:type="MSLayerGroup">
            <g id="Rectangle_2" sketch:type="MSShapeGroup">
                <path d="M36.8909574,78.7802198 C36.8909574,78.7802198 32.0369149,80.7885275 25.4720213,82.0948681 C18.0680851,83.5658242 8.19148936,83.3177253 8.19148936,83.3177253 C8.19148936,83.3177253 19.8070213,105.372659 28.4911702,107.126989 C37.8341489,109.014187 36.8909574,78.7802198 36.8909574,78.7802198 L36.8909574,78.7802198 Z" id="Shape-4" fill-opacity="0.5" fill="#D2ADA4"></path>
                <path d="M55.8014229,37.6263736 C55.8014229,37.6263736 48.4384442,52.992044 44.257274,62.2328462 C38.1628059,75.696033 38.62504,77.7772418 38.62504,77.7772418 C38.62504,77.7772418 55.422274,68.3965165 58.4098272,53.373011 C60.685891,41.9228352 55.8014229,37.6263736 55.8014229,37.6263736 L55.8014229,37.6263736 Z" id="Shape-4" fill="#42332F"></path>
                <path d="M41.8288347,8.25077667 C30.1969198,5.11602941 21.1617071,7.74869974 11.1505369,20.8885349 C-9.17605889,47.5691613 7.66564324,82.466447 8.71532409,82.466447 C8.71532409,82.466447 37.6710688,90.765414 50.9284092,60.9382822 C61.470856,37.2219085 59.4147922,12.9869964 41.8288347,8.25077667 L41.8288347,8.25077667 Z" id="Shape-4" fill="#7B6F65"></path>
                <path d="M59.9732294,10.7440079 C59.9732294,10.7440079 56.6802507,15.9572565 53.1637613,17.7070683 C50.3447187,19.1066843 44.0735485,19.7720563 38.0516336,18.5498729 C35.2676975,17.9848903 30.5868464,16.8222402 24.4362081,12.6724196 C18.2855698,8.52026445 20.1228038,0 20.1228038,0 C20.1228038,0 15.8620592,2.60195499 15.8620592,7.26539607 C15.8620592,11.0825306 18.325357,14.0241755 18.325357,14.0241755 C18.325357,14.0241755 9.36035704,24.1460022 17.3716336,30.4004997 C24.000889,35.5787286 31.8647187,32.5226864 35.5438677,41.1538462 C35.5438677,41.1538462 39.3435485,35.9861231 50.3962081,37.3834044 C60.1312081,38.6149264 55.2151443,22.2140886 55.2151443,22.2140886 C55.2151443,22.2140886 58.0915273,22.3821826 60.2470592,18.8043485 C62.3475911,15.3140635 59.9732294,10.7440079 59.9732294,10.7440079 L59.9732294,10.7440079 Z" id="Shape-4" fill="#ACA497"></path>
                <path d="M8.87572504,23.9691758 C8.87572504,23.9691758 -1.83640262,36.7021758 0.275831426,56.8052418 C1.54434206,68.8833077 3.70338462,73.168011 3.70338462,73.168011 C3.70338462,73.168011 0.694767596,63.9883516 5.86242717,52.6251868 C9.62466121,44.3544396 13.6642357,40.7764066 13.6642357,34.8784725 C13.6630655,25.8022857 8.87572504,23.9691758 8.87572504,23.9691758 L8.87572504,23.9691758 Z M59.5927463,12.7741538 C59.5927463,12.7741538 58.9292357,14.8106813 56.6051931,16.8824835 C55.5754059,17.7972747 53.7533846,18.851989 53.7533846,18.851989 L55.0733846,21.9796813 C55.0733846,21.9796813 58.8180655,21.1577802 59.5915761,18.0077473 C60.3685974,14.8565385 59.5927463,12.7741538 59.5927463,12.7741538 L59.5927463,12.7741538 Z M18.841257,8.50003297 C17.4978527,5.86030769 18.3099804,2.35164835 18.3099804,2.35164835 C18.3099804,2.35164835 15.3294484,5.13835165 15.7752995,8.60232967 C16.2656187,12.4249341 18.1192357,13.5008132 18.1192357,13.5008132 L21.2542357,11.2867363 C21.2542357,11.2867363 19.9295548,10.6365055 18.841257,8.50003297 L18.841257,8.50003297 Z" id="Shape-4" fill="#42332F"></path>
                <path d="M33.2080205,22.8521429 C33.2080205,22.8521429 32.8944034,22.2736374 29.5511056,19.6938791 C27.5371694,18.1406154 25.7467439,17.1176484 24.3822758,16.4615385 C23.5888715,16.8354505 22.7077013,17.5738681 21.9646162,18.9695714 C19.7154673,23.1896044 22.0137651,27.4155165 25.1674885,28.7148022 C27.612063,29.7224835 30.3807864,28.8394396 32.0799353,27.2509011 C32.1127013,27.2015165 32.1431268,27.1544835 32.1712119,27.1062747 C33.5204673,24.7428681 33.2080205,22.8521429 33.2080205,22.8521429 L33.2080205,22.8521429 Z" id="Shape-4" fill="#F2962D"></path>
                <path d="M50.9093603,21.1648352 C49.8854241,21.5399231 48.4671262,21.9314725 46.4964879,22.2924505 C41.2457432,23.2483956 42.0508496,26.468978 42.3691475,28.2385934 C42.4592539,28.743022 42.619573,29.2145275 42.8138284,29.6531099 C44.9892539,32.0376813 48.7175518,32.5185934 51.4265943,29.7953846 C54.5803177,26.6265385 51.9988284,22.5828791 50.9093603,21.1648352 L50.9093603,21.1648352 Z" id="Shape-4" fill="#F2962D"></path>
                <path d="M47.1009878,21.5928352 C46.6141793,21.7033626 46.0910942,21.8127143 45.5200304,21.9173626 C43.9437538,22.2077912 42.8987538,22.6992857 42.2118389,23.2930769 C42.0187538,23.7363626 41.909924,24.2255055 41.909924,24.7393407 C41.909924,26.7147253 43.4850304,28.3161978 45.4275836,28.3161978 C47.3701368,28.3161978 48.944073,26.7147253 48.944073,24.7393407 C48.944073,23.3800879 48.1974772,22.1995604 47.1009878,21.5928352 L47.1009878,21.5928352 Z M30.6208815,20.3252967 C30.3330091,20.096011 30.0205623,19.8514396 29.6683283,19.5798242 C28.6689666,18.8084835 27.7222644,18.1688352 26.8574772,17.6373626 C25.0822644,17.8184396 23.6955623,19.3434835 23.6955623,21.1954066 C23.6955623,23.1707912 25.2706687,24.7722637 27.2132219,24.7722637 C29.1546049,24.7722637 30.7308815,23.1707912 30.7308815,21.1954066 C30.7308815,20.8943956 30.6887538,20.603967 30.6208815,20.3252967 L30.6208815,20.3252967 Z M34.226307,29.9505934 C35.0829027,32.9630549 36.0693921,36.7033516 36.0693921,36.7033516 C39.0791793,32.3516264 39.4115198,31.5697033 39.4115198,29.1298681 C39.4115198,26.7652857 37.59769,24.9074835 37.59769,24.9074835 C37.59769,24.9074835 33.9770517,29.0746044 34.226307,29.9505934 L34.226307,29.9505934 Z M30.7168389,57.5177912 C29.6683283,59.3955824 29.7771581,60.4479451 30.5225836,60.7313187 C31.4786474,61.0946484 32.3598176,59.4026374 32.8091793,57.5812857 C33.9489666,52.9555934 33.6470517,49.7785165 33.6470517,49.7785165 C33.0443921,52.5934396 32.3914134,54.5206154 30.7168389,57.5177912 L30.7168389,57.5177912 Z M44.0104559,51.5892857 C43.3902432,52.9473626 43.5318389,53.6787253 44.0748176,53.8445165 C44.7722644,54.0596923 45.2871581,52.8403626 45.4896049,51.5446044 C46.0033283,48.2640549 45.5914134,46.0546813 45.5914134,46.0546813 C45.3421581,48.0465275 45.0027964,49.4234176 44.0104559,51.5892857 L44.0104559,51.5892857 Z M19.0275836,49.9278462 C19.6489666,50.3135165 20.4493921,49.2623297 20.9642857,48.0618132 C22.2714134,45.0164286 22.4200304,42.772956 22.4200304,42.772956 C21.686307,44.6378132 21.0181155,45.8841868 19.5225836,47.7267033 C18.5864134,48.8813626 18.5442857,49.628011 19.0275836,49.9278462 L19.0275836,49.9278462 Z" id="Shape-4" fill="#212629"></path>
                <path d="M22.7415668,75.6748681 C18.6750775,75.6748681 14.7747583,74.7824176 11.1482689,73.1550769 C7.13326894,66.0248791 4.77880085,57.3684615 4.77880085,48.0324176 C4.77880085,34.3963846 9.80135405,22.2066154 17.6897583,14.1098901 C15.3949711,16.0711648 13.062737,18.5133516 10.6286945,21.4952418 C-11.1700289,48.2146703 7.14380085,83.0743297 8.19348171,83.0743297 C8.19348171,83.0743297 11.81412,84.1090549 17.077737,84.1302198 C17.2064604,84.1313956 17.3375243,84.1325714 17.4674179,84.1325714 C27.1029498,84.1325714 42.1003966,80.7097473 50.6207157,61.544989 C53.2419923,55.6470549 55.082737,49.7173736 56.1019923,44.0651868 C51.8517796,62.3374945 38.5253966,75.6748681 22.7415668,75.6748681 L22.7415668,75.6748681 Z" id="Shape-4" fill="#1F1E20"></path>
                <path d="M47.5141489,21.5563846 C40.3781915,22.2489451 41.9603191,27.3390879 41.9603191,27.3390879 C41.9603191,27.3390879 41.8140426,25.0544615 45.2731915,24.6382198 C47.5808511,24.3607253 50.9159574,23.4976703 52.0370213,22.0643407 C53.0024468,20.8273736 53.2189362,19.6362637 53.2189362,19.6362637 C53.2189362,19.6362637 50.0874468,21.3082857 47.5141489,21.5563846 L47.5141489,21.5563846 Z M30.9462766,19.6021648 C26.8376596,16.8213407 26.2162766,16.7601978 24.238617,15.1716593 C22.6564894,13.8982418 22.2340426,12.9340659 22.2340426,12.9340659 C22.2340426,12.9340659 22.2340426,16.6767143 26.2724468,19.5175055 C28.4607447,21.0578352 30.8503191,21.6680879 31.8590426,22.6404945 C34.0730851,24.7710879 33.8437234,26.1362198 33.8437234,26.1362198 C33.8437234,26.1362198 34.1631915,25.739967 34.3211702,24.8933736 C34.4791489,24.0467802 34.5154255,22.7745385 34.5154255,22.7745385 C34.5154255,22.7745385 33.1731915,21.1072198 30.9462766,19.6021648 L30.9462766,19.6021648 Z" id="Shape-4" fill="#1F1E20"></path>
                <path d="M46.9840426,24.134967 C45.7447872,24.134967 44.7430851,25.1555824 44.7430851,26.4137143 C44.7430851,27.6718462 45.7447872,28.6924615 46.9840426,28.6924615 C48.2209574,28.6924615 49.2261702,27.673022 49.2261702,26.4137143 C49.2261702,25.1544066 48.2209574,24.134967 46.9840426,24.134967 L46.9840426,24.134967 Z M28.4092553,21.1636593 C27.1711702,21.1636593 26.1682979,22.1842747 26.1682979,23.4424066 C26.1682979,24.7017143 27.17,25.7211538 28.4092553,25.7211538 C29.6473404,25.7211538 30.6502128,24.7017143 30.6502128,23.4424066 C30.6502128,22.1842747 29.6473404,21.1636593 28.4092553,21.1636593 L28.4092553,21.1636593 Z" id="Shape-5" fill-opacity="0.400000006" fill="#FFFFFF"></path>
            </g>
            <path d="M78.2614894,6.63047253 C76.7858511,10.2496593 75.0164894,15.1399121 73.8884043,18.7602747 L76.2826596,18.7602747 C76.5611702,17.8384286 76.8724468,16.8107582 77.22,15.7325275 L82.5128723,15.7325275 C82.9119149,16.8448571 83.3285106,17.8913407 83.6760638,18.7602747 L86.2107447,18.7602747 C84.8568085,15.5232308 83.0862766,10.5283297 81.8540426,6.63047253 L78.2614894,6.63047253 L78.2614894,6.63047253 Z M77.8273404,13.7653736 C78.452234,11.936967 79.0946809,10.145011 79.7020213,8.57881319 L80.1701064,8.57881319 C80.6393617,10.145011 81.2291489,11.9734176 81.8540426,13.7653736 L77.8273404,13.7653736 L77.8273404,13.7653736 Z M94.7357447,11.5207253 C95.447234,11.5207253 96.227766,11.6947473 96.783617,11.9028681 L97.2704255,10.0591758 C96.6104255,9.8146044 95.4308511,9.64058242 94.5801064,9.64058242 C91.9073404,9.64058242 90.2058511,10.6682527 90.2058511,14.2886154 C90.2058511,17.9254396 91.8897872,19.0048462 94.5801064,19.0048462 C95.4132979,19.0048462 96.5764894,18.832 97.2704255,18.5521538 L96.783617,16.7072857 C96.227766,16.933044 95.4823404,17.1247033 94.7357447,17.1247033 C93.1735106,17.1247033 92.4269149,16.672011 92.4269149,14.3227143 C92.4269149,11.8687692 93.1735106,11.5207253 94.7357447,11.5207253 L94.7357447,11.5207253 Z M106.196809,11.5207253 C106.908298,11.5207253 107.68883,11.6947473 108.244681,11.9028681 L108.731489,10.0591758 C108.07266,9.8146044 106.891915,9.64058242 106.04117,9.64058242 C103.368404,9.64058242 101.666915,10.6682527 101.666915,14.2886154 C101.666915,17.9254396 103.349681,19.0048462 106.04117,19.0048462 C106.873191,19.0048462 108.037553,18.832 108.731489,18.5521538 L108.244681,16.7072857 C107.68883,16.933044 106.943404,17.1247033 106.196809,17.1247033 C104.634574,17.1247033 103.887979,16.672011 103.887979,14.3227143 C103.889149,11.8687692 104.635745,11.5207253 106.196809,11.5207253 L106.196809,11.5207253 Z M117.355957,9.63940659 C114.561489,9.63940659 113.156064,10.6670769 113.156064,14.2874396 C113.156064,17.9242637 114.545106,19.0036703 117.355957,19.0036703 C120.201915,19.0036703 121.590957,17.9242637 121.590957,14.2874396 C121.589787,10.6670769 120.184362,9.63940659 117.355957,9.63940659 L117.355957,9.63940659 Z M117.355957,17.2458132 C115.845213,17.2458132 115.377128,16.7766593 115.377128,14.3227143 C115.377128,11.7829341 115.845213,11.3996154 117.355957,11.3996154 C118.900638,11.3996154 119.368723,11.7829341 119.368723,14.3227143 C119.368723,16.7766593 118.899468,17.2458132 117.355957,17.2458132 L117.355957,17.2458132 Z M134.767553,9.90161538 L132.615532,9.90161538 L132.615532,16.8813077 L129.144681,16.8813077 L129.144681,9.90161538 L126.99266,9.90161538 L126.99266,18.7602747 L134.507766,18.7602747 L134.507766,21.2142198 L136.243191,21.2142198 L136.746383,16.8801319 L134.768723,16.8801319 L134.768723,9.90161538 L134.767553,9.90161538 Z M143.785213,15.5408681 L143.785213,9.90161538 L141.633191,9.90161538 L141.633191,18.7602747 L143.785213,18.7602747 C145.017447,17.159978 146.318723,15.2621978 147.377766,13.347956 L147.377766,18.7602747 L149.529787,18.7602747 L149.529787,9.90161538 L147.377766,9.90161538 C146.318723,11.7982198 144.98234,14.0275824 143.785213,15.5408681 L143.785213,15.5408681 Z M158.769787,9.63940659 C157.502447,9.63940659 156.166064,9.86634066 155.246277,10.1097363 L155.645319,11.8852308 C156.374362,11.6241978 157.346809,11.4854505 158.318085,11.4854505 C160.15766,11.4854505 160.521596,11.8334945 160.521596,13.3820549 C159.775,13.2244945 159.082234,13.1374835 158.334468,13.1374835 C156.269043,13.1374835 154.863617,13.5384396 154.863617,16.0452967 C154.863617,18.3593187 155.800957,19.0036703 158.595426,19.0036703 C159.82766,19.0036703 161.476489,18.7426374 162.587021,18.3064066 L162.587021,13.0869231 C162.588191,10.4413187 161.391064,9.63940659 158.769787,9.63940659 L158.769787,9.63940659 Z M160.522766,17.0541538 C160.019574,17.2281758 159.377128,17.3516374 158.752234,17.3516374 C157.450957,17.3516374 157.120957,17.159978 157.120957,15.9582857 C157.120957,14.825967 157.555106,14.6872198 158.769787,14.6872198 C159.412234,14.6872198 160.037128,14.738956 160.522766,14.8447802 L160.522766,17.0541538 L160.522766,17.0541538 Z M176.019894,9.90161538 L173.867872,9.90161538 L173.867872,16.8813077 L170.397021,16.8813077 L170.397021,9.90161538 L168.245,9.90161538 L168.245,18.7602747 L175.758936,18.7602747 L175.758936,21.2142198 L177.494362,21.2142198 L177.997553,16.8801319 L176.019894,16.8801319 L176.019894,9.90161538 L176.019894,9.90161538 Z M185.038723,15.5408681 L185.038723,9.90161538 L182.886702,9.90161538 L182.886702,18.7602747 L185.038723,18.7602747 C186.270957,17.159978 187.573404,15.2621978 188.631277,13.347956 L188.631277,18.7602747 L190.783298,18.7602747 L190.783298,9.90161538 L188.631277,9.90161538 C187.572234,11.7982198 186.234681,14.0275824 185.038723,15.5408681 L185.038723,15.5408681 Z M199.247447,9.90161538 C197.130532,9.90161538 196.452979,11.0668571 196.452979,12.4954835 C196.452979,13.7477363 197.077872,14.8624176 198.970106,14.9317912 C197.737872,15.1046374 197.077872,15.6960769 195.828085,18.7602747 L198.292553,18.7602747 C199.281383,16.0805714 199.854787,15.6090659 201.000426,15.6090659 L202.336809,15.6090659 L202.336809,18.7602747 L204.48883,18.7602747 L204.48883,9.90161538 L199.247447,9.90161538 L199.247447,9.90161538 Z M202.336809,13.9041209 L199.87234,13.9041209 C199.160851,13.9041209 198.778191,13.5560769 198.778191,12.7553407 C198.778191,11.9193297 199.143298,11.6418352 199.819681,11.6418352 L202.336809,11.6418352 L202.336809,13.9041209 L202.336809,13.9041209 Z" id="Shape-3" fill="#478E9E" sketch:type="MSShapeGroup"></path>
            <path d="M80.6768085,27.7859011 C78.3703191,27.7859011 75.4401064,28.2550549 73.7257447,28.9734835 L73.7257447,50.5569121 L77.5909574,50.5569121 L77.5909574,43.6948022 C78.4639362,44.1333846 79.5861702,44.6013626 81.3941489,44.6013626 C85.6338298,44.6013626 88.2831915,42.6636044 88.2831915,36.1942198 C88.2820213,29.6919121 85.9135106,27.7859011 80.6768085,27.7859011 L80.6768085,27.7859011 Z M80.7084043,41.3208132 C78.9940426,41.3208132 77.5909574,40.727022 77.5909574,39.7887143 L77.5909574,31.5990989 C78.4007447,31.2863297 79.6165957,31.1299451 80.6768085,31.1299451 C83.4197872,31.1299451 84.3243617,31.9118681 84.3243617,36.2882857 C84.3243617,40.2261209 83.4197872,41.3208132 80.7084043,41.3208132 L80.7084043,41.3208132 Z M99.8823404,27.7859011 C95.2693617,27.7859011 92.4947872,29.7554066 92.4947872,36.1319011 C92.4947872,42.6647802 95.612234,45.0928571 100.193617,45.0928571 C101.814362,45.0928571 104.152447,44.7495165 105.742766,44.2168681 L105.119043,41.1538462 C103.872766,41.5277582 101.783936,41.809956 100.661702,41.809956 C97.8871277,41.809956 96.5788298,40.6317802 96.547234,37.2265934 L106.802979,37.2265934 C107.08266,29.504956 104.901383,27.7859011 99.8823404,27.7859011 L99.8823404,27.7859011 Z M96.5788298,34.2564615 C96.8280851,31.6308462 97.6694681,30.8489231 100.10117,30.8489231 C102.314043,30.8489231 103.12383,31.4438901 103.249043,34.2564615 L96.5788298,34.2564615 L96.5788298,34.2564615 Z M111.282553,44.6542747 L115.147766,44.6542747 L115.147766,31.6296703 L121.38266,31.6296703 L121.38266,44.6530989 L125.247872,44.6530989 L125.247872,28.2550549 L111.283723,28.2550549 L111.283723,44.6542747 L111.282553,44.6542747 Z M137.320957,27.7859011 C132.707979,27.7859011 129.933404,29.7554066 129.933404,36.1319011 C129.933404,42.6647802 133.050851,45.0928571 137.633404,45.0928571 C139.254149,45.0928571 141.592234,44.7495165 143.181383,44.2168681 L142.556489,41.1538462 C141.310213,41.5277582 139.221383,41.809956 138.100319,41.809956 C135.325745,41.809956 134.016277,40.6317802 133.984681,37.2265934 L144.240426,37.2265934 C144.521277,29.504956 142.33883,27.7859011 137.320957,27.7859011 L137.320957,27.7859011 Z M134.016277,34.2564615 C134.265532,31.6308462 135.106915,30.8489231 137.538617,30.8489231 C139.751489,30.8489231 140.561277,31.4438901 140.686489,34.2564615 L134.016277,34.2564615 L134.016277,34.2564615 Z M147.477234,31.6296703 L152.932766,31.6296703 L152.932766,44.6530989 L156.797979,44.6530989 L156.797979,31.6296703 L162.283936,31.6296703 L162.283936,28.2550549 L147.477234,28.2550549 L147.477234,31.6296703 L147.477234,31.6296703 Z M169.95234,38.3824286 L169.95234,28.2550549 L166.087128,28.2550549 L166.087128,44.6530989 L169.95234,44.6530989 C172.165213,41.7782088 174.503298,37.8803516 176.404894,34.4422418 L176.404894,44.6530989 L180.270106,44.6530989 L180.270106,28.2550549 L176.404894,28.2550549 C174.503298,31.6625934 172.103191,35.6627473 169.95234,38.3824286 L169.95234,38.3824286 Z M184.073298,31.6296703 L189.52883,31.6296703 L189.52883,44.6530989 L193.394043,44.6530989 L193.394043,31.6296703 L198.88,31.6296703 L198.88,28.2550549 L184.074468,28.2550549 L184.074468,31.6296703 L184.073298,31.6296703 Z M209.715,27.7859011 C204.697128,27.7859011 202.171809,29.6295934 202.171809,36.1319011 C202.171809,42.6647802 204.665532,45.0928571 209.715,45.0928571 C214.82766,45.0928571 217.321383,42.6647802 217.321383,36.1319011 C217.321383,29.6295934 214.797234,27.7859011 209.715,27.7859011 L209.715,27.7859011 Z M209.715,41.9345934 C207.003617,41.9345934 206.162234,40.6012088 206.162234,36.1942198 C206.162234,31.6296703 207.003617,30.9418132 209.715,30.9418132 C212.489574,30.9418132 213.330957,31.6296703 213.330957,36.1942198 C213.332128,40.6012088 212.490745,41.9345934 209.715,41.9345934 L209.715,41.9345934 Z M228.943936,27.7859011 C226.637447,27.7859011 223.707234,28.2550549 221.992872,28.9734835 L221.992872,50.5569121 L225.858085,50.5569121 L225.858085,43.6948022 C226.731064,44.1333846 227.853298,44.6013626 229.661277,44.6013626 C233.900957,44.6013626 236.550319,42.6636044 236.550319,36.1942198 C236.549149,29.6919121 234.179468,27.7859011 228.943936,27.7859011 L228.943936,27.7859011 Z M228.974362,41.3208132 C227.26,41.3208132 225.856915,40.727022 225.856915,39.7887143 L225.856915,31.5990989 C226.667872,31.2863297 227.883723,31.1299451 228.942766,31.1299451 C231.685745,31.1299451 232.590319,31.9118681 232.590319,36.2882857 C232.590319,40.2261209 231.685745,41.3208132 228.974362,41.3208132 L228.974362,41.3208132 Z M248.305106,27.7859011 C243.287234,27.7859011 240.761915,29.6295934 240.761915,36.1319011 C240.761915,42.6647802 243.255638,45.0928571 248.305106,45.0928571 C253.417766,45.0928571 255.911489,42.6647802 255.911489,36.1319011 C255.910319,29.6295934 253.385,27.7859011 248.305106,27.7859011 L248.305106,27.7859011 Z M248.305106,41.9345934 C245.593723,41.9345934 244.75234,40.6012088 244.75234,36.1942198 C244.75234,31.6296703 245.593723,30.9418132 248.305106,30.9418132 C251.079681,30.9418132 251.921064,31.6296703 251.921064,36.1942198 C251.919894,40.6012088 251.078511,41.9345934 248.305106,41.9345934 L248.305106,41.9345934 Z M271.007234,35.7262418 C274.031064,35.5063626 274.623191,34.1623956 274.623191,32.0694286 C274.623191,29.7248352 273.781809,28.2562308 270.197447,28.2562308 L260.627447,28.2562308 L260.627447,44.6542747 L270.32266,44.6542747 C273.221277,44.6542747 274.99766,43.4361209 274.99766,40.3107802 C274.99766,37.9344396 274.186702,35.8191319 271.007234,35.7262418 L271.007234,35.7262418 Z M264.49266,31.2557582 L269.075213,31.2557582 C270.197447,31.2557582 270.60234,31.5990989 270.60234,32.8184286 C270.60234,33.9131209 270.197447,34.4434176 269.075213,34.4434176 L264.49266,34.4434176 L264.49266,31.2557582 L264.49266,31.2557582 Z M269.230851,41.6535714 L264.49266,41.6535714 L264.49266,37.2877363 L269.137234,37.2877363 C270.353085,37.2877363 270.945213,38.4024176 270.945213,39.8404505 C270.945213,41.1538462 270.446702,41.6535714 269.230851,41.6535714 L269.230851,41.6535714 Z" id="Shape-2" fill="#3F3F3F" sketch:type="MSShapeGroup"></path>
        </g>
    </g>
</svg>