<?xml version="1.0" encoding="utf-8"?>
<!-- Generator: Adobe Illustrator 16.0.0, SVG Export Plug-In . SVG Version: 6.00 Build 0)  -->
<!DOCTYPE svg PUBLIC "-//W3C//DTD SVG 1.1//EN" "http://www.w3.org/Graphics/SVG/1.1/DTD/svg11.dtd">
<svg version="1.1" id="Layer_1" xmlns:sketch="http://www.bohemiancoding.com/sketch/ns"
	 xmlns="http://www.w3.org/2000/svg" xmlns:xlink="http://www.w3.org/1999/xlink" x="0px" y="0px" width="170px" height="80px"
	 viewBox="-10.5 -9.5 170 80" enable-background="new -10.5 -9.5 170 80" xml:space="preserve">
<title>Slice 2</title>
<desc>Created with Sketch.</desc>
<g id="Page-1_1_" sketch:type="MSPage">
	<g id="arrow2-_x2B_-всего" transform="translate(-15.000000, -10.000000)" sketch:type="MSLayerGroup">
		
			<g id="arrow2" transform="translate(59.567347, 40.789684) scale(-1, 1) rotate(-8.000000) translate(-59.567347, -40.789684) translate(3.567347, 7.789684)" sketch:type="MSShapeGroup">
			
				<g id="arrow" transform="translate(55.502613, 33.000000) scale(-1, 1) translate(-55.502613, -33.000000) translate(-0.497387, -0.000000)">
				<g id="Page-1" transform="translate(0.000000, -0.314327)">
					
						<g id="Fill-7-_x2B_-Fill-8" transform="translate(56.000000, 33.067352) scale(1, -1) rotate(-10.000000) translate(-56.000000, -33.067352) translate(3.000000, 8.567352)">
						<path id="Fill-7" fill="#FFFFFF" d="M33.837,11.058C24.266,15.316,15.981,20.306,9.258,25.6
							c-3.544,2.791-6.66,5.706-8.903,8.715c-0.721,0.966-2.757,3.723,1.206,3.544c0.48-0.022,2.903-0.753,3.234-1.023
							c0.893-0.729-0.524-1.027,0.049-1.834c0.979-1.379,2.243-2.745,3.593-4.076c2.666-2.628,5.824-5.167,9.35-7.6
							c7.35-5.073,16.141-9.848,26.319-13.678C54.701,5.663,67.45,2.497,79.985,2.791c4.994,0.117,9.488,0.84,12.669,2.529
							c1.911,1.013,3.274,2.272,4.006,3.652c0.166,0.312,0.344,3.505,0.363,3.509c1.274,0.232,2.539-3.047,2.566-3.339
							c0.168-1.87-1.291-3.586-3.303-4.982C82.703-5.262,49.162,4.242,33.837,11.058L33.837,11.058z"/>
						<path id="Fill-8" fill="#FFFFFF" d="M2.19,37.02c0.61-3.215,0.653-6.545,1.348-9.743c0.216-0.991,3.056-5.698,2.399-6.11
							c-2.167-1.356-4.804,2.754-5.181,3.68c-1.06,2.604-1.076,5.57-1.32,8.385c-0.109,1.263-0.226,2.53-0.521,3.75
							c-0.243,1.006-2.046,3.3-1.459,4.352c1.396,2.504,4.271-0.945,4.716-1.299c2.489-1.982,5.376-3.658,8.461-5.078
							c1.797-0.827,3.696-1.558,5.747-2.043c-0.709,0.168,3.287-1.276,1.25-1.075C11.695,32.423,6.617,34.317,2.19,37.02L2.19,37.02
							z"/>
					</g>
				</g>
			</g>
		</g>
		<path id="всего" sketch:type="MSShapeGroup" fill="#FFFFFF" d="M76.901,23.919c0-0.85-0.425-1.5-1.25-1.9
			c-0.7-0.3-1.825-0.525-3.35-0.625c2.35-0.875,3.55-2,3.55-3.375c0-0.75-0.35-1.325-1-1.75c-0.575-0.325-1.325-0.5-2.25-0.5
			c-0.85,0-2.275,0.075-4.325,0.225c-0.65,0.05-0.95,0.325-0.95,0.8c0,0.5,0.275,0.75,0.85,0.75c0.05,0,0.175,0,0.375-0.05
			c0.225-0.05,0.375-0.075,0.425-0.075c-0.05,1.675-0.075,2.675-0.075,3.025v2.825c-0.025,1.95-0.025,3.05-0.025,3.35
			c-0.5,0.05-0.8,0.15-0.95,0.25c-0.25,0.125-0.35,0.35-0.35,0.65c0,0.375,0.225,0.6,0.7,0.65c0.875-0.05,1.925-0.25,3.15-0.55
			c1.75-0.475,2.9-0.85,3.5-1.15C76.226,25.819,76.901,24.969,76.901,23.919L76.901,23.919z M74.276,18.094
			c0,0.95-1.3,1.85-3.9,2.65v-1.6c0-0.25,0-0.85,0.05-1.825c1.225-0.05,1.95-0.1,2.2-0.1C73.726,17.219,74.276,17.519,74.276,18.094
			L74.276,18.094z M75.401,24.019c0,0.95-1.7,1.725-5.1,2.275v-3.75c1.85,0.075,3.15,0.2,3.9,0.4
			C75.001,23.169,75.401,23.519,75.401,24.019L75.401,24.019z M85.969,24.319c0-0.2-0.074-0.375-0.225-0.575
			c-0.15-0.2-0.325-0.3-0.5-0.3c-0.2,0-0.45,0.175-0.75,0.5c-0.4,0.375-0.675,0.65-0.825,0.825c-0.45,0.35-1.025,0.525-1.725,0.525
			c-0.55,0-0.95-0.2-1.25-0.625c-0.3-0.425-0.425-0.975-0.425-1.625c0-1.875,0.85-3.45,2.6-4.7c0.3,0.225,0.75,0.325,1.35,0.325
			c0.55,0,0.95-0.325,1.176-1.025c-0.025-0.75-0.451-1.15-1.275-1.15c-0.75,0-1.375,0.175-1.925,0.5c-1,0.65-1.825,1.525-2.45,2.65
			c-0.65,1.15-0.95,2.375-0.95,3.65c0,1.05,0.3,1.9,0.95,2.6c0.625,0.675,1.45,1.025,2.45,1.025c0.9,0,1.8-0.375,2.7-1.125
			C85.594,25.219,85.969,24.719,85.969,24.319L85.969,24.319z M97.063,26.244c0-0.2-0.075-0.375-0.226-0.575
			c-0.149-0.175-0.3-0.275-0.5-0.275c-0.125,0-0.399,0.025-0.85,0.075c-0.476,0.1-0.825,0.125-1.05,0.125
			c-1.101,0-1.875-0.525-2.375-1.575c1.1-0.475,2.024-1.15,2.774-2.025c0.825-0.95,1.25-1.9,1.25-2.9c0-0.65-0.25-1.225-0.7-1.725
			c-0.649-0.65-1.274-1-1.899-1c-1.025,0-1.875,0.65-2.55,1.925c-0.601,1.125-0.9,2.3-0.9,3.5c0,0.375,0.025,0.75,0.1,1.15
			c-0.15,0.025-0.325,0.025-0.475,0.025c-0.425,0-0.85-0.125-1.275-0.4c-0.425-0.3-0.675-0.45-0.75-0.45
			c-0.5,0-0.75,0.275-0.75,0.825c0,0.4,0.301,0.775,0.926,1.125c0.5,0.325,1.199,0.475,2.074,0.475c0.25,0,0.5-0.025,0.701-0.075
			c0.851,1.85,2.25,2.775,4.2,2.775C96.288,27.244,97.063,26.894,97.063,26.244L97.063,26.244z M94.613,19.219
			c0,0.675-0.3,1.3-0.875,1.875c-0.575,0.625-1.275,1.1-2.075,1.45c-0.05-0.35-0.075-0.7-0.075-1c0-0.8,0.175-1.6,0.525-2.35
			c0.35-0.75,0.774-1.15,1.274-1.15c0.275,0,0.551,0.125,0.825,0.35C94.463,18.644,94.613,18.919,94.613,19.219L94.613,19.219z
			 M107.007,16.369c0-0.2-0.101-0.4-0.25-0.55c-0.176-0.15-0.375-0.225-0.576-0.225c-0.199,0-0.549,0.075-1.049,0.175
			c-1.701,0.35-3.701,0.55-6,0.575c-0.426,0-0.625,0.275-0.625,0.825c0,0.5,0.375,0.75,1.149,0.775c-0.125,1.1-0.2,1.825-0.226,2.15
			c-0.25,2-0.6,4.175-1.049,6.55c-0.101,0.475-0.125,0.775-0.125,0.875c0,0.575,0.225,0.875,0.674,0.875
			c0.576,0,0.9-0.325,0.976-0.975c0.125-1.425,0.325-2.975,0.575-4.65c0.125-1,0.375-2.65,0.75-4.975
			c1.125-0.15,1.85-0.25,2.199-0.3c0.9-0.1,1.875-0.225,2.951-0.35C106.781,17.094,107.007,16.819,107.007,16.369L107.007,16.369z
			 M115.7,20.944c0-0.925-0.275-1.8-0.801-2.6c-0.55-0.8-1.25-1.35-2.1-1.675c-0.301-0.1-0.5-0.15-0.551-0.15
			c-0.125,0-0.25,0.025-0.35,0.05c-0.199,0.25-0.525,0.475-0.975,0.7c-0.85,0.45-1.525,1.2-2.051,2.275c-0.5,1-0.75,2.025-0.75,3.05
			c0,1.125,0.301,2.1,0.926,2.925c0.65,0.95,1.5,1.4,2.55,1.4c0.649,0,1.3-0.3,2-0.85c0.7-0.55,1.149-1.15,1.399-1.825
			c0.15-0.4,0.25-0.7,0.326-0.9C115.575,22.719,115.7,21.919,115.7,20.944L115.7,20.944z M114.249,21.319
			c0,0.825-0.274,1.675-0.824,2.55c-0.6,0.95-1.2,1.425-1.85,1.425c-0.601,0-1.076-0.25-1.451-0.8c-0.375-0.5-0.549-1.125-0.549-1.9
			c0-0.975,0.199-1.85,0.625-2.6c0.5-0.85,1.174-1.3,2.049-1.35c0.25,0.15,0.601,0.25,1,0.25
			C113.899,19.344,114.249,20.144,114.249,21.319L114.249,21.319z M75.801,36.944c0-0.475-0.35-0.775-1.025-0.875l-6,0.5
			c-0.775,0.075-1.15,0.325-1.15,0.725c0,0.35,0.05,0.675,0.2,0.95c-0.15,2.125-0.225,3.5-0.25,4.1
			c-0.175,1.85-0.25,2.775-0.25,2.775c0,0.324,0.075,0.625,0.275,0.899c0.2,0.3,0.4,0.425,0.65,0.425c0.325,0,0.5-0.274,0.55-0.85
			c0.15-2.65,0.3-5.15,0.5-7.5c1.9-0.175,3.4-0.3,4.475-0.4c-0.2,4.75-0.275,7.3-0.275,7.6c0,1.55,0.35,2.325,1.075,2.325
			c0.35,0,0.55-0.2,0.55-0.575c-0.125-0.8-0.175-1.525-0.175-2.125c0-0.875,0.05-2.2,0.15-4c0-0.275,0.05-0.7,0.125-1.25
			c0.05-0.45,0.075-0.725,0.075-0.825c0-0.35-0.05-0.65-0.1-0.9C75.601,37.694,75.801,37.344,75.801,36.944L75.801,36.944z
			 M86.219,40.594c0-0.175-0.1-0.4-0.3-0.65c0-0.625-0.101-1.2-0.3-1.7c0.05-0.175,0.074-0.3,0.074-0.35
			c0-0.275-0.149-0.525-0.399-0.75c-0.275-0.2-0.55-0.325-0.8-0.325c-1.15,0-2.525,0.75-4.175,2.25c-0.525,0.5-0.9,0.9-1.1,1.15
			c-1.05,1.3-1.55,2.5-1.55,3.65c0,0.725,0.225,1.375,0.7,1.925c0.475,0.649,1.05,0.95,1.725,0.95c1.275,0,2.6-0.825,3.975-2.476
			c0.1,0.925,0.175,1.601,0.225,2.025c0.075,0.8,0.35,1.225,0.851,1.225c0.524,0,0.799-0.25,0.799-0.725
			c0-0.05-0.1-0.425-0.25-1.175c-0.1-0.4-0.125-0.825-0.125-1.25c0-1.15,0.176-2.275,0.551-3.325
			C86.169,40.844,86.219,40.694,86.219,40.594L86.219,40.594z M84.469,39.894c0,1.1-0.5,2.226-1.45,3.425
			c-0.95,1.2-1.875,1.775-2.825,1.775c-0.7,0-1.025-0.425-1.025-1.3c0-0.825,0.5-1.825,1.55-3c0.4-0.475,0.925-0.95,1.575-1.425
			c0.7-0.525,1.225-0.8,1.55-0.8C84.245,38.569,84.469,39.019,84.469,39.894L84.469,39.894z M96.613,37.644
			c0-1.15-0.25-2.1-0.75-2.85c-0.55-0.85-1.351-1.3-2.4-1.3c-1.425,0-2.55,1.075-3.375,3.175c-0.625,1.625-0.925,3.325-0.925,5.075
			v0.574c0,0.226,0.025,0.4,0.025,0.551c-0.7,0.25-1.025,0.6-1.025,1c0,0.475,0.35,0.75,1.075,0.8c0,0.5,0.024,0.899,0.024,1.225
			v1.375c0,1.4-0.1,2.425-0.25,3.075c-0.175,0.625-0.25,0.975-0.25,1.05c0,0.55,0.25,0.825,0.775,0.825
			c0.375,0,0.651-0.4,0.826-1.175c0.3-1.55,0.45-3.275,0.45-5.226c0-0.55-0.025-1.149-0.075-1.8c1.899-0.7,3.25-1.399,4.1-2.149
			C96.013,40.819,96.613,39.394,96.613,37.644L96.613,37.644z M95.138,37.219c0,1.475-0.425,2.625-1.25,3.45
			c-0.649,0.625-1.725,1.2-3.25,1.725c0.051-2.875,0.525-5,1.476-6.35c0.425-0.625,0.875-0.95,1.35-0.95
			c0.5,0,0.9,0.225,1.226,0.675C94.988,36.219,95.138,36.719,95.138,37.219L95.138,37.219z M106.981,42.318v-2.1
			c0-1.45-0.275-2.175-0.825-2.175c-0.399,0-0.7,0.35-0.95,1.025c-0.525,1.325-1.125,2.4-1.8,3.225c-0.7,0.85-1.351,1.25-1.95,1.25
			c-0.199,0-0.4-0.075-0.55-0.226c-0.175-0.149-0.25-0.35-0.25-0.55c0-0.475,0.075-1.3,0.226-2.475
			c0.149-1.15,0.225-2.025,0.225-2.575s-0.1-1.025-0.25-1.475c-0.176-0.45-0.426-0.675-0.75-0.675c-0.551,0-0.801,0.225-0.801,0.65
			c0,0.075,0.025,0.275,0.125,0.575c0.076,0.3,0.125,0.55,0.125,0.75c0,0.55-0.074,1.375-0.174,2.525
			c-0.15,1.15-0.201,1.975-0.201,2.525c0,0.775,0.201,1.4,0.625,1.85c0.375,0.5,0.926,0.726,1.625,0.726
			c0.801,0,1.601-0.425,2.426-1.3c0.675-0.7,1.225-1.525,1.675-2.476c0,1.525-0.075,2.726-0.226,3.625
			c-0.625,3.625-2.924,5.45-6.875,5.45c-0.25,0-0.699-0.05-1.35-0.125c-0.449,0.025-0.699,0.275-0.699,0.75
			c0,0.75,0.699,1.125,2.074,1.125c2.375,0,4.325-0.675,5.825-1.975C106.081,48.644,106.981,46.019,106.981,42.318L106.981,42.318z
			 M126.843,47.693c0-0.25-0.075-0.475-0.176-0.699c-0.199-0.351-0.35-0.525-0.5-0.625c-0.475-1.075-0.85-2.726-1.1-4.925
			c-0.275-1.951-0.5-3.301-0.65-4.025c-0.1-0.35-0.299-0.525-0.649-0.525c-0.5,0-1.25,1.775-2.274,5.325
			c-0.801-1.3-1.4-2.85-1.826-4.7l-0.199-0.9c-0.1-0.325-0.275-0.5-0.551-0.5c-0.375,0-0.75,0.6-1.149,1.8
			c-0.149-0.05-0.25-0.075-0.25-0.075c-0.351,0-0.524,0.225-0.524,0.65c0,0.075,0,0.2,0.024,0.375c0,0.275,0.024,0.475,0.024,0.575
			c-0.024,0.2-0.074,1.025-0.174,2.475c-0.101,1.2-0.15,1.975-0.15,2.35c0,1.601,0.225,2.375,0.725,2.375
			c0.45,0,0.676-0.524,0.676-1.575c0-2.125,0.199-4.25,0.6-6.375c0.475,1.45,0.975,2.65,1.475,3.625
			c0.625,1.226,1.15,1.825,1.575,1.825c0.325,0,0.649-0.5,0.95-1.55l0.875-3.45c0.35,3.45,0.725,5.851,1.15,7.15
			c0.5,1.5,0.975,2.25,1.449,2.25c0.15,0,0.301-0.101,0.45-0.275C126.768,48.068,126.843,47.869,126.843,47.693L126.843,47.693z
			 M136.687,46.844c0-0.125-0.101-0.275-0.25-0.475c-0.601-0.65-0.875-2.325-0.875-5c0-0.851,0.049-1.8,0.174-2.851l0.201-1.8
			c0-0.2-0.076-0.4-0.226-0.575c-0.175-0.2-0.375-0.3-0.601-0.3c-0.324,0-1.149,0.95-2.475,2.8c-1.05,1.5-2.15,3.175-3.25,5
			c0.2-2.75,0.35-4.6,0.426-5.5c0-0.325-0.125-0.625-0.326-0.875c-0.25-0.25-0.524-0.375-0.774-0.375c-0.149,0-0.274,0.1-0.375,0.25
			c0.05,0.6,0.101,1,0.101,1.2c-0.025,1.5-0.15,3.5-0.375,5.95c-0.051,0.575-0.101,0.95-0.125,1.125c0,0.274,0.1,0.475,0.25,0.625
			c0.35,0.35,0.524,0.524,0.574,0.524c0.225,0,0.551-0.35,0.975-1.1c1.601-2.85,3.15-5.175,4.65-7c-0.074,1.45-0.1,2.65-0.1,3.65
			c0,1.3,0.125,2.449,0.4,3.449c0.324,1.301,0.774,1.95,1.35,1.95c0.1,0,0.25-0.1,0.4-0.25
			C136.586,47.068,136.687,46.943,136.687,46.844L136.687,46.844z M146.528,37.069c0-0.525-0.25-0.8-0.725-0.8
			c-0.35,0-0.574,0.4-0.675,1.2c-0.2,1.4-0.351,2.425-0.399,3.025c-1.375,0.375-2.625,0.625-3.775,0.725
			c0.225-2,0.55-3.55,0.975-4.65c0.1-0.25,0.15-0.45,0.15-0.575c0-0.5-0.225-0.775-0.676-0.775c-0.35,0-0.574,0.175-0.699,0.475
			c-0.5,1.275-0.875,3.125-1.125,5.525c-0.551,0-0.875-0.024-0.975-0.05c-0.375,0-0.551,0.225-0.551,0.625
			c0,0.524,0.275,0.774,0.875,0.774h0.525c-0.1,1.226-0.176,2.426-0.225,3.575c0,0.101-0.025,0.2-0.051,0.351
			c-0.05,0.149-0.05,0.25-0.05,0.35c0,0.2,0.075,0.375,0.226,0.575c0.149,0.149,0.35,0.25,0.574,0.25
			c0.426,0,0.65-0.275,0.676-0.825c0.1-2,0.174-3.45,0.225-4.325c1.35-0.125,2.6-0.35,3.75-0.675c-0.15,1.25-0.225,2.45-0.275,3.55
			c0,0.075-0.025,0.2-0.05,0.351c-0.05,0.149-0.05,0.25-0.05,0.274c0,0.601,0.074,1.025,0.225,1.3
			c0.15,0.275,0.301,0.426,0.475,0.426c0.5,0,0.775-0.301,0.775-0.875c0-0.051-0.025-0.2-0.025-0.45
			c-0.024-0.25-0.024-0.425-0.024-0.525c0-1.825,0.25-4.475,0.774-7.925C146.479,37.419,146.528,37.119,146.528,37.069
			L146.528,37.069z M156.997,42.318v-2.1c0-1.45-0.275-2.175-0.824-2.175c-0.4,0-0.701,0.35-0.951,1.025
			c-0.524,1.325-1.125,2.4-1.799,3.225c-0.701,0.85-1.351,1.25-1.951,1.25c-0.199,0-0.399-0.075-0.549-0.226
			c-0.176-0.149-0.25-0.35-0.25-0.55c0-0.475,0.074-1.3,0.225-2.475c0.15-1.15,0.225-2.025,0.225-2.575s-0.1-1.025-0.25-1.475
			c-0.175-0.45-0.425-0.675-0.75-0.675c-0.55,0-0.8,0.225-0.8,0.65c0,0.075,0.024,0.275,0.125,0.575
			c0.075,0.3,0.125,0.55,0.125,0.75c0,0.55-0.075,1.375-0.175,2.525c-0.15,1.15-0.2,1.975-0.2,2.525c0,0.775,0.2,1.4,0.625,1.85
			c0.375,0.5,0.925,0.726,1.625,0.726c0.8,0,1.601-0.425,2.425-1.3c0.676-0.7,1.225-1.525,1.676-2.476
			c0,1.525-0.076,2.726-0.226,3.625c-0.625,3.625-2.925,5.45-6.875,5.45c-0.25,0-0.7-0.05-1.351-0.125
			c-0.449,0.025-0.699,0.275-0.699,0.75c0,0.75,0.699,1.125,2.074,1.125c2.375,0,4.326-0.675,5.826-1.975
			C156.097,48.644,156.997,46.019,156.997,42.318L156.997,42.318z M168.516,35.794c0-0.175-0.075-0.35-0.226-0.525
			c-0.149-0.15-0.3-0.25-0.475-0.25c-0.225,0-0.575,0.05-1.05,0.15c-3.45,0.8-6.05,1.425-7.775,1.875
			c-0.175,0.05-0.274,0.075-0.325,0.075c-0.399,0.075-0.574,0.35-0.574,0.85c0,0.45,0.25,0.725,0.75,0.775
			c0.55-0.1,1.074-0.225,1.574-0.375c0.575-0.15,1.275-0.3,2.125-0.45c-0.1,1.975-0.149,4-0.149,6.05c0,2.15,0.149,3.425,0.45,3.875
			c0.1,0.15,0.274,0.25,0.574,0.25c0.5,0,0.775-0.55,0.775-1.625c0-0.55-0.1-0.95-0.3-1.225c-0.05-0.65-0.075-1.676-0.075-3.125
			c0-1.3,0.075-2.851,0.25-4.7c0.725-0.175,1.325-0.3,1.8-0.4c0.25,0.175,0.425,0.25,0.476,0.25c0.1,0,0.25-0.025,0.449-0.125
			l1.176-0.55C168.315,36.419,168.516,36.144,168.516,35.794L168.516,35.794z"/>
	</g>
</g>
</svg>
