<?xml version="1.0" encoding="UTF-8" standalone="no"?>
<svg width="15px" height="15px" viewBox="0 0 15 15" version="1.1" xmlns="http://www.w3.org/2000/svg" xmlns:xlink="http://www.w3.org/1999/xlink" xmlns:sketch="http://www.bohemiancoding.com/sketch/ns">
    <!-- Generator: Sketch 3.1.1 (8761) - http://www.bohemiancoding.com/sketch -->
    <title>Oval 3 + Oval 1</title>
    <desc>Created with Sketch.</desc>
    <defs></defs>
    <g id="Page-1" stroke="none" stroke-width="1" fill="none" fill-rule="evenodd" sketch:type="MSPage">
        <g id="Oval-3-+-Oval-1" sketch:type="MSLayerGroup" transform="translate(-13.000000, -13.000000)" fill-opacity="0.5" fill="#3F3F3F">
            <path d="M22.4765344,23.8907479 C21.4957155,24.589209 20.2958304,25 19,25 C15.6862915,25 13,22.3137085 13,19 C13,15.6862915 15.6862915,13 19,13 C22.3137085,13 25,15.6862915 25,19 C25,20.2958304 24.589209,21.4957155 23.8907479,22.4765344 L27.2071068,25.7928932 L27.9142136,26.5 L26.5,27.9142136 L25.7928932,27.2071068 L22.4765344,23.8907479 Z M19,23 C21.209139,23 23,21.209139 23,19 C23,16.790861 21.209139,15 19,15 C16.790861,15 15,16.790861 15,19 C15,21.209139 16.790861,23 19,23 Z" id="Oval-1" sketch:type="MSShapeGroup"></path>
        </g>
    </g>
</svg>