<?xml version="1.0" encoding="UTF-8" standalone="no"?>
<svg width="30px" height="30px" viewBox="0 0 30 30" version="1.1" xmlns="http://www.w3.org/2000/svg" xmlns:xlink="http://www.w3.org/1999/xlink" xmlns:sketch="http://www.bohemiancoding.com/sketch/ns">
    <!-- Generator: Sketch 3.1 (8751) - http://www.bohemiancoding.com/sketch -->
    <title>Slice 2</title>
    <desc>Created with Sketch.</desc>
    <defs></defs>
    <g id="Page-1" stroke="none" stroke-width="1" fill="none" fill-rule="evenodd" sketch:type="MSPage">
        <path d="M28.3095706,26.048584 C27.7492731,27.4093063 26.8303225,29.9924316 26.8303225,29.9924316 C26.8303225,29.9924316 17.9523926,31.2758789 8,21 C-1.95239258,10.7241211 0.330322272,2.74658203 0.330322272,2.74658203 C0.330322272,2.74658203 2.59649448,1.56374596 3.81542969,1.07617188 C5.09649448,0.563745959 8.43872095,-0.00122070313 8.43872095,-0.00122070313 L12.8686526,8.8605957 L8.43872118,13.0268555 C8.43872118,13.0268555 10.4361165,15.7471517 11.8828125,17.1938477 C13.4361165,18.7471517 16.4536135,21 16.4536135,21 L21.2871096,16.4523926 L29.9260256,21.427002 C29.9260256,21.427002 28.9159398,24.575973 28.3095706,26.048584 Z" id="Path-1013" fill="#478E9E" sketch:type="MSShapeGroup"></path>
    </g>
</svg>