<?xml version="1.0" standalone="no"?>
<!DOCTYPE svg PUBLIC "-//W3C//DTD SVG 1.1//EN" "http://www.w3.org/Graphics/SVG/1.1/DTD/svg11.dtd" >
<svg xmlns="http://www.w3.org/2000/svg">
<metadata>
Created by FontPrep 20130207 at Sun Oct 12 01:21:04 2014
 By Anton Nemtsev
Copyright (c) Frantisek Storm, www.stormtype.com, 2005. All rights reserved.
</metadata>
<defs>
<font id="2d21227bed0a1f1f5e04009ed8e63b16" horiz-adv-x='1024' >
  <font-face 
    font-family="ElektraTextPro-Bold"
    font-weight="700"
    font-stretch="normal"
    units-per-em="2048"
    panose-1="2 0 8 3 0 0 0 0 0 0"
    ascent="1638"
    descent="-410"
    x-height="1047"
    cap-height="1427"
    bbox="-113 -563 2187 1806"
    underline-thickness="102"
    underline-position="-205"
    unicode-range="U+0020-0491"
  />
<missing-glyph horiz-adv-x="1024" 
 />
    <glyph glyph-name=".notdef" horiz-adv-x="1024" 
 />
    <glyph glyph-name=".null" horiz-adv-x="0" 
 />
    <glyph glyph-name="nonmarkingreturn" horiz-adv-x="681" 
 />
    <glyph glyph-name="space" unicode=" " horiz-adv-x="526" 
 />
    <glyph glyph-name="exclam" unicode="!" horiz-adv-x="681" 
d="M344 336q111 0 150 -32q38 -32 38 -142t-40 -143t-148 -33t-148 34t-40 142q0 110 38 142t150 32zM152 1427h376l-75 -946h-226z" />
    <glyph glyph-name="quotedbl" unicode="&#x22;" horiz-adv-x="823" 
d="M473 1427h258l-39 -501h-200zM92 1427h264l-39 -501h-202z" />
    <glyph glyph-name="numbersign" unicode="#" horiz-adv-x="1511" 
d="M621 870l-19 -290h254l21 290h-256zM80 870l16 250h252l21 310h288l-20 -310h256l20 310h289l-20 -310h268l-14 -250h-271l-20 -290h272l-16 -248h-271l-22 -332h-289l23 332h-256l-23 -332h-289l23 332h-252l18 248h248l21 290h-252z" />
    <glyph glyph-name="dollar" unicode="$" horiz-adv-x="1273" 
d="M850 426q0 55 -23 82q-18 27 -92 43v-248q115 23 115 123zM410 993q0 -51 24 -75t92 -41v237q-116 -21 -116 -121zM526 1690h209v-281q236 -2 395 -59l-65 -271q-129 39 -330 45v-278q215 -35 316 -129q104 -92 104 -286t-100 -293t-320 -120v-299h-209v291
q-238 2 -403 60l67 272q135 -41 336 -47v289q-203 28 -310 114t-107 270t102 298q102 104 315 133v291z" />
    <glyph glyph-name="percent" unicode="%" horiz-adv-x="2064" 
d="M1606 190q80 0 102 48q25 45 25 211t-25 208q-20 43 -101 43t-106 -44t-25 -206t25 -212q25 -48 105 -48zM1204 450q0 274 88 372q88 96 313 96q224 0 314 -98t90 -369q0 -270 -90 -377q-90 -102 -314 -102q-225 0 -313 102t-88 376zM457 735q81 0 105 46t24 212t-25 209
t-105 43t-104 -43t-24 -207t24 -213q25 -47 105 -47zM460 1462q224 0 310 -98q90 -92 90 -364t-90 -378t-312 -106t-313 105q-90 106 -90 375t88 368q93 98 317 98zM1339 1427h287l-913 -1427h-285z" />
    <glyph glyph-name="ampersand" unicode="&#x26;" horiz-adv-x="1669" 
d="M885 1035q0 89 -41 121q-42 32 -146 32t-144 -32t-40 -123t40 -128t136 -37t146 37q49 41 49 130zM643 240q201 0 352 104q-209 268 -344 268q-113 0 -159 -47q-52 -43 -52 -146t43 -140q39 -39 160 -39zM1604 807q0 -264 -201 -494q18 -23 229 -313h-379q-23 35 -86 125
q-243 -154 -541 -154t-418 88t-120 312q0 342 391 360q-182 16 -240 96t-59 242q0 207 111 299q106 94 406 94t411 -82t111 -280q0 -152 -78 -240q-78 -82 -264 -96q133 -10 321 -219q66 121 66 262h340z" />
    <glyph glyph-name="quotesingle" unicode="'" horiz-adv-x="448" 
d="M92 1427h264l-39 -501h-202z" />
    <glyph glyph-name="parenleft" unicode="(" horiz-adv-x="669" 
d="M139 510q0 868 471 1069l144 -231q-141 -78 -212 -262t-71 -576t71 -576t212 -262l-144 -231q-471 201 -471 1069z" />
    <glyph glyph-name="parenright" unicode=")" horiz-adv-x="669" 
d="M530 510q0 -868 -471 -1069l-143 231q141 78 212 262t71 576q0 274 -39 444q-35 170 -94 263q-66 84 -150 131l143 231q471 -201 471 -1069z" />
    <glyph glyph-name="asterisk" unicode="*" horiz-adv-x="1089" 
d="M61 940v254h261l-132 227l224 127l131 -227l129 227l223 -127l-133 -227h262v-254h-262l131 -227l-223 -125l-127 223l-131 -223l-224 127l132 225h-261z" />
    <glyph glyph-name="plus" unicode="+" horiz-adv-x="1153" 
d="M74 594v301h350v352h301v-352h352v-301h-352v-350h-301v350h-350z" />
    <glyph glyph-name="comma" unicode="," horiz-adv-x="612" 
d="M528 215l-241 -541h-281l162 541h360z" />
    <glyph glyph-name="period" unicode="." horiz-adv-x="612" 
d="M306 336q110 0 149 -32t39 -142t-40 -143t-148 -33t-147 34q-40 34 -40 142q1 110 39 142t148 32z" />
    <glyph glyph-name="slash" unicode="/" horiz-adv-x="997" 
d="M733 1427h336l-731 -1427h-334z" />
    <glyph glyph-name="zero" unicode="0" 
d="M653 274q84 0 133 33q48 37 64 128t16 271t-8 262q-8 83 -35 126q-27 49 -67 59t-126 10q-87 0 -128 -28q-44 -25 -62 -115t-18 -272t9 -264q18 -164 97 -195q41 -15 125 -15zM90 733q0 417 140 579q72 82 170 116t266 34t281 -59q114 -59 183 -223q64 -172 64 -452
t-64 -454q-70 -172 -182 -237q-119 -66 -305 -66t-307 66q-119 70 -180 237q-66 164 -66 459z" />
    <glyph glyph-name="one" unicode="1" 
d="M881 0h-326v1071l-319 -129l-86 279l731 272v-1493z" />
    <glyph glyph-name="two" unicode="2" 
d="M1147 1034q0 -179 -63 -292t-281 -267q-72 -55 -266 -186h616v-289h-1071v268q221 164 293 218t190 151q106 92 136 122t60 79q30 50 33 84t3 77q0 96 -47 131t-212 35t-341 -55l-70 281q209 71 489 71t405 -89q126 -89 126 -339z" />
    <glyph glyph-name="three" unicode="3" 
d="M381 600v283h215q100 -1 140 27t40 111t-53 112t-247 29t-318 -40l-62 289q225 51 510 51t404 -82t118 -288q0 -162 -63 -244t-244 -96q195 -10 265 -100t71 -269q0 -227 -132 -319t-421 -93q-289 0 -514 49l62 293q126 -39 328 -39t259 33t58 129q0 96 -44 130t-151 34
h-221z" />
    <glyph glyph-name="four" unicode="4" horiz-adv-x="1282" 
d="M723 616v506q-158 -215 -313 -506h313zM723 340h-707v113q330 594 600 974h422v-811h185v-276h-185v-340h-315v340z" />
    <glyph glyph-name="five" unicode="5" 
d="M182 1427h924v-288h-612v-246q72 6 141 6q299 0 412 -99t113 -361t-124 -365q-125 -102 -425 -102t-492 48l61 293q116 -39 316 -39t249 31q53 29 53 137t-47 141q-48 33 -236 33t-333 -20v831z" />
    <glyph glyph-name="six" unicode="6" 
d="M665 274q117 0 158 37t41 136t-41 135q-65 58 -372 24q6 -207 51 -270q46 -62 163 -62zM752 1159q-150 0 -220 -53q-68 -55 -75 -223q115 16 219 16q305 0 419 -101q113 -102 113 -364t-118 -360q-116 -102 -430 -102t-437 160q-123 161 -123 593q0 299 65 455t199 219
t370 63t425 -53l-63 -291q-123 41 -344 41z" />
    <glyph glyph-name="seven" unicode="7" 
d="M1251 1427v-94q-123 -197 -316 -615t-292 -718h-375q125 338 277 662t266 477h-696v288h1136z" />
    <glyph glyph-name="eight" unicode="8" 
d="M645 -29h-2q-311 0 -431 92t-120 320q0 184 72 270q68 88 262 99q-180 14 -244 96q-63 82 -63 230t40 226q82 158 485 158t482 -157q41 -79 41 -227t-63 -230t-244 -96q195 -10 262 -99q72 -86 72 -270q0 -229 -119 -321t-430 -91zM645 870q100 0 146 37q43 37 43 127
t-43 121q-39 33 -148 33t-147 -33q-43 -31 -43 -121t46 -127t146 -37zM645 240q121 0 163 38t42 142t-43 149q-45 45 -163 45t-163 -45t-45 -149t44 -142t165 -38z" />
    <glyph glyph-name="nine" unicode="9" 
d="M648 815q126 0 192 8q10 51 10 117q0 141 -39 182q-43 39 -167 39t-164 -38t-40 -141t43 -134q39 -33 165 -33zM629 537q-303 0 -417 95q-114 94 -114 358t119 368t430 104q221 0 344 -45q121 -49 164 -149q47 -96 47 -297q0 -276 -123 -512t-344 -459h-403
q315 324 424 541q-66 -4 -127 -4z" />
    <glyph glyph-name="colon" unicode=":" horiz-adv-x="612" 
d="M307 1065q111 0 149 -31q38 -30 38 -140t-40 -144t-148 -33q-108 0 -147 34q-40 34 -40 143q1 109 39 140t149 31zM306 336q110 0 149 -32t39 -142t-40 -143t-148 -33t-147 34q-40 34 -40 142q1 110 39 142t148 32z" />
    <glyph glyph-name="semicolon" unicode=";" horiz-adv-x="612" 
d="M307 1065q111 0 149 -31q38 -30 38 -140t-40 -144t-148 -33q-108 0 -147 34q-40 34 -40 143q1 109 39 140t149 31zM528 215l-241 -541h-281l162 541h360z" />
    <glyph glyph-name="less" unicode="&#x3c;" horiz-adv-x="1153" 
d="M1053 1167l-496 -419l496 -429l-162 -229l-746 578v151l744 576z" />
    <glyph glyph-name="equal" unicode="=" horiz-adv-x="1153" 
d="M74 901v301h1003v-301h-1003zM74 289v301h1003v-301h-1003z" />
    <glyph glyph-name="greater" unicode="&#x3e;" horiz-adv-x="1153" 
d="M145 319l496 420l-496 426l162 232l748 -578v-151l-744 -576z" />
    <glyph glyph-name="question" unicode="?" horiz-adv-x="1036" 
d="M397 1159q-197 0 -299 -39l-63 291q174 51 395 51q309 0 438 -102q133 -98 133 -322q0 -152 -88 -293q-96 -143 -256 -288h-315q152 176 216 296t65 273q0 133 -226 133zM506 334q108 0 148 -31t40 -139t-39 -144q-43 -32 -149 -32t-150 32q-39 36 -39 144t39 139
q42 31 150 31z" />
    <glyph glyph-name="at" unicode="@" horiz-adv-x="1929" 
d="M963 668q-78 0 -113 -21q-31 -25 -31 -101t31 -95q31 -25 120 -25t123 28t33 113v90q-85 11 -163 11zM882 1040q-146 0 -236 -15q-198 -33 -245 -218q-20 -102 -20 -264t25 -256q20 -98 92 -160q74 -59 176 -79t291 -19q350 0 473 118q119 121 118 482q0 244 -40 354h272
q39 -141 39 -365q0 -475 -199 -659t-661 -184q-236 0 -394 34q-159 33 -269 123t-156 240t-46 374t54 369q127 381 703 379q169 0 276 -20q96 -27 159 -86q66 -66 92 -174t25 -288q0 -180 -19 -280q-18 -100 -78 -159t-142 -75t-234 -17q-248 -1 -332 69t-84 276t79 274
t296 67q127 0 229 -21q-2 104 -49 144q-49 36 -195 36z" />
    <glyph glyph-name="A" unicode="A" horiz-adv-x="1411" 
d="M727 1141h-53q-63 -172 -187 -541h410q-111 328 -170 541zM1112 0q-63 147 -121 315h-588q-27 -90 -92 -315h-352q199 672 506 1427h510q240 -788 502 -1427h-365z" />
    <glyph glyph-name="B" unicode="B" horiz-adv-x="1480" 
d="M1360 372q0 -196 -96 -282q-92 -90 -281 -90h-815v1427h809q205 1 281 -81t75 -254t-63 -248q-62 -78 -242 -92q192 -8 262 -96t70 -284zM498 1147v-270h389q47 0 71 30q20 35 21 105q0 70 -21 104q-25 31 -71 31h-389zM498 281h399q104 -1 104 163t-112 164h-391v-327z
" />
    <glyph glyph-name="C" unicode="C" horiz-adv-x="1204" 
d="M100 727q0 209 39 360q43 143 127 228q90 82 208 115q118 32 328 32t388 -51l-64 -291q-109 39 -255 39q-147 0 -213 -12t-113 -57q-51 -43 -74 -132q-18 -88 -18 -234t18 -237q41 -164 191 -196q64 -15 206 -15t258 39l64 -297q-184 -47 -414 -47q-356 0 -516 166
t-160 590z" />
    <glyph glyph-name="D" unicode="D" horiz-adv-x="1542" 
d="M725 291q155 0 227 31t105 118t33 257q0 169 -14 249t-61 124t-109 56t-181 13h-227v-848h227zM168 1427h596q182 1 302 -33q263 -74 335 -329q41 -139 41 -344q0 -405 -162 -563t-516 -158h-596v1427z" />
    <glyph glyph-name="E" unicode="E" horiz-adv-x="1282" 
d="M168 1427h1065v-288h-735v-256h526v-283h-526v-311h735v-289h-1065v1427z" />
    <glyph glyph-name="F" unicode="F" horiz-adv-x="1208" 
d="M168 1427h1040v-288h-710v-332h526v-283h-526v-524h-330v1427z" />
    <glyph glyph-name="G" unicode="G" horiz-adv-x="1458" 
d="M981 586h-283v282h621v-829q-92 -29 -245 -48t-298 -20q-356 0 -516 166t-160 590q0 221 47 360q43 141 139 223t230 120q142 32 364 32t400 -51l-59 -291q-53 16 -166 28t-217 13q-104 0 -172 -13q-156 -30 -195 -190q-18 -86 -18 -233t18 -238q41 -164 191 -196
q63 -14 140 -14t179 10v299z" />
    <glyph glyph-name="H" unicode="H" horiz-adv-x="1531" 
d="M498 602v-602h-330v1427h330v-520h536v520h330v-1427h-330v602h-536z" />
    <glyph glyph-name="I" unicode="I" horiz-adv-x="665" 
d="M168 1427h330v-1427h-330v1427z" />
    <glyph glyph-name="J" unicode="J" horiz-adv-x="966" 
d="M807 1427v-1034q0 -240 -143 -336q-125 -84 -311 -85q-187 -1 -347 53l55 294q119 -41 252 -40q160 0 160 167v981h334z" />
    <glyph glyph-name="K" unicode="K" horiz-adv-x="1400" 
d="M1434 0h-398q-184 334 -328 530t-208 224q68 55 206 236t295 437h394q-141 -219 -293 -428q-152 -193 -191 -227q63 -49 211 -260t312 -512zM498 1427v-1427h-330v1427h330z" />
    <glyph glyph-name="L" unicode="L" horiz-adv-x="1132" 
d="M168 1427h330v-1136h643v-291h-973v1427z" />
    <glyph glyph-name="M" unicode="M" horiz-adv-x="1923" 
d="M1755 1427v-1427h-319v965q-154 -336 -353 -846h-262q-258 676 -334 846v-965h-319v1427h442q174 -348 367 -835q162 432 356 835h422z" />
    <glyph glyph-name="N" unicode="N" horiz-adv-x="1630" 
d="M1462 1427v-1427h-409q-258 473 -561 975v-975h-324v1427h430q272 -442 537 -940v940h327z" />
    <glyph glyph-name="O" unicode="O" horiz-adv-x="1587" 
d="M795 272q119 0 181 16q125 32 150 199q10 89 10 231t-10 204q-15 161 -88 196q-41 23 -92 32t-151 9q-99 0 -151 -9t-93 -32q-73 -34 -88 -196q-10 -61 -10 -204t11 -227q22 -172 154 -204q58 -15 177 -15zM795 1462q172 0 303 -32q129 -39 217 -120q174 -160 174 -587
t-178 -594q-90 -88 -215 -123t-301 -35t-302 35q-266 74 -350 356q-43 148 -43 364q0 424 179 587q84 78 213 117q131 32 303 32z" />
    <glyph glyph-name="P" unicode="P" horiz-adv-x="1400" 
d="M498 0h-330v1427h797q391 0 391 -501q0 -205 -99 -344q-100 -137 -290 -138h-469v-444zM498 717h352q143 0 143 214t-139 214h-356v-428z" />
    <glyph glyph-name="Q" unicode="Q" horiz-adv-x="1601" 
d="M801 272q119 0 181 16t100 67q40 52 48 132q26 174 5 435q-15 82 -31 128t-60 68q-41 23 -92 32t-151 9q-99 0 -151 -9t-93 -32q-43 -20 -59 -68t-31 -128q-8 -98 -8 -226t10 -209q21 -167 156 -200q57 -15 176 -15zM801 1462q172 0 303 -32q127 -39 215 -117
q176 -165 176 -584q0 -311 -92 -472t-277 -204q133 -39 420 -446h-381q-217 350 -366 364q-357 0 -525 167t-168 587t177 588q88 78 215 117q131 32 303 32z" />
    <glyph glyph-name="R" unicode="R" horiz-adv-x="1478" 
d="M645 510h-147v-510h-330v1427h797q391 0 391 -417q0 -168 -82 -279q-89 -111 -275 -119q75 -26 177 -156t292 -456h-411q-158 282 -251 396t-161 114zM498 1147v-367h366q125 0 125 183t-121 184h-370z" />
    <glyph glyph-name="S" unicode="S" horiz-adv-x="1273" 
d="M744 1159q-192 0 -249 -32q-59 -33 -59 -105t54 -102t265 -54q210 -23 328 -125q113 -104 113 -305q0 -260 -146 -362t-454 -102t-496 67l68 283q178 -48 364 -48t248 29q59 31 60 111q0 49 -21 78q-23 25 -88 49q-76 20 -199 34q-232 25 -340 114t-108 284
q0 264 154 375q147 115 475 114q270 1 456 -67l-67 -283q-166 47 -358 47z" />
    <glyph glyph-name="T" unicode="T" horiz-adv-x="1288" 
d="M811 0h-332v1139h-477v288h1284v-288h-475v-1139z" />
    <glyph glyph-name="U" unicode="U" horiz-adv-x="1525" 
d="M1042 1427h332v-1028q0 -129 -43 -211q-41 -88 -125 -131q-139 -84 -444 -85t-459 91t-153 336v1028h333v-862q0 -116 13 -157q6 -40 21 -56t50 -41q55 -32 166 -32t167 14q56 13 82 31t37 51t21 86l2 104v862z" />
    <glyph glyph-name="V" unicode="V" horiz-adv-x="1337" 
d="M-66 1427h365q74 -172 196 -515t181 -558q156 399 350 1073h352q-84 -297 -242 -727t-272 -700h-422q-264 874 -508 1427z" />
    <glyph glyph-name="W" unicode="W" horiz-adv-x="2070" 
d="M1042 862q-88 -391 -231 -862h-420q-211 874 -403 1427h358q162 -477 281 -999q193 639 266 999h299q180 -602 266 -999q150 463 262 999h346q-156 -659 -407 -1427h-422q-72 364 -195 862z" />
    <glyph glyph-name="X" unicode="X" horiz-adv-x="1409" 
d="M410 1427q72 -92 309 -413q176 248 274 413h412q-168 -258 -479 -700q377 -535 504 -727h-416q-184 274 -297 434q-209 -281 -330 -434h-412q182 225 535 721q-350 483 -533 706h433z" />
    <glyph glyph-name="Y" unicode="Y" horiz-adv-x="1337" 
d="M852 0h-330v580q-436 610 -635 847h439q168 -219 366 -505q244 344 340 505h408q-274 -420 -588 -845v-582z" />
    <glyph glyph-name="Z" unicode="Z" 
d="M31 0v70q332 473 702 1069h-661v288h1185v-65q-137 -238 -350 -559q-213 -328 -354 -514h700v-289h-1222z" />
    <glyph glyph-name="bracketleft" unicode="[" horiz-adv-x="774" 
d="M188 1546h625v-272h-299v-1536h299v-270h-625v2078z" />
    <glyph glyph-name="backslash" unicode="\" horiz-adv-x="997" 
d="M-41 1427h336l729 -1427h-334z" />
    <glyph glyph-name="bracketright" unicode="]" horiz-adv-x="774" 
d="M-39 1546h625v-2078h-625v270h299v1536h-299v272z" />
    <glyph glyph-name="asciicircum" unicode="^" horiz-adv-x="1148" 
d="M778 606l-207 473l-204 -473h-336l393 821h295l399 -821h-340z" />
    <glyph glyph-name="underscore" unicode="_" horiz-adv-x="1038" 
d="M55 -377v301h928v-301h-928z" />
    <glyph glyph-name="grave" unicode="`" horiz-adv-x="972" 
d="M754 1163h-265l-309 264h324z" />
    <glyph glyph-name="a" unicode="a" horiz-adv-x="1165" 
d="M418 326q0 -76 28 -99t122 -23q93 0 173 29v199q-51 14 -153 14t-137 -20q-33 -24 -33 -100zM1040 670v-617q-221 -82 -488 -82q-266 0 -362 71q-96 70 -96 276t99 276q102 68 311 68q113 0 237 -27q0 113 -44 149q-45 36 -201 37q-156 0 -318 -49l-49 250q219 55 457 55
t346 -90t108 -317z" />
    <glyph glyph-name="b" unicode="b" horiz-adv-x="1220" 
d="M135 1479h316v-461q115 59 260 59q215 0 314 -119q99 -120 99 -430t-118 -434t-398 -123q-280 0 -473 74v1434zM451 733v-483q67 -27 153 -27q86 1 124 21q79 43 81 284q0 160 -39 222q-44 57 -136 57t-134 -21q-49 -20 -49 -53z" />
    <glyph glyph-name="c" unicode="c" horiz-adv-x="966" 
d="M94 527q0 304 133 427t389 123q203 0 330 -45l-65 -266q-115 43 -239 43t-179 -51q-51 -54 -51 -230t53 -231t176 -55t240 47l65 -264q-131 -53 -330 -54q-254 0 -388 126t-134 430z" />
    <glyph glyph-name="d" unicode="d" horiz-adv-x="1220" 
d="M1085 1479v-1434q-197 -74 -473 -74t-399 123q-119 123 -119 428t117 430t328 125q127 0 231 -45v447h315zM770 741q0 33 -47 58q-49 23 -117 22q-110 0 -152 -61q-42 -62 -42 -236t40 -231t150 -57t168 24v481z" />
    <glyph glyph-name="e" unicode="e" horiz-adv-x="1138" 
d="M608 840q-96 0 -134 -37t-54 -139h364q-4 108 -42 142t-134 34zM94 530q0 303 127 424q123 123 367 123q137 0 227 -24q89 -29 149 -96t85 -197q18 -131 10 -328h-641q4 -121 55 -158q49 -41 191 -41t276 35l47 -239q-171 -57 -395 -57t-363 126q-135 129 -135 432z" />
    <glyph glyph-name="f" unicode="f" horiz-adv-x="792" 
d="M485 1081v-34h324v-271h-324v-776h-313v776h-170v271h170v55q0 231 123 311q99 72 275 73t315 -48l-68 -244q-81 27 -175 27t-126 -33t-31 -107z" />
    <glyph glyph-name="g" unicode="g" horiz-adv-x="1220" 
d="M612 1077q276 0 473 -73v-920q0 -309 -167 -408q-135 -92 -381 -93t-414 61l55 245q182 -47 320 -47t204 43q68 43 68 152q-123 -59 -254 -60q-215 0 -319 117q-103 121 -103 427t121 431t397 125zM770 315v484q-74 29 -157 29t-121 -21q-80 -43 -80 -285q0 -162 39 -223
q43 -57 135 -57t135 20q49 20 49 53z" />
    <glyph glyph-name="h" unicode="h" horiz-adv-x="1222" 
d="M784 596q0 203 -165 203q-79 1 -125 -17t-45 -49v-733h-314v1479h314v-467q153 65 263 65t172 -18t111 -68q103 -91 103 -383v-608h-314v596z" />
    <glyph glyph-name="i" unicode="i" horiz-adv-x="581" 
d="M293 1503q106 0 141 -28q37 -25 37 -124t-36 -131t-142 -32t-142 32t-36 131t37 124q35 28 141 28zM451 1049v-1049h-316v1049h316z" />
    <glyph glyph-name="j" unicode="j" horiz-adv-x="581" 
d="M451 1049v-1053q0 -228 -111 -320t-365 -92v254q160 0 160 150v1061h316zM293 1503q106 0 141 -28q37 -25 37 -124t-36 -131t-142 -32t-142 32t-36 131t37 124q35 28 141 28z" />
    <glyph glyph-name="k" unicode="k" horiz-adv-x="1204" 
d="M451 0h-316v1479h316v-924q90 84 362 494h363q-246 -381 -361 -476q37 -27 141 -172t250 -401h-364q-330 522 -391 555v-555z" />
    <glyph glyph-name="l" unicode="l" horiz-adv-x="598" 
d="M451 1479v-1174q0 -147 69 -254l-282 -102q-102 127 -103 348v1182h316z" />
    <glyph glyph-name="m" unicode="m" horiz-adv-x="1824" 
d="M451 0h-316v983q256 94 520 94q172 0 263 -67q193 68 362 67q223 0 322 -110q98 -111 98 -387v-580h-314v555q0 147 -32 195t-128 47q-96 0 -171 -19q20 -88 20 -198v-580h-313v555q0 141 -33 195q-37 46 -127 46t-151 -18v-778z" />
    <glyph glyph-name="n" unicode="n" horiz-adv-x="1222" 
d="M451 0h-316v983q256 94 533 94q225 -1 328 -113t104 -384v-580h-316v555q0 143 -34 195q-37 46 -129 46t-170 -18v-778z" />
    <glyph glyph-name="o" unicode="o" horiz-adv-x="1208" 
d="M795 552q0 221 -73 260q-36 19 -136 19t-138 -54q-36 -54 -36 -250t38 -253t152 -57t154 57q39 57 39 278zM602 -29q-266 0 -387 125t-121 434t121 428t389 119t389 -119t121 -428t-123 -434t-389 -125z" />
    <glyph glyph-name="p" unicode="p" horiz-adv-x="1220" 
d="M135 -393v1397q195 74 471 74t400 -120q118 -121 118 -429t-116 -431q-115 -127 -328 -127q-117 0 -229 47v-411h-316zM451 309q0 -35 48 -57t113 -23q113 1 155 61t42 234t-40 232t-146 60q-106 0 -172 -25v-482z" />
    <glyph glyph-name="q" unicode="q" horiz-adv-x="1220" 
d="M1085 -393h-315v428q-119 -63 -262 -64q-213 0 -315 119q-99 123 -99 430t121 432q121 126 397 126t473 -74v-1397zM770 315v484q-74 29 -157 29t-121 -21q-80 -43 -80 -285q0 -162 39 -223q43 -57 135 -57t135 20q49 20 49 53z" />
    <glyph glyph-name="r" unicode="r" horiz-adv-x="813" 
d="M135 0v1049h316v-82q66 111 254 110q49 0 104 -6v-293q-59 16 -147 16t-150 -28q-62 -29 -61 -78v-688h-316z" />
    <glyph glyph-name="s" unicode="s" horiz-adv-x="991" 
d="M564 831q-114 0 -148 -15q-34 -16 -35 -66q0 -50 33 -66t157 -33q188 -25 271 -94q82 -70 82 -225q0 -199 -125 -280t-344 -81t-373 58l61 237q151 -43 273 -43q122 -1 164 17t41 68q0 50 -40 70t-169 34q-174 14 -255 80t-81 227q0 199 123 279t331 79q208 0 369 -57
l-61 -234q-160 45 -274 45z" />
    <glyph glyph-name="t" unicode="t" horiz-adv-x="874" 
d="M829 778h-327v-391q0 -80 30 -115q30 -34 109 -34q80 0 170 28l51 -241q-129 -53 -315 -53q-185 0 -273 79q-88 80 -88 303v424h-170v271h170v155l316 127v-282h327v-271z" />
    <glyph glyph-name="u" unicode="u" horiz-adv-x="1222" 
d="M776 1049h311v-986q-265 -94 -511 -94t-348 113t-101 385v582h311v-557q0 -142 37 -192t150 -50q63 0 151 20v779z" />
    <glyph glyph-name="v" unicode="v" horiz-adv-x="1048" 
d="M524 319q145 414 224 728h313q-156 -524 -369 -1047h-375q-168 590 -340 1047h318q120 -316 229 -728z" />
    <glyph glyph-name="w" unicode="w" horiz-adv-x="1716" 
d="M856 608q-61 -285 -170 -608h-377q-145 537 -334 1049h322q119 -315 219 -721q115 346 205 721h285q113 -350 194 -721q152 444 215 721h316q-174 -598 -361 -1049h-377q-74 366 -137 608z" />
    <glyph glyph-name="x" unicode="x" horiz-adv-x="1064" 
d="M1083 0h-346q-74 123 -188 287q-143 -195 -219 -287h-342q123 143 399 522q-236 330 -395 525h360q51 -63 205 -277q63 88 182 277h342q-111 -170 -356 -517q237 -340 358 -530z" />
    <glyph glyph-name="y" unicode="y" horiz-adv-x="1048" 
d="M338 -51q-145 524 -361 1098h318q127 -338 229 -730q152 434 224 730h313q-160 -559 -399 -1110q-102 -240 -150 -330h-346q76 125 172 342z" />
    <glyph glyph-name="z" unicode="z" horiz-adv-x="1019" 
d="M55 1049h938v-52q-215 -362 -487 -727h463v-270h-949v51q120 158 270 380t222 347h-457v271z" />
    <glyph glyph-name="braceleft" unicode="{" horiz-adv-x="774" 
d="M608 894q0 -175 -54 -268t-126 -116q70 -20 125 -118t55 -275q0 -304 88 -385q35 -39 113 -68l-150 -227q-352 119 -352 529t-227 411v262q227 0 227 413t352 531l150 -233q-72 -29 -113 -66q-40 -43 -64 -129t-24 -261z" />
    <glyph glyph-name="bar" unicode="|" horiz-adv-x="821" 
d="M246 1546h329v-2070h-329v2070z" />
    <glyph glyph-name="braceright" unicode="}" horiz-adv-x="774" 
d="M694 639v-260q-227 0 -227 -412t-352 -530l-148 233q70 27 111 68q88 79 88 352q0 209 55 304t125 116q-70 20 -125 118t-55 271q0 174 -22 258t-62 129q-45 41 -115 68l148 229q352 -119 352 -531t227 -413z" />
    <glyph glyph-name="asciitilde" unicode="~" horiz-adv-x="1153" 
d="M792 526q-106 0 -242 85t-198 85q-78 0 -127 -116l-178 174q123 209 297 209q80 0 152 -35t168 -88q68 -43 116 -43q48 -1 76 29q30 30 57 106l197 -158q-41 -111 -127 -176q-85 -72 -191 -72z" />
    <glyph glyph-name="uni0401" unicode="&#x401;" horiz-adv-x="1282" 
d="M920 1786q84 0 112 -24t29 -110q0 -86 -29 -112q-28 -29 -112 -29t-111 29q-29 25 -29 112t29 109q27 25 111 25zM459 1786q86 0 112 -25q29 -23 29 -109t-29 -112q-27 -29 -111 -29t-112 29q-29 25 -29 113t29 108q25 25 111 25zM168 1427h1065v-288h-735v-256h526v-283
h-526v-311h735v-289h-1065v1427z" />
    <glyph glyph-name="uni0402" unicode="&#x402;" horiz-adv-x="1570" 
d="M1286 1139h-475v-250q141 65 257 65t187 -20q68 -27 121 -82q103 -122 103 -477q0 -594 -303 -762l-236 209q102 61 154 173t51 367q0 253 -73 294q-34 20 -100 20t-112 -16t-49 -46v-614h-332v1139h-477v288h1284v-288z" />
    <glyph glyph-name="uni0403" unicode="&#x403;" horiz-adv-x="1132" 
d="M725 1530h-264l258 264h328zM498 0h-330v1427h1003v-288h-673v-1139z" />
    <glyph glyph-name="uni0404" unicode="&#x404;" horiz-adv-x="1269" 
d="M788 -29q-232 0 -382 66q-308 142 -308 690q0 424 176 588q88 80 210 114q122 33 334 33t403 -51q-35 -175 -64 -291q-117 39 -307 39t-277 -53q-88 -49 -110 -223h559v-283h-561q14 -197 104 -260q91 -64 283 -64t309 39l64 -297q-201 -47 -433 -47z" />
    <glyph glyph-name="uni0405" unicode="&#x405;" horiz-adv-x="1273" 
d="M744 1159q-192 0 -249 -32q-59 -33 -59 -105t54 -102t265 -54q210 -23 328 -125q113 -104 113 -305q0 -260 -146 -362t-454 -102t-496 67l68 283q178 -48 364 -48t248 29q59 31 60 111q0 49 -21 78q-23 25 -88 49q-76 20 -199 34q-232 25 -340 114t-108 284
q0 264 154 375q147 115 475 114q270 1 456 -67l-67 -283q-166 47 -358 47z" />
    <glyph glyph-name="uni0406" unicode="&#x406;" horiz-adv-x="665" 
d="M168 1427h330v-1427h-330v1427z" />
    <glyph glyph-name="uni0407" unicode="&#x407;" horiz-adv-x="665" 
d="M424 1652q0 86 28 110t112 24q83 0 112 -24t29 -110t-29 -112q-27 -29 -112 -29t-111 29q-29 25 -29 112zM102 1786q86 0 114 -24t28 -110t-29 -112q-27 -29 -112 -29t-111 29q-29 25 -29 113t29 108q24 25 110 25zM168 1427h330v-1427h-330v1427z" />
    <glyph glyph-name="uni0408" unicode="&#x408;" horiz-adv-x="966" 
d="M807 1427v-1034q0 -240 -143 -336q-125 -84 -311 -85q-187 -1 -347 53l55 294q119 -41 252 -40q160 0 160 167v981h334z" />
    <glyph glyph-name="uni0409" unicode="&#x409;" horiz-adv-x="2234" 
d="M1667 694h-348v-413h352q131 1 131 207t-135 206zM989 1122h-344q-55 -573 -244 -1122h-350q260 795 289 1427h979v-464h459q192 -1 288 -135t97 -343q0 -485 -379 -485h-795v1122z" />
    <glyph glyph-name="uni040A" unicode="&#x40a;" horiz-adv-x="2258" 
d="M1692 672h-349v-391h353q70 0 98 47q33 41 33 149q0 195 -135 195zM498 672v-672h-330v1427h330v-477h516v477h329v-477h459q195 0 290 -132t95 -341q0 -477 -379 -477h-794v672h-516z" />
    <glyph glyph-name="uni040B" unicode="&#x40b;" horiz-adv-x="1585" 
d="M1460 487v-487h-315v467q0 123 -45 166q-46 43 -120 43q-160 0 -169 -62v-614h-332v1139h-477v288h1284v-288h-475v-250q141 65 255 65t175 -18t119 -68q100 -96 100 -381z" />
    <glyph glyph-name="uni040C" unicode="&#x40c;" horiz-adv-x="1406" 
d="M840 1530h-267l261 264h325zM498 0h-330v1427h330v-684q258 289 503 684h394q-336 -518 -467 -641q63 -25 116 -61q48 -37 110 -114q130 -163 278 -611h-392q-86 246 -174 401q-84 141 -166 197t-202 68v-666z" />
    <glyph glyph-name="uni040E" unicode="&#x40e;" horiz-adv-x="1284" 
d="M559 1784q0 -107 95 -107t123 26t28 81h192q-1 -293 -323 -293t-322 293h207zM469 369l-8 20q-7 19 -15 37q-241 595 -487 1001h397q176 -315 320 -696q195 397 297 696h381q-129 -332 -328 -734t-377 -693h-420q123 160 240 369z" />
    <glyph glyph-name="uni040F" unicode="&#x40f;" horiz-adv-x="1531" 
d="M1364 0h-444l-43 -389h-215l-44 389h-448v1427h330v-1124h536v1124h328v-1427z" />
    <glyph glyph-name="uni0410" unicode="&#x410;" horiz-adv-x="1411" 
d="M727 1141h-53q-63 -172 -187 -541h410q-111 328 -170 541zM1112 0q-63 147 -121 315h-588q-27 -90 -92 -315h-352q199 672 506 1427h510q240 -788 502 -1427h-365z" />
    <glyph glyph-name="uni0411" unicode="&#x411;" horiz-adv-x="1480" 
d="M1255 1427v-288h-757v-262h479q383 0 383 -441q0 -240 -96 -338t-281 -98h-815v1427h1087zM498 281h399q104 -1 104 163t-112 164h-391v-327z" />
    <glyph glyph-name="uni0412" unicode="&#x412;" horiz-adv-x="1480" 
d="M1360 372q0 -196 -96 -282q-92 -90 -281 -90h-815v1427h809q205 1 281 -81t75 -254t-63 -248q-62 -78 -242 -92q192 -8 262 -96t70 -284zM498 1147v-270h389q47 0 71 30q20 35 21 105q0 70 -21 104q-25 31 -71 31h-389zM498 281h399q104 -1 104 163t-112 164h-391v-327z
" />
    <glyph glyph-name="uni0413" unicode="&#x413;" horiz-adv-x="1126" 
d="M498 0h-330v1427h1003v-288h-673v-1139z" />
    <glyph glyph-name="uni0414" unicode="&#x414;" horiz-adv-x="1683" 
d="M1104 303v836h-356q-43 -485 -148 -836h504zM1432 1427v-1124h251l-45 -618h-292v315h-992v-315h-295l-45 618h230q176 547 200 1124h988z" />
    <glyph glyph-name="uni0415" unicode="&#x415;" horiz-adv-x="1282" 
d="M168 1427h1065v-288h-735v-256h526v-283h-526v-311h735v-289h-1065v1427z" />
    <glyph glyph-name="uni0416" unicode="&#x416;" horiz-adv-x="2062" 
d="M866 1427h330v-677q213 252 465 677h389q-330 -535 -440 -641q88 -37 147 -92t145 -222t185 -472h-389q-155 477 -314 598q-80 55 -188 68v-666h-330v666q-111 -12 -190 -68q-159 -119 -311 -598h-390q99 305 185 472t145 222t148 92q-111 106 -441 641h389
q242 -412 465 -677v677z" />
    <glyph glyph-name="uni0417" unicode="&#x417;" horiz-adv-x="1320" 
d="M381 600v283h240q106 0 151 28q43 29 43 112t-61 111q-62 28 -268 28t-328 -40l-62 289q225 51 520 51t424 -82q127 -86 127 -288q0 -164 -62 -245t-243 -95q196 -10 266 -100t70 -269q0 -225 -140 -318t-442 -93t-526 48l62 293q124 -39 336 -39t282 33q68 37 68 129
t-50 129q-51 35 -159 35h-248z" />
    <glyph glyph-name="uni0418" unicode="&#x418;" horiz-adv-x="1630" 
d="M1462 1427v-1427h-325v940q-268 -504 -537 -940h-432v1427h324v-978q324 530 567 978h403z" />
    <glyph glyph-name="uni0419" unicode="&#x419;" horiz-adv-x="1630" 
d="M487 1784h207q0 -66 29 -84q25 -23 95 -23t93 23q29 18 29 84h193q0 -293 -323 -293t-323 293zM1462 1427v-1427h-325v940q-268 -504 -537 -940h-432v1427h324v-978q324 530 567 978h403z" />
    <glyph glyph-name="uni041A" unicode="&#x41a;" horiz-adv-x="1406" 
d="M498 0h-330v1427h330v-684q258 289 503 684h394q-336 -518 -467 -641q63 -25 116 -61q48 -37 110 -114q130 -163 278 -611h-392q-86 246 -174 401q-84 141 -166 197t-202 68v-666z" />
    <glyph glyph-name="uni041B" unicode="&#x41b;" horiz-adv-x="1507" 
d="M1010 1139h-365q-55 -596 -244 -1139h-350q260 795 289 1427h999v-1427h-329v1139z" />
    <glyph glyph-name="uni041C" unicode="&#x41c;" horiz-adv-x="1923" 
d="M1755 1427v-1427h-319v965q-154 -336 -353 -846h-262q-258 676 -334 846v-965h-319v1427h442q174 -348 367 -835q162 432 356 835h422z" />
    <glyph glyph-name="uni041D" unicode="&#x41d;" horiz-adv-x="1531" 
d="M498 602v-602h-330v1427h330v-520h536v520h330v-1427h-330v602h-536z" />
    <glyph glyph-name="uni041E" unicode="&#x41e;" horiz-adv-x="1587" 
d="M795 272q119 0 181 16q125 32 150 199q10 89 10 231t-10 204q-15 161 -88 196q-41 23 -92 32t-151 9q-99 0 -151 -9t-93 -32q-73 -34 -88 -196q-10 -61 -10 -204t11 -227q22 -172 154 -204q58 -15 177 -15zM795 1462q172 0 303 -32q129 -39 217 -120q174 -160 174 -587
t-178 -594q-90 -88 -215 -123t-301 -35t-302 35q-266 74 -350 356q-43 148 -43 364q0 424 179 587q84 78 213 117q131 32 303 32z" />
    <glyph glyph-name="uni041F" unicode="&#x41f;" horiz-adv-x="1531" 
d="M498 1139v-1139h-330v1427h1196v-1427h-330v1139h-536z" />
    <glyph glyph-name="uni0420" unicode="&#x420;" horiz-adv-x="1400" 
d="M498 0h-330v1427h797q391 0 391 -501q0 -205 -99 -344q-100 -137 -290 -138h-469v-444zM498 717h352q143 0 143 214t-139 214h-356v-428z" />
    <glyph glyph-name="uni0421" unicode="&#x421;" horiz-adv-x="1204" 
d="M100 727q0 209 39 360q43 143 127 228q90 82 208 115q118 32 328 32t388 -51l-64 -291q-109 39 -255 39q-147 0 -213 -12t-113 -57q-51 -43 -74 -132q-18 -88 -18 -234t18 -237q41 -164 191 -196q64 -15 206 -15t258 39l64 -297q-184 -47 -414 -47q-356 0 -516 166
t-160 590z" />
    <glyph glyph-name="uni0422" unicode="&#x422;" horiz-adv-x="1288" 
d="M811 0h-332v1139h-477v288h1284v-288h-475v-1139z" />
    <glyph glyph-name="uni0423" unicode="&#x423;" horiz-adv-x="1312" 
d="M678 733q195 397 295 694h383q-137 -346 -333 -740t-374 -687h-420q129 176 240 369q-77 207 -235 539t-275 519h397q179 -317 322 -694z" />
    <glyph glyph-name="uni0424" unicode="&#x424;" horiz-adv-x="1697" 
d="M403 718q-1 -159 49 -215t218 -67v557q-166 -6 -215 -63q-52 -53 -52 -212zM1280 717q0 164 -52 219t-229 57v-557q177 6 229 62t52 219zM670 1427h329v-163q353 -18 487 -142t134 -406t-134 -405t-487 -141v-170h-329v168q-238 12 -367 72t-181 172q-52 111 -52 305
q0 287 127 405q123 123 473 142v163z" />
    <glyph glyph-name="uni0425" unicode="&#x425;" horiz-adv-x="1409" 
d="M410 1427q72 -92 309 -413q176 248 274 413h412q-168 -258 -479 -700q377 -535 504 -727h-416q-184 274 -297 434q-209 -281 -330 -434h-412q182 225 535 721q-350 483 -533 706h433z" />
    <glyph glyph-name="uni0426" unicode="&#x426;" horiz-adv-x="1613" 
d="M498 1427v-1124h536v1124h330v-1124h250l-45 -618h-293v315h-1108v1427h330z" />
    <glyph glyph-name="uni0427" unicode="&#x427;" horiz-adv-x="1435" 
d="M936 815v612h330v-1427h-330v438q-117 -57 -346 -57q-113 0 -199 21q-206 50 -276 237q-39 104 -39 258v530h332v-518q0 -131 54 -175t206 -44q268 0 268 125z" />
    <glyph glyph-name="uni0428" unicode="&#x428;" horiz-adv-x="2066" 
d="M1898 1427v-1427h-1730v1427h330v-1124h370v1124h332v-1124h371v1124h327z" />
    <glyph glyph-name="uni0429" unicode="&#x429;" horiz-adv-x="2150" 
d="M498 1427v-1124h370v1124h332v-1124h371v1124h327v-1124h252l-47 -618h-291v315h-1644v1427h330z" />
    <glyph glyph-name="uni042A" unicode="&#x42a;" horiz-adv-x="1519" 
d="M584 281h372q131 -1 131 203t-135 204h-368v-407zM37 1427h547v-460h479q190 0 289 -136q96 -137 96 -346q0 -88 -16 -157q-49 -328 -363 -328h-815v1139h-217v288z" />
    <glyph glyph-name="uni042B" unicode="&#x42b;" horiz-adv-x="1984" 
d="M1485 1427h332v-1427h-332v1427zM168 1427h330v-460h479q190 0 289 -136q96 -137 96 -346q0 -485 -379 -485h-815v1427zM498 281h372q131 -1 131 203t-135 204h-368v-407z" />
    <glyph glyph-name="uni042C" unicode="&#x42c;" horiz-adv-x="1433" 
d="M168 1427h330v-460h479q190 0 289 -136q96 -137 96 -346q0 -485 -379 -485h-815v1427zM498 281h372q131 -1 131 203t-135 204h-368v-407z" />
    <glyph glyph-name="uni042D" unicode="&#x42d;" horiz-adv-x="1269" 
d="M246 600v283h559q-23 174 -109 223q-88 53 -278 53t-305 -39q-1 4 -13 58q-20 94 -53 233q193 51 403 51t334 -34q267 -73 342 -338q43 -148 43 -398q1 -250 -79 -419t-226 -236q-150 -66 -383 -66t-434 47q40 191 66 297q115 -39 309 -39t280 64q93 63 107 260h-563z
" />
    <glyph glyph-name="uni042E" unicode="&#x42e;" horiz-adv-x="2025" 
d="M1114 730q0 -194 22 -291t68 -131q48 -34 149 -34t142 33q47 33 66 127q20 94 20 296q1 202 -21 292t-65 113q-41 29 -143 29t-148 -28t-68 -120t-22 -286zM1350 1462q135 0 243 -32q105 -39 181 -117q152 -154 151 -579q0 -425 -144 -594q-143 -169 -421 -169
q-278 1 -424 145t-164 486h-274v-602h-330v1427h330v-520h276q28 309 172 432t404 123z" />
    <glyph glyph-name="uni042F" unicode="&#x42f;" horiz-adv-x="1478" 
d="M123 1010q0 418 391 417h797v-1427h-330v510h-207q-80 0 -130 -35t-100 -143t-114 -332h-383q158 468 283 561q59 45 149 53q-188 8 -272 116t-84 280zM981 780v367h-371q-121 1 -121 -183t125 -184h367z" />
    <glyph glyph-name="uni0430" unicode="&#x430;" horiz-adv-x="1165" 
d="M588 446q-102 0 -137 -20q-33 -24 -33 -100t28 -99t122 -23q93 0 173 29v199q-51 14 -153 14zM1040 670v-617q-221 -82 -488 -82q-266 0 -362 71q-96 70 -96 276t99 276q102 68 311 68q113 0 237 -27q0 111 -44 145q-45 34 -211 35q-166 0 -308 -43l-49 250
q219 55 457 55t346 -90t108 -317z" />
    <glyph glyph-name="uni0431" unicode="&#x431;" horiz-adv-x="1187" 
d="M1096 512q0 -307 -120 -424t-398 -117q-121 0 -202 25q-188 58 -245 291q-31 131 -31 310q0 364 52 533q32 92 70 148q68 102 237 139q53 12 176 23q264 23 405 76v-271q-100 -45 -385 -69q-127 -8 -176 -68q-47 -63 -61 -188q82 111 258 110q102 0 175 -21
q158 -46 218 -239q27 -113 27 -258zM776 532q0 134 -38 184t-146 50t-140 -53q-34 -53 -34 -216t38 -219t116 -56t108 6q28 7 54 38t32 86q10 46 10 180z" />
    <glyph glyph-name="uni0432" unicode="&#x432;" horiz-adv-x="1216" 
d="M1124 276q0 -144 -82 -210t-233 -66h-674v1049h668q170 -1 235 -61q66 -60 66 -183t-51 -187q-60 -59 -201 -67q158 -6 215 -72q57 -59 57 -203zM451 815v-168h251q78 0 78 84q0 47 -18 65t-60 19h-251zM451 233h262q45 1 65 21t20 72q1 103 -93 102h-254v-195z" />
    <glyph glyph-name="uni0433" unicode="&#x433;" horiz-adv-x="894" 
d="M451 778v-778h-316v1049h758v-271h-442z" />
    <glyph glyph-name="uni0434" unicode="&#x434;" horiz-adv-x="1398" 
d="M872 778h-254q-14 -223 -90 -508h344v508zM1186 1049v-779h207l-70 -573h-256v303h-735v-303h-258l-70 573h197q110 423 133 779h852z" />
    <glyph glyph-name="uni0435" unicode="&#x435;" horiz-adv-x="1138" 
d="M608 840q-96 0 -134 -37t-54 -139h364q-4 108 -42 142t-134 34zM94 530q0 303 127 424q123 123 367 123q137 0 227 -24q89 -29 149 -96t85 -197q18 -131 10 -328h-641q4 -121 55 -158q49 -41 191 -41t276 35l47 -239q-171 -57 -395 -57t-363 126q-135 129 -135 432z" />
    <glyph glyph-name="uni0436" unicode="&#x436;" horiz-adv-x="1761" 
d="M723 1049h315v-498q170 225 336 498h359q-106 -180 -209 -308q-96 -125 -148 -174q66 -31 108 -69t112 -158q70 -121 157 -340h-356q-97 232 -183 338t-176 135v-473h-315v473q-90 -29 -175 -135t-183 -338h-357q86 219 156 336q66 121 111 161t108 70q-51 49 -148 175
t-208 307h358q197 -313 338 -498v498z" />
    <glyph glyph-name="uni0437" unicode="&#x437;" horiz-adv-x="1075" 
d="M313 430v227h164q82 0 125 15q33 20 33 64t-35 63q-37 16 -178 16t-301 -47l-60 268q199 41 448 41t352 -57t104 -217q0 -121 -52 -182q-57 -61 -194 -70q147 -10 209 -76q61 -68 61 -199q0 -178 -115 -239q-110 -66 -364 -66t-455 39l62 279q147 -53 305 -53t194 22
q39 18 39 76t-40 76q-40 20 -138 20h-164z" />
    <glyph glyph-name="uni0438" unicode="&#x438;" horiz-adv-x="1255" 
d="M805 0v549q-150 -279 -356 -549h-314v1047h314v-574q145 176 356 574h313v-1047h-313z" />
    <glyph glyph-name="uni0439" unicode="&#x439;" horiz-adv-x="1255" 
d="M301 1427h205q0 -66 29 -84q25 -23 94 -23t96 27q27 26 27 80h192q0 -293 -322 -293t-321 293zM805 0v549q-150 -279 -356 -549h-314v1047h314v-574q145 176 356 574h313v-1047h-313z" />
    <glyph glyph-name="uni043A" unicode="&#x43a;" horiz-adv-x="1204" 
d="M451 0h-316v1049h316v-504q123 154 362 504h363q-254 -391 -363 -482q55 -25 101 -63q108 -90 282 -504h-360q-106 248 -193 348q-88 98 -192 125v-473z" />
    <glyph glyph-name="uni043B" unicode="&#x43b;" horiz-adv-x="1218" 
d="M770 778h-242q-27 -412 -139 -778h-330q135 461 172 1049h852v-1049h-313v778z" />
    <glyph glyph-name="uni043C" unicode="&#x43c;" horiz-adv-x="1613" 
d="M1477 1049v-1049h-310v682q-133 -289 -254 -627h-225q-119 352 -242 627v-682h-311v1049h443q85 -172 243 -547q119 307 232 547h424z" />
    <glyph glyph-name="uni043D" unicode="&#x43d;" horiz-adv-x="1234" 
d="M784 412h-335v-412h-314v1047h314v-367h335v367h314v-1047h-314v412z" />
    <glyph glyph-name="uni043E" unicode="&#x43e;" horiz-adv-x="1208" 
d="M795 552q0 221 -73 260q-36 19 -136 19t-138 -54q-36 -54 -36 -250t38 -253t152 -57t154 57q39 57 39 278zM602 -29q-266 0 -387 125t-121 434t121 428t389 119t389 -119t121 -428t-123 -434t-389 -125z" />
    <glyph glyph-name="uni043F" unicode="&#x43f;" horiz-adv-x="1234" 
d="M451 778v-778h-316v1049h965v-1049h-316v778h-333z" />
    <glyph glyph-name="uni0440" unicode="&#x440;" horiz-adv-x="1220" 
d="M135 -393v1397q195 74 471 74t400 -120q118 -121 118 -429t-116 -431q-115 -127 -328 -127q-117 0 -229 47v-411h-316zM451 309q0 -35 48 -57t113 -23q113 1 155 61t42 234t-40 232t-146 60q-106 0 -172 -25v-482z" />
    <glyph glyph-name="uni0441" unicode="&#x441;" horiz-adv-x="966" 
d="M94 527q0 304 133 427t389 123q203 0 330 -45l-65 -266q-115 43 -239 43t-179 -51q-51 -54 -51 -230t53 -231t176 -55t240 47l65 -264q-131 -53 -330 -54q-254 0 -388 126t-134 430z" />
    <glyph glyph-name="uni0442" unicode="&#x442;" horiz-adv-x="997" 
d="M655 778v-778h-313v778h-338v271h987v-271h-336z" />
    <glyph glyph-name="uni0443" unicode="&#x443;" horiz-adv-x="1048" 
d="M338 -51q-145 524 -361 1098h318q127 -338 229 -730q152 434 224 730h313q-160 -559 -399 -1110q-102 -240 -150 -330h-346q76 125 172 342z" />
    <glyph glyph-name="uni0444" unicode="&#x444;" horiz-adv-x="1712" 
d="M1147 229q88 0 131 62q39 67 39 237t-39 228t-122 59q-83 0 -142 -18v-494q2 -74 133 -74zM552 229q74 0 112 21q35 25 34 55v492q-55 18 -140 18t-124 -58q-39 -57 -39 -227t39 -237q44 -64 118 -64zM698 1466h316v-401q47 12 129 12q264 0 369 -119q106 -119 106 -427
t-101 -434t-303 -126q-111 0 -200 47v-411h-316v411q-88 -47 -200 -47q-201 0 -302 126q-102 126 -102 434t106 427t369 119q82 0 129 -12v401z" />
    <glyph glyph-name="uni0445" unicode="&#x445;" horiz-adv-x="1064" 
d="M1083 0h-346q-74 123 -188 287q-143 -195 -219 -287h-342q123 143 399 522q-236 330 -395 525h360q51 -63 205 -277q63 88 182 277h342q-111 -170 -356 -517q237 -340 358 -530z" />
    <glyph glyph-name="uni0446" unicode="&#x446;" horiz-adv-x="1357" 
d="M1100 270h254l-72 -573h-256v303h-891v1049h316v-779h333v779h316v-779z" />
    <glyph glyph-name="uni0447" unicode="&#x447;" horiz-adv-x="1169" 
d="M70 772v277h315v-256q0 -123 45 -166q44 -43 120 -43t124 18q45 14 45 47v400h315v-1049h-315v371q-141 -66 -256 -66q-115 1 -177 19q-149 45 -192 208q-24 95 -24 240z" />
    <glyph glyph-name="uni0448" unicode="&#x448;" horiz-adv-x="1828" 
d="M1694 1049v-1049h-1559v1049h316v-779h307v779h313v-779h309v779h314z" />
    <glyph glyph-name="uni0449" unicode="&#x449;" horiz-adv-x="1953" 
d="M1620 -301v301h-1485v1047h314v-777h309v777h313v-777h307v777h316v-777h254l-72 -571h-256z" />
    <glyph glyph-name="uni044A" unicode="&#x44a;" horiz-adv-x="1269" 
d="M506 223h258q90 0 90 115t-96 115h-252v-230zM506 688h350q158 0 241 -89t83 -265t-82 -256q-84 -78 -242 -78h-666v778h-176v271h492v-361z" />
    <glyph glyph-name="uni044B" unicode="&#x44b;" horiz-adv-x="1667" 
d="M1532 1047v-1047h-315v1047h315zM449 688h350q157 0 241 -89t84 -265t-82 -256q-84 -78 -243 -78h-664v1047h314v-359zM709 221q90 0 90 116t-97 116h-253v-232h260z" />
    <glyph glyph-name="uni044C" unicode="&#x44c;" horiz-adv-x="1214" 
d="M449 688h350q157 0 241 -89t84 -265t-82 -256q-84 -78 -243 -78h-664v1047h314v-359zM709 221q90 0 90 116t-97 116h-253v-232h260z" />
    <glyph glyph-name="uni044D" unicode="&#x44d;" horiz-adv-x="983" 
d="M320 229q124 0 180 43q53 43 65 158h-385v234h381q-14 90 -67 124t-170 33q-117 0 -222 -35l-63 246q127 45 351 45t362 -124q137 -124 137 -425t-137 -430q-138 -126 -360 -126t-353 53l63 239q94 -35 218 -35z" />
    <glyph glyph-name="uni044E" unicode="&#x44e;" horiz-adv-x="1779" 
d="M1366 527q0 196 -36 250t-151 54q-114 0 -151 -54t-37 -250t38 -253t150 -57t148 57q39 57 39 253zM1192 -29q-250 -1 -371 99t-141 342h-229v-412h-316v1049h316v-369h231q27 221 149 309q115 88 364 88t370 -120t121 -428t-121 -435q-123 -123 -373 -123z" />
    <glyph glyph-name="uni044F" unicode="&#x44f;" horiz-adv-x="1259" 
d="M119 741q0 139 78 224q80 84 256 84h671v-1049h-315v340h-139q-94 0 -150 -66q-53 -70 -121 -274h-358q96 256 171 343t202 101q-295 14 -295 297zM809 582v219h-254q-96 0 -96 -110t98 -109h252z" />
    <glyph glyph-name="uni0451" unicode="&#x451;" horiz-adv-x="1138" 
d="M682 1288q0 84 28 108t111 25q84 -1 113 -25t29 -108t-29 -117q-31 -27 -112 -27t-111 27q-29 33 -29 117zM221 1288q1 84 29 108t112 25q84 -1 112 -25t28 -109t-31 -114t-111 -29t-110 27q-29 33 -29 117zM608 840q-96 0 -134 -37t-54 -139h364q-4 108 -42 142t-134 34
zM94 530q0 303 127 424q123 123 367 123q137 0 227 -24q89 -29 149 -96t85 -197q18 -131 10 -328h-641q4 -121 55 -158q49 -41 191 -41t276 35l47 -239q-171 -57 -395 -57t-363 126q-135 129 -135 432z" />
    <glyph glyph-name="uni0452" unicode="&#x452;" horiz-adv-x="1210" 
d="M451 1176v-199q135 65 255 65t188 -24q150 -51 198 -268q25 -119 24 -301q0 -334 -88 -550t-213 -286l-235 209q205 123 204 614q0 247 -73 293q-35 19 -97 19t-116 -15q-45 -18 -47 -45v-688h-316v1176h-92v213h92v90h316v-90h188v-213h-188z" />
    <glyph glyph-name="uni0453" unicode="&#x453;" horiz-adv-x="894" 
d="M575 1163h-266l252 264h322zM451 778v-778h-316v1049h758v-271h-442z" />
    <glyph glyph-name="uni0454" unicode="&#x454;" horiz-adv-x="983" 
d="M94 527q0 302 137 426t361 124t352 -45l-63 -246q-104 35 -221 35t-170 -34t-68 -123h381v-234h-385q12 -115 66 -158t178 -43t219 35l63 -239q-131 -53 -328 -54q-246 0 -384 127t-138 429z" />
    <glyph glyph-name="uni0455" unicode="&#x455;" horiz-adv-x="991" 
d="M564 831q-114 0 -148 -15q-34 -16 -35 -66q0 -50 33 -66t157 -33q188 -25 271 -94q82 -70 82 -225q0 -199 -125 -280t-344 -81t-373 58l61 237q151 -43 273 -43q122 -1 164 17t41 68q0 50 -40 70t-169 34q-174 14 -255 80t-81 227q0 199 123 279t331 79q208 0 369 -57
l-61 -234q-160 45 -274 45z" />
    <glyph glyph-name="uni0456" unicode="&#x456;" horiz-adv-x="581" 
d="M293 1503q106 0 141 -28q37 -25 37 -124t-36 -131t-142 -32t-142 32t-36 131t37 124q35 28 141 28zM451 1049v-1049h-316v1049h316z" />
    <glyph glyph-name="uni0457" unicode="&#x457;" horiz-adv-x="581" 
d="M383 1288q-1 84 27 108t112 25q84 -1 113 -25t29 -108t-29 -117q-31 -27 -112 -27t-111 27q-29 33 -29 117zM-78 1288q0 84 28 108t113 25q84 -1 112 -25t28 -109t-31 -114t-111 -29t-110 27q-29 33 -29 117zM451 1049v-1049h-316v1049h316z" />
    <glyph glyph-name="uni0458" unicode="&#x458;" horiz-adv-x="581" 
d="M451 1049v-1053q0 -228 -111 -320t-365 -92v254q160 0 160 150v1061h316zM293 1503q106 0 141 -28q37 -25 37 -124t-36 -131t-142 -32t-142 32t-36 131t37 124q35 28 141 28z" />
    <glyph glyph-name="uni0459" unicode="&#x459;" horiz-adv-x="1849" 
d="M1083 223h260q91 0 91 115t-97 115h-254v-230zM770 778h-242q-27 -412 -139 -778h-330q135 461 172 1049h852v-361h351q158 0 242 -89t83 -265q0 -176 -82 -256q-84 -78 -243 -78h-664v778z" />
    <glyph glyph-name="uni045A" unicode="&#x45a;" horiz-adv-x="1863" 
d="M1100 223h258q90 0 90 115t-96 115h-252v-230zM1100 688h350q158 0 241 -89t83 -265t-82 -256q-84 -78 -242 -78h-666v453h-333v-453h-316v1049h316v-361h333v361h316v-361z" />
    <glyph glyph-name="uni045B" unicode="&#x45b;" horiz-adv-x="1222" 
d="M43 1176v213h92v90h316v-90h188v-213h-188v-164q141 66 255 66t174 -19q62 -18 119 -68q101 -97 101 -381v-610h-316v590q0 123 -45 166t-119 43t-124 -17q-45 -18 -45 -49v-733h-316v1176h-92z" />
    <glyph glyph-name="uni045C" unicode="&#x45c;" horiz-adv-x="1204" 
d="M715 1163h-266l251 264h322zM451 0h-316v1049h316v-504q123 154 362 504h363q-254 -391 -363 -482q55 -25 101 -63q108 -90 282 -504h-360q-106 248 -193 348q-88 98 -192 125v-473z" />
    <glyph glyph-name="uni045E" unicode="&#x45e;" horiz-adv-x="1048" 
d="M199 1430h207q0 -61 28 -87q31 -20 94 -20t95 20q29 25 28 87h193q0 -293 -322 -293t-323 293zM338 -51q-145 524 -361 1098h318q127 -338 229 -730q152 434 224 730h313q-160 -559 -399 -1110q-102 -240 -150 -330h-346q76 125 172 342z" />
    <glyph glyph-name="uni045F" unicode="&#x45f;" horiz-adv-x="1234" 
d="M451 1049v-779h333v779h316v-1049h-328l-43 -379h-217l-43 379h-334v1049h316z" />
    <glyph glyph-name="uni0490" unicode="&#x490;" horiz-adv-x="1126" 
d="M168 0v1427h711l75 379h217v-667h-673v-1139h-330z" />
    <glyph glyph-name="uni0491" unicode="&#x491;" horiz-adv-x="894" 
d="M893 776h-444v-776h-314v1047h498l74 356h186v-627z" />
  </font>
</defs>
</svg>
