<?xml version="1.0" standalone="no"?>
<!DOCTYPE svg PUBLIC "-//W3C//DTD SVG 1.1//EN" "http://www.w3.org/Graphics/SVG/1.1/DTD/svg11.dtd" >
<svg xmlns="http://www.w3.org/2000/svg">
<metadata>
Created by FontPrep 20130207 at Sun Oct 12 02:52:35 2014
 By Anton Nemtsev
(c) 2006 Microsoft Corporation. All rights reserved.
</metadata>
<defs>
<font id="2bd141ae2a8e92e3cdd9163089ec8924" horiz-adv-x='1024' >
  <font-face 
    font-family="Tahoma"
    font-weight="400"
    font-stretch="normal"
    units-per-em="2048"
    panose-1="2 0 5 3 0 0 0 0 0 0"
    ascent="1638"
    descent="-410"
    x-height="1117"
    cap-height="1489"
    bbox="-981 -423 2759 2049"
    underline-thickness="130"
    underline-position="-105"
    unicode-range="U+0021-04FF"
  />
<missing-glyph horiz-adv-x="1024" 
 />
    <glyph glyph-name=".notdef" horiz-adv-x="1024" 
 />
    <glyph glyph-name=".null" horiz-adv-x="0" 
 />
    <glyph glyph-name="nonmarkingreturn" horiz-adv-x="682" 
 />
    <glyph glyph-name="exclam" unicode="!" horiz-adv-x="680" 
d="M442 0h-204v211h204v-211zM452 1489l-28 -1079h-166l-30 1079h224z" />
    <glyph glyph-name="quotedbl" unicode="&#x22;" horiz-adv-x="822" 
d="M332 1556l-43 -579h-132l-43 579h218zM708 1556l-43 -579h-132l-43 579h218z" />
    <glyph glyph-name="numbersign" unicode="#" horiz-adv-x="1490" 
d="M929 934h-274l-94 -380h274zM1348 932h-293l-92 -376h268v-135h-303l-105 -421h-129l105 421h-270l-105 -421h-129l105 421h-258v135h293l92 376h-268v135h303l105 422h129l-105 -422h270l105 422h129l-105 -422h258v-135z" />
    <glyph glyph-name="dollar" unicode="$" horiz-adv-x="1118" 
d="M835 354q-1 94 -49 140t-158 67v-415q207 24 207 208zM302 962q0 -88 44 -138t168 -78v414q-88 -7 -150 -58t-62 -140zM628 1306q191 -6 348 -75v-198h-15q-172 116 -333 128v-430q49 -11 60 -14l28 -7q16 -4 23 -6q285 -65 285 -324q0 -146 -113 -252t-283 -127v-362
h-114v357q-239 4 -408 89v202h15q166 -122 393 -143v432q-79 18 -122 31q-150 41 -214 123t-65 214t111 238t290 122v272h114v-270z" />
    <glyph glyph-name="percent" unicode="%" horiz-adv-x="2000" 
d="M1719 414q0 150 -35 229q-36 78 -139 78q-103 1 -139 -79t-36 -230t34 -230q34 -78 139 -78t141 79q35 81 35 231zM629 1077q0 150 -35 229q-36 78 -139 78t-139 -79t-36 -230t34 -229t139 -79q105 0 141 79q35 81 35 231zM1545 854q352 0 352 -442q-1 -442 -353 -441
q-352 0 -352 441q0 224 91 333t262 109zM1473 1489l-780 -1489h-165l780 1489h165zM455 1517q352 1 352 -441q-1 -442 -353 -442t-352 441q0 224 91 333t262 109z" />
    <glyph glyph-name="ampersand" unicode="&#x26;" horiz-adv-x="1380" 
d="M717 1191q-1 97 -57 150t-138 53t-133 -60t-51 -150q0 -44 6 -70q17 -67 92 -131q35 -33 96 -71q185 66 185 279zM272 457q0 -143 84 -234t229 -91q193 0 313 169l-460 471q-105 -69 -148 -196q-18 -56 -18 -119zM343 843q-201 134 -201 310q0 91 28 153q30 62 78 108
q108 105 282 106q174 0 278 -88t105 -221q0 -176 -145 -295q-52 -43 -142 -75l352 -362q20 123 20 430h195v-96q0 -239 -105 -445l357 -368h-256l-204 213q-101 -129 -209 -187t-244 -57q-201 0 -334 121q-131 123 -131 319q0 228 178 365q49 39 98 69z" />
    <glyph glyph-name="quotesingle" unicode="'" horiz-adv-x="432" 
d="M327 1556l-43 -579h-136l-43 579h222z" />
    <glyph glyph-name="parenleft" unicode="(" horiz-adv-x="784" 
d="M710 -412h-229q-173 208 -273 438t-100 542t98 545q98 234 275 443h229v-10q-290 -263 -388 -662q-38 -146 -38 -314t37 -311q105 -405 389 -661v-10z" />
    <glyph glyph-name="parenright" unicode=")" horiz-adv-x="784" 
d="M676 574q0 -312 -99 -546t-274 -440h-229v10q81 73 155 170q159 203 234 493q37 143 37 311q0 452 -273 806q-77 99 -153 168v10h229q173 -206 273 -438t100 -544z" />
    <glyph glyph-name="asterisk" unicode="*" horiz-adv-x="1118" 
d="M1007 887l-65 -110l-327 217l7 -364h-125l6 364l-325 -218l-66 110l354 207l-354 207l66 110l326 -219l-7 365h125l-8 -365l328 218l65 -110l-354 -205z" />
    <glyph glyph-name="plus" unicode="+" horiz-adv-x="1490" 
d="M1333 572h-505v-505h-166v505h-505v160h505v505h166v-505h505v-160z" />
    <glyph glyph-name="comma" unicode="," horiz-adv-x="620" 
d="M500 285l-280 -655h-146l176 655h250z" />
    <glyph glyph-name="period" unicode="." horiz-adv-x="620" 
d="M429 0h-239v285h239v-285z" />
    <glyph glyph-name="slash" unicode="/" horiz-adv-x="783" 
d="M728 1556l-583 -1880h-169l580 1880h172z" />
    <glyph glyph-name="zero" unicode="0" horiz-adv-x="1118" 
d="M779 291q53 137 53 455t-54 453q-60 155 -219 155q-231 0 -262 -349q-11 -121 -11 -272t10 -253q21 -225 124 -304q52 -42 138 -42q160 0 221 157zM1035 739q-1 -394 -117 -582t-360 -188q-244 1 -360 191t-115 588q0 398 116 584t361 187q245 0 360 -193t115 -587z" />
    <glyph glyph-name="one" unicode="1" horiz-adv-x="1118" 
d="M952 0h-726v152h270v998h-270v136q154 0 226 43t81 165h155v-1342h264v-152z" />
    <glyph glyph-name="two" unicode="2" horiz-adv-x="1118" 
d="M1028 0h-919v209q57 55 163 157t238 248t192 256t60 230q0 121 -71 184t-184 63q-49 0 -132 -21t-138 -54t-86 -54h-11v212q60 30 172 60t210 30q207 0 326 -110q118 -111 118 -300q0 -86 -20 -160q-49 -178 -256 -393q-129 -138 -394 -386h732v-171z" />
    <glyph glyph-name="three" unicode="3" horiz-adv-x="1118" 
d="M138 1217v211q62 32 178 62t212 30q310 0 412 -200q33 -68 33 -175q-1 -107 -81 -199t-194 -119v-14q208 -42 275 -207q29 -66 29 -164q0 -199 -132 -336t-366 -137q-112 0 -222 27t-185 65v211h14q63 -46 169 -88t192 -42t144 18q112 35 162 162q21 52 21 132
q0 224 -189 258q-57 12 -124 12h-85v166h66q136 0 220 64t84 186q0 58 -22 98q-60 109 -237 109t-362 -130h-12z" />
    <glyph glyph-name="four" unicode="4" horiz-adv-x="1118" 
d="M698 672v582l-502 -582h502zM1067 512h-177v-512h-192v512h-658v210l666 767h184v-817h177v-160z" />
    <glyph glyph-name="five" unicode="5" horiz-adv-x="1118" 
d="M540 926q194 0 318 -93q153 -115 153 -347q0 -229 -134 -373t-356 -144q-223 0 -397 85v211h14q46 -36 135 -68q88 -33 136 -44q49 -11 109 -11t117 22t96 67q77 91 77 240t-84 218q-44 37 -105 53t-161 16t-273 -36v767h817v-175h-624v-396q72 8 162 8z" />
    <glyph glyph-name="six" unicode="6" horiz-adv-x="1118" 
d="M746 735q-65 52 -196 52t-260 -82q0 -15 -2 -35t-2 -59q0 -277 106 -393q79 -86 193 -86t189 86q74 86 74 260t-102 257zM600 951q86 1 152 -17t142 -74q158 -118 157 -377q1 -113 -37 -211t-104 -165t-150 -103t-183 -35q-99 0 -183 35q-84 36 -152 108t-113 210
q-44 138 -44 333q0 393 163 622q80 112 208 176t297 64q102 0 169 -21v-191h-9q-72 40 -187 40q-186 0 -300 -125t-136 -373q148 104 310 104z" />
    <glyph glyph-name="seven" unicode="7" horiz-adv-x="1118" 
d="M99 1314v175h945v-223l-644 -1266h-213l682 1314h-770z" />
    <glyph glyph-name="eight" unicode="8" horiz-adv-x="1118" 
d="M74 426q0 104 64 208q67 102 188 161v6q-112 65 -164 141t-52 189q0 168 127 280t327 112t320 -107q123 -105 123 -272q1 -102 -57 -198t-170 -153v-6q130 -61 197 -147t67 -225q0 -191 -139 -320t-354 -129t-349 128q-128 122 -128 332zM275 426q-1 -135 81 -223
t206 -88t201 75q76 76 76 187q-1 111 -37 165q-54 80 -228 151q-80 32 -128 52q-171 -116 -171 -319zM811 1146q0 96 -67 163t-181 67q-113 0 -183 -60t-70 -148t35 -139t95 -84q137 -76 222 -102q86 67 118 137t31 166z" />
    <glyph glyph-name="nine" unicode="9" horiz-adv-x="1118" 
d="M517 537q-83 0 -151 18q-68 17 -144 75q-75 58 -115 151t-40 215q1 122 39 218q77 192 252 268q88 37 188 37q100 1 180 -33t152 -110q71 -76 113 -206q42 -132 42 -326q1 -194 -41 -359q-82 -327 -330 -453q-119 -61 -297 -61q-100 0 -169 21v191h10q80 -40 186 -40
q196 1 308 129t127 369q-153 -104 -310 -104zM832 877q0 283 -105 395q-75 84 -193 84t-191 -88t-73 -261t102 -254q38 -32 84 -42t110 -10q140 0 262 82q4 40 4 94z" />
    <glyph glyph-name="colon" unicode=":" horiz-adv-x="724" 
d="M482 0h-239v285h239v-285zM482 832h-239v285h239v-285z" />
    <glyph glyph-name="less" unicode="&#x3c;" horiz-adv-x="1490" 
d="M1275 79l-1074 513v120l1074 513v-178l-833 -395l833 -395v-178z" />
    <glyph glyph-name="equal" unicode="=" horiz-adv-x="1490" 
d="M1298 362h-1106v160h1106v-160zM1298 782h-1106v160h1106v-160z" />
    <glyph glyph-name="greater" unicode="&#x3e;" horiz-adv-x="1490" 
d="M1289 592l-1074 -513v178l833 395l-833 395v178l1074 -513v-120z" />
    <glyph glyph-name="question" unicode="?" horiz-adv-x="970" 
d="M542 0h-204v211h204v-211zM459 1348q-180 0 -339 -103h-11v204q175 70 371 70t314 -104t118 -276q0 -245 -242 -416q-60 -44 -144 -95v-228h-179v305q19 12 106 66t141 104q114 108 114 235q0 128 -70 183t-179 55z" />
    <glyph glyph-name="at" unicode="@" horiz-adv-x="1862" 
d="M690 634q0 -330 218 -330q112 0 234 104v518q-104 54 -209 54t-174 -85t-69 -261zM1530 268q71 135 71 389q-1 327 -167 527t-470 199q-304 0 -496 -215t-193 -534q0 -319 187 -524q188 -204 489 -204q189 0 340 46v-142q-156 -36 -341 -36q-354 0 -586 242t-232 620
t239 630t595 252t565 -237q208 -237 208 -618q0 -279 -147 -506h-421l-25 116q-68 -56 -124 -90t-153 -34q-155 0 -253 124t-97 359q1 236 121 366t275 130q115 0 229 -66v48h159v-842h227z" />
    <glyph glyph-name="A" unicode="A" horiz-adv-x="1228" 
d="M839 585l-230 702l-229 -702h459zM-10 0l502 1489h244l502 -1489h-209l-135 416h-569l-135 -416h-200z" />
    <glyph glyph-name="B" unicode="B" horiz-adv-x="1207" 
d="M955 452q0 80 -24 136t-97 92q-44 24 -100 32t-160 7h-225v-550h161q130 0 205 12t132 51q56 40 82 90t26 130zM802 933q83 53 83 180t-76 168q-49 27 -107 33t-163 6h-190v-436h225q96 0 139 10t89 39zM1161 474q0 -230 -155 -353q-84 -65 -179 -93t-249 -28h-427v1489
h395q166 0 240 -10t153 -52q152 -82 152 -274q-1 -104 -57 -188t-152 -130v-8q132 -36 206 -131t73 -222z" />
    <glyph glyph-name="C" unicode="C" horiz-adv-x="1230" 
d="M734 144q254 0 447 193h15v-236q-44 -19 -92 -43q-174 -84 -346 -85q-494 0 -643 437q-49 144 -49 332t47 326q96 281 350 396q124 52 262 52t226 -26q131 -39 245 -100v-239h-16q-196 196 -446 196q-199 0 -329 -154q-133 -162 -133 -449t138 -451q124 -149 324 -149z
" />
    <glyph glyph-name="D" unicode="D" horiz-adv-x="1389" 
d="M912 269q207 142 207 484t-226 476q-79 48 -169 69t-224 21h-151v-1149h151q132 0 230 21t182 78zM1325 750q0 -213 -82 -376q-83 -162 -209 -244t-242 -106t-298 -24h-343v1489h339q206 0 330 -31q297 -82 426 -338q79 -157 79 -370z" />
    <glyph glyph-name="E" unicode="E" horiz-adv-x="1149" 
d="M151 0v1489h931v-176h-733v-408h683v-176h-683v-553h733v-176h-931z" />
    <glyph glyph-name="F" unicode="F" horiz-adv-x="1068" 
d="M1042 1313h-693v-420h664v-176h-664v-717h-198v1489h891v-176z" />
    <glyph glyph-name="G" unicode="G" horiz-adv-x="1367" 
d="M1073 190v385h-344v174h540v-650q-150 -65 -222 -86q-303 -89 -562 6q-130 48 -225 146q-194 204 -194 572t193 573q193 206 517 206q243 0 487 -128v-239h-17q-42 36 -80 64q-180 132 -404 132t-357 -162t-133 -442t136 -441q133 -158 342 -158t323 48z" />
    <glyph glyph-name="H" unicode="H" horiz-adv-x="1383" 
d="M1232 0h-198v729h-685v-729h-198v1489h198v-584h685v584h198v-1489z" />
    <glyph glyph-name="I" unicode="I" horiz-adv-x="764" 
d="M671 0h-578v152h190v1185h-190v152h578v-152h-190v-1185h190v-152z" />
    <glyph glyph-name="J" unicode="J" horiz-adv-x="853" 
d="M272 -21q-134 0 -263 29v189h11q141 -48 229 -48q171 0 223 81q28 42 35 96t7 136v869h-315v158h513v-1102q0 -195 -119 -301t-321 -107z" />
    <glyph glyph-name="K" unicode="K" horiz-adv-x="1204" 
d="M349 0h-198v1489h198v-685l610 685h241l-616 -665l652 -824h-257l-543 693l-87 -98v-595z" />
    <glyph glyph-name="L" unicode="L" horiz-adv-x="1019" 
d="M1014 0h-863v1489h198v-1313h665v-176z" />
    <glyph glyph-name="M" unicode="M" horiz-adv-x="1578" 
d="M1427 0h-198v1283l-388 -873h-120l-385 873v-1283h-185v1489h270l372 -829l359 829h275v-1489z" />
    <glyph glyph-name="N" unicode="N" horiz-adv-x="1367" 
d="M1216 0h-222l-658 1284v-1284h-185v1489h281l599 -1179v1179h185v-1489z" />
    <glyph glyph-name="O" unicode="O" horiz-adv-x="1449" 
d="M724 1349q-105 0 -188 -39q-173 -81 -232 -306q-32 -112 -32 -260q0 -294 123 -449t330 -155t329 155t123 450q0 295 -122 450q-116 154 -331 154zM720 -31q-301 0 -477 204q-177 204 -177 571q0 363 176 569q176 207 481 207q304 0 482 -203t178 -572t-179 -573
q-90 -102 -212 -154q-126 -49 -272 -49z" />
    <glyph glyph-name="P" unicode="P" horiz-adv-x="1129" 
d="M885 1038q0 74 -27 131q-66 150 -345 150h-164v-595h135q124 0 195 19t122 70q84 85 84 225zM1091 1052q0 -111 -34 -196q-74 -185 -277 -262q-104 -39 -263 -39h-168v-555h-198v1489h374q257 0 389 -93q177 -122 177 -344z" />
    <glyph glyph-name="Q" unicode="Q" horiz-adv-x="1449" 
d="M724 1349q-105 0 -188 -39q-173 -81 -232 -306q-32 -112 -32 -260q0 -293 123 -449t330 -156t329 156t123 450q0 294 -122 450q-116 154 -331 154zM1156 -392q-168 0 -272 94t-114 268h-46q-154 0 -274 52q-247 105 -338 394q-46 144 -46 328q0 363 176 569
q176 207 481 207q304 0 482 -203t178 -573q-1 -288 -113 -476t-309 -256q14 -177 123 -216q38 -15 115 -15t162 35h27v-180q-108 -28 -232 -28z" />
    <glyph glyph-name="R" unicode="R" horiz-adv-x="1271" 
d="M523 757q189 1 266 75q87 84 87 232q0 204 -192 244q-58 11 -139 11h-196v-562h174zM349 592v-592h-198v1489h384q125 1 213 -13t165 -64q170 -110 170 -327q0 -164 -83 -274t-226 -163l530 -648h-257l-472 592h-226z" />
    <glyph glyph-name="S" unicode="S" horiz-adv-x="1141" 
d="M91 337q206 -193 486 -193q138 0 223 68q84 70 84 170t-44 156t-126 79t-162 42q-78 19 -138 34q-140 35 -229 128q-97 103 -97 277q0 173 141 296q142 122 374 122t429 -96v-237h-15q-71 65 -181 113t-242 49q-132 0 -216 -64q-84 -65 -84 -165t50 -156t138 -80t174 -44
q85 -20 138 -36q296 -88 296 -376q0 -86 -35 -172t-105 -148t-159 -97q-91 -34 -239 -34q-241 0 -475 116v248h14z" />
    <glyph glyph-name="T" unicode="T" horiz-adv-x="1196" 
d="M499 0v1313h-500v176h1198v-176h-500v-1313h-198z" />
    <glyph glyph-name="U" unicode="U" horiz-adv-x="1343" 
d="M133 560v929h198v-929q-1 -105 13 -175q30 -158 160 -216q66 -31 164 -31q199 0 280 122q38 58 51 124t13 171v934h198v-929q0 -158 -31 -268t-111 -186q-140 -137 -394 -137q-136 -1 -232 33t-171 108t-107 184q-32 109 -31 266z" />
    <glyph glyph-name="V" unicode="V" horiz-adv-x="1222" 
d="M1230 1489l-512 -1489h-214l-512 1489h212l412 -1236l412 1236h202z" />
    <glyph glyph-name="W" unicode="W" horiz-adv-x="1847" 
d="M1821 1489l-374 -1489h-223l-303 1236l-296 -1236h-218l-381 1489h203l300 -1238l298 1238h201l301 -1250l298 1250h194z" />
    <glyph glyph-name="X" unicode="X" horiz-adv-x="1189" 
d="M1181 0h-227l-363 596l-369 -596h-214l473 745l-459 744h226l356 -585l361 585h215l-466 -734z" />
    <glyph glyph-name="Y" unicode="Y" horiz-adv-x="1180" 
d="M690 0h-198v638l-503 851h220l384 -657l390 657h210l-503 -830v-659z" />
    <glyph glyph-name="Z" unicode="Z" horiz-adv-x="1145" 
d="M1100 0h-1040v184l797 1129h-761v176h984v-179l-806 -1134h826v-176z" />
    <glyph glyph-name="bracketleft" unicode="[" horiz-adv-x="784" 
d="M686 -392h-520v1948h520v-143h-345v-1662h345v-143z" />
    <glyph glyph-name="backslash" unicode="\" horiz-adv-x="783" 
d="M804 -324h-169l-583 1880h172z" />
    <glyph glyph-name="bracketright" unicode="]" horiz-adv-x="784" 
d="M618 -392h-520v143h345v1662h-345v143h520v-1948z" />
    <glyph glyph-name="asciicircum" unicode="^" horiz-adv-x="1490" 
d="M1357 684h-198l-415 625l-414 -627h-197l549 807h126z" />
    <glyph glyph-name="underscore" unicode="_" horiz-adv-x="1118" 
d="M1134 -300h-1150v130h1150v-130z" />
    <glyph glyph-name="grave" unicode="`" horiz-adv-x="1118" 
d="M670 1302h-149l-273 374h243z" />
    <glyph glyph-name="a" unicode="a" horiz-adv-x="1075" 
d="M463 1144q141 0 220 -18q264 -60 264 -362v-764h-187v119q-19 -13 -58 -45q-38 -32 -84 -55q-99 -50 -232 -50q-132 0 -230 101t-98 254q0 335 426 386q122 17 276 25v36q0 179 -164 199q-47 8 -107 8q-150 0 -329 -76h-11v191q173 51 314 51zM252 336q0 -194 212 -194
q147 0 296 133v310q-100 -9 -185 -17q-192 -19 -274 -100q-49 -46 -49 -132z" />
    <glyph glyph-name="b" unicode="b" horiz-adv-x="1132" 
d="M671 1148q184 0 293 -150t109 -424q1 -272 -133 -438t-333 -167q-95 0 -154 21t-129 62l-12 -52h-176v1556h188v-556q163 148 347 148zM324 202q130 -64 260 -64t212 102t83 312q0 210 -61 314q-62 103 -204 103t-290 -127v-640z" />
    <glyph glyph-name="c" unicode="c" horiz-adv-x="945" 
d="M600 -25q-393 0 -503 325q-38 108 -38 256t39 255q83 216 270 293q99 39 236 39t306 -86v-211h-11q-7 7 -47 35q-140 99 -280 99t-230 -110q-88 -112 -88 -312t85 -310t249 -110t311 136h11v-211q-176 -88 -310 -88z" />
    <glyph glyph-name="d" unicode="d" horiz-adv-x="1132" 
d="M253 558q0 -202 63 -306t206 -104t286 124v644q-124 60 -257 60q-134 0 -216 -108q-82 -109 -82 -310zM996 0h-188v114q-88 -76 -141 -101t-93 -35t-115 -9q-75 -1 -153 37t-132 111q-115 155 -115 431q0 275 143 444q62 74 148 115t176 41t153 -19t129 -57v484h188
v-1556z" />
    <glyph glyph-name="e" unicode="e" horiz-adv-x="1078" 
d="M841 683q-5 310 -277 310q-78 1 -127 -21q-51 -22 -93 -66q-83 -85 -94 -223h591zM59 550q1 274 143 436t362 162t340 -128t120 -379v-102h-774q0 -193 98 -297t265 -104q168 0 321 94q43 28 58 41h11v-205q-49 -20 -89 -36q-147 -58 -293 -58q-267 0 -415 150
q-147 152 -147 426z" />
    <glyph glyph-name="f" unicode="f" horiz-adv-x="652" 
d="M531 1566q90 0 193 -18v-172h-10q-75 26 -175 26q-101 0 -151 -54t-50 -193v-38h311v-156h-305v-961h-188v961h-127v156h127v37q0 204 98 308t277 104z" />
    <glyph glyph-name="g" unicode="g" horiz-adv-x="1132" 
d="M493 -423q-174 0 -327 48v196h10l56 -21q137 -55 249 -55q196 0 262 80q65 80 65 225v98q-75 -65 -150 -97t-182 -32q-192 1 -304 143t-113 407q0 265 144 429q63 72 149 111t174 39t152 -20q62 -20 130 -59l11 48h177v-990q0 -284 -124 -417t-379 -133zM253 579
q0 -191 62 -289t203 -97q72 0 150 29t140 81v613q-128 63 -259 63q-131 -1 -213 -105t-83 -295z" />
    <glyph glyph-name="h" unicode="h" horiz-adv-x="1142" 
d="M663 1148q165 0 258 -109t93 -314v-725h-188v636q0 180 -41 256q-41 77 -171 77q-131 0 -290 -135v-834h-188v1556h188v-563q174 155 339 155z" />
    <glyph glyph-name="i" unicode="i" horiz-adv-x="468" 
d="M341 1304h-214v195h214v-195zM328 0h-188v1117h188v-1117z" />
    <glyph glyph-name="j" unicode="j" horiz-adv-x="577" 
d="M442 1304h-214v195h214v-195zM43 -257q126 0 173 77q37 58 37 225v916h-202v156h390v-1149q0 -191 -102 -291t-283 -100q-72 0 -146 12v168h11q69 -14 122 -14z" />
    <glyph glyph-name="k" unicode="k" 
d="M324 0h-188v1556h188v-911l442 472h234l-459 -467l521 -650h-247l-417 539l-74 -72v-467z" />
    <glyph glyph-name="l" unicode="l" horiz-adv-x="468" 
d="M328 0h-188v1556h188v-1556z" />
    <glyph glyph-name="m" unicode="m" horiz-adv-x="1720" 
d="M324 993q155 155 306 155q216 0 292 -193q175 193 329 193q341 0 341 -413v-735h-188v646q0 186 -31 245q-38 78 -156 78t-263 -138q4 -44 4 -96v-735h-188v646q0 186 -31 245q-38 78 -155 78t-260 -135v-834h-188v1117h188v-124z" />
    <glyph glyph-name="n" unicode="n" horiz-adv-x="1142" 
d="M663 1148q165 0 258 -109t93 -314v-725h-188v636q0 180 -41 256q-41 77 -171 77q-131 0 -290 -135v-834h-188v1117h188v-124q174 155 339 155z" />
    <glyph glyph-name="o" unicode="o" horiz-adv-x="1112" 
d="M557 986q-146 0 -226 -106t-80 -318t80 -322q79 -109 225 -109q146 1 226 107t79 322q0 216 -79 321t-225 105zM1055 558q0 -282 -136 -436t-365 -153q-229 0 -364 159q-133 158 -133 434t137 431q138 155 363 155t362 -154q136 -154 136 -436z" />
    <glyph glyph-name="p" unicode="p" horiz-adv-x="1132" 
d="M618 969q-138 0 -294 -127v-633q128 -62 260 -62q133 1 214 107t81 305t-61 305q-62 105 -200 105zM673 1148q185 0 293 -152t107 -419q0 -267 -134 -433t-337 -166q-148 0 -278 78v-468h-188v1529h188v-117q164 148 349 148z" />
    <glyph glyph-name="q" unicode="q" horiz-adv-x="1132" 
d="M546 979q-133 0 -213 -107t-80 -308q0 -407 263 -407q150 0 292 123v636q-129 63 -262 63zM808 122q-160 -144 -341 -144q-182 0 -295 153t-113 424q-1 270 141 438q62 73 148 114t182 41q144 0 278 -79l12 48h176v-1529h-188v534z" />
    <glyph glyph-name="r" unicode="r" horiz-adv-x="738" 
d="M324 951q188 166 328 166l44 -1q4 0 16 -2t16 -3v-196h-10q-32 9 -101 9q-156 0 -293 -131v-793h-188v1117h188v-166z" />
    <glyph glyph-name="s" unicode="s" horiz-adv-x="914" 
d="M485 985q-93 0 -157 -39t-64 -114q0 -74 36 -108q57 -52 218 -78q16 -4 52 -12t56 -13q125 -31 187 -103t62 -196q0 -153 -118 -251t-315 -98q-198 0 -375 94v211h10q107 -89 207 -118q100 -28 150 -28t123 15t111 71q15 26 15 86q-1 60 -37 94t-102 50t-116 26
q-52 10 -112 27q-244 72 -244 302q0 151 114 246q115 95 306 95t342 -81v-201h-10q-156 123 -339 123z" />
    <glyph glyph-name="t" unicode="t" horiz-adv-x="685" 
d="M148 342v619h-127v156h127v321h188v-321h346v-156h-346v-531q0 -84 3 -130q7 -107 78 -140q39 -17 105 -17t149 36h11v-169q-111 -32 -208 -32q-154 0 -240 88t-86 276z" />
    <glyph glyph-name="u" unicode="u" horiz-adv-x="1142" 
d="M818 124q-176 -155 -328 -155q-259 0 -336 231q-26 81 -26 192v725h188v-636q0 -181 29 -237t70 -76t111 -20t150 40q78 40 142 95v834h188v-1117h-188v124z" />
    <glyph glyph-name="v" unicode="v" 
d="M1014 1117l-421 -1117h-169l-418 1117h203l306 -862l303 862h196z" />
    <glyph glyph-name="w" unicode="w" horiz-adv-x="1520" 
d="M1490 1117l-283 -1117h-174l-273 861l-271 -861h-173l-286 1117h196l197 -865l265 865h155l272 -865l186 865h189z" />
    <glyph glyph-name="x" unicode="x" horiz-adv-x="1014" 
d="M1004 0h-231l-271 422l-279 -422h-213l388 554l-384 563h231l269 -418l276 418h214l-386 -550z" />
    <glyph glyph-name="y" unicode="y" 
d="M1014 1117l-601 -1529h-201l200 466l-406 1063h203l305 -827l304 827h196z" />
    <glyph glyph-name="z" unicode="z" horiz-adv-x="910" 
d="M870 0h-821v139l584 823h-560v155h786v-134l-587 -826h598v-157z" />
    <glyph glyph-name="braceleft" unicode="{" horiz-adv-x="984" 
d="M296 570q271 -108 271 -383v-175q0 -219 137 -254q42 -12 102 -12h80v-138h-116q-178 0 -280 98t-102 289v149q0 271 -160 334q-56 26 -147 26h-21v156h21q91 0 148 24q159 68 159 336v149q0 191 102 289t280 98h116v-138h-80q-118 0 -176 -53q-63 -61 -63 -213v-175
q0 -214 -161 -323q-52 -37 -110 -60v-24z" />
    <glyph glyph-name="bar" unicode="|" horiz-adv-x="783" 
d="M475 -392h-167v1948h167v-1948z" />
    <glyph glyph-name="braceright" unicode="}" horiz-adv-x="984" 
d="M688 594q-271 107 -271 383v175q0 152 -61 209t-178 57h-80v138h116q178 0 280 -98t102 -289v-149q0 -271 160 -334q56 -26 147 -26h21v-156h-21q-91 0 -148 -24q-159 -68 -159 -336v-149q0 -191 -102 -289t-280 -98h-116v138h80q118 0 176 53q63 61 63 213v175
q0 214 161 323q52 37 110 60v24z" />
    <glyph glyph-name="asciitilde" unicode="~" horiz-adv-x="1490" 
d="M1034 396q-78 0 -141 21t-129 95q-69 78 -119 144t-89 88q-38 22 -81 22t-77 -26q-70 -57 -84 -199q-9 -71 -12 -146h-168q2 107 22 199q40 203 164 288q67 44 142 44q162 0 264 -114q42 -44 92 -108t73 -89q54 -59 111 -59t92 28q88 75 94 343h168q-2 -349 -182 -485
q-62 -46 -140 -46z" />
    <glyph glyph-name="uni0400" unicode="&#x400;" horiz-adv-x="1149" 
d="M151 0v1489h931v-176h-733v-408h683v-176h-683v-553h733v-176h-931zM754 1675h-149l-273 374h243z" />
    <glyph glyph-name="uni0401" unicode="&#x401;" horiz-adv-x="1149" 
d="M151 0v1489h931v-176h-733v-408h683v-176h-683v-553h733v-176h-931zM553 1677h-201v195h201v-195zM966 1677h-201v195h201v-195z" />
    <glyph glyph-name="uni0402" unicode="&#x402;" horiz-adv-x="1471" 
d="M1284 803q149 -115 149 -338t-156 -348q-87 -69 -175 -93t-225 -24h-60v177h43q88 0 150 8q62 7 114 45q102 75 102 226q0 156 -100 224q-50 34 -124 44t-208 10h-177v-734h-198v1313h-420v176h1118v-176h-500v-408h239q152 0 247 -18t181 -84z" />
    <glyph glyph-name="uni0403" unicode="&#x403;" horiz-adv-x="1039" 
d="M1034 1313h-685v-1313h-198v1489h883v-176zM930 2049l-273 -374h-149l179 374h243z" />
    <glyph glyph-name="uni0404" unicode="&#x404;" horiz-adv-x="1228" 
d="M66 741q0 361 186 568q188 207 491 207q242 0 440 -91v-223h-15q-70 64 -181 105t-238 41q-186 0 -317 -116t-156 -347h715v-173h-725q4 -272 143 -426q133 -145 355 -145q110 -1 221 37q110 38 183 104h15v-217q-214 -92 -439 -92q-308 0 -494 203q-184 204 -184 565z
" />
    <glyph glyph-name="uni0405" unicode="&#x405;" horiz-adv-x="1141" 
d="M91 337q206 -193 486 -193q138 0 223 68q84 70 84 170t-44 156t-126 79t-162 42q-78 19 -138 34q-140 35 -229 128q-97 103 -97 277q0 173 141 296q142 122 374 122t429 -96v-237h-15q-71 65 -181 113t-242 49q-132 0 -216 -64q-84 -65 -84 -165t50 -156t138 -80t174 -44
q85 -20 138 -36q296 -88 296 -376q0 -86 -35 -172t-105 -148t-159 -97q-91 -34 -239 -34q-241 0 -475 116v248h14z" />
    <glyph glyph-name="uni0406" unicode="&#x406;" horiz-adv-x="764" 
d="M671 0h-578v152h190v1185h-190v152h578v-152h-190v-1185h190v-152z" />
    <glyph glyph-name="uni0407" unicode="&#x407;" horiz-adv-x="764" 
d="M671 0h-578v152h190v1185h-190v152h578v-152h-190v-1185h190v-152zM277 1677h-201v195h201v-195zM690 1677h-201v195h201v-195z" />
    <glyph glyph-name="uni0408" unicode="&#x408;" horiz-adv-x="853" 
d="M272 -21q-134 0 -263 29v189h11q141 -48 229 -48q171 0 223 81q28 42 35 96t7 136v869h-315v158h513v-1102q0 -195 -119 -301t-321 -107z" />
    <glyph glyph-name="uni0409" unicode="&#x409;" horiz-adv-x="2051" 
d="M1369 169q136 -1 207 13t126 52q56 38 80 89q24 49 24 129t-25 138t-79 93t-128 43t-200 8h-167v-565h162zM1207 1489v-584h229q149 1 246 -17q98 -18 178 -80q154 -118 153 -347q-1 -217 -161 -343q-78 -62 -172 -90q-96 -28 -250 -28h-421v1313h-472q-6 -260 -16 -413
q-19 -556 -135 -730q-76 -116 -176 -154q-50 -20 -119 -19l-43 1q-14 2 -33 2v192h14l38 -3q73 0 120 45q69 69 104 262t50 697q5 164 9 296h857z" />
    <glyph glyph-name="uni040A" unicode="&#x40a;" horiz-adv-x="2015" 
d="M1333 169q136 -1 207 13t126 52q56 38 80 89q24 49 24 129t-25 138t-79 93t-128 43t-200 8h-157v-565h152zM1829 804q148 -114 148 -337q0 -222 -155 -345q-82 -66 -178 -94t-250 -28h-411v734h-634v-734h-198v1489h198v-584h634v584h198v-584h219q149 1 246 -17t183 -84
z" />
    <glyph glyph-name="uni040B" unicode="&#x40b;" horiz-adv-x="1470" 
d="M953 928q424 0 424 -417v-511h-198v412q1 187 -37 250q-51 86 -211 86q-159 0 -314 -38v-710h-198v1313h-420v176h1118v-176h-500v-438q179 53 336 53z" />
    <glyph glyph-name="uni040C" unicode="&#x40c;" horiz-adv-x="1234" 
d="M349 682v-682h-198v1489h198v-671q119 6 187 60t107 153q40 99 59 158q60 172 152 236t259 64h61v-177h-50q-122 0 -171 -47t-90 -180t-91 -194t-124 -108l604 -783h-252l-526 682h-125zM933 2029l-273 -374h-149l179 374h243z" />
    <glyph glyph-name="uni040D" unicode="&#x40d;" horiz-adv-x="1372" 
d="M798 1675h-149l-273 374h243zM1221 0h-197v1182l-673 -1182h-200v1489h197v-1163l664 1163h209v-1489z" />
    <glyph glyph-name="uni040E" unicode="&#x40e;" horiz-adv-x="1178" 
d="M607 1601q-183 0 -274 91t-96 243h178q2 -211 192 -211q95 0 143 50t49 161h178q-5 -152 -96 -243t-274 -91zM157 185l96 -7q39 0 86 3t103 51q26 26 46 75l34 79l-523 1103h219l404 -876l365 876h204l-540 -1254q-89 -205 -257 -233q-46 -8 -130 -7q-84 0 -121 5v185h14
z" />
    <glyph glyph-name="uni040F" unicode="&#x40f;" horiz-adv-x="1383" 
d="M1232 0h-447v-337h-187v337h-447v1489h198v-1317h685v1317h198v-1489z" />
    <glyph glyph-name="uni0410" unicode="&#x410;" horiz-adv-x="1228" 
d="M839 585l-230 702l-229 -702h459zM-10 0l502 1489h244l502 -1489h-209l-135 416h-569l-135 -416h-200z" />
    <glyph glyph-name="uni0411" unicode="&#x411;" horiz-adv-x="1207" 
d="M521 169q136 -1 207 13t126 52q56 38 80 89q24 49 24 129t-25 138t-79 93t-128 43t-200 8h-177v-565h172zM1017 804q148 -114 148 -337q0 -222 -155 -345q-82 -66 -178 -94t-250 -28h-431v1489h907v-176h-709v-408h239q149 1 246 -17t183 -84z" />
    <glyph glyph-name="uni0412" unicode="&#x412;" horiz-adv-x="1207" 
d="M955 452q0 80 -24 136t-97 92q-44 24 -100 32t-160 7h-225v-550h161q130 0 205 12t132 51q56 40 82 90t26 130zM802 933q83 53 83 180t-76 168q-49 27 -107 33t-163 6h-190v-436h225q96 0 139 10t89 39zM1161 474q0 -230 -155 -353q-84 -65 -179 -93t-249 -28h-427v1489
h395q166 0 240 -10t153 -52q152 -82 152 -274q-1 -104 -57 -188t-152 -130v-8q132 -36 206 -131t73 -222z" />
    <glyph glyph-name="uni0413" unicode="&#x413;" horiz-adv-x="1039" 
d="M1034 1313h-685v-1313h-198v1489h883v-176z" />
    <glyph glyph-name="uni0414" unicode="&#x414;" horiz-adv-x="1400" 
d="M1021 176v1141h-447q-13 -361 -90 -657t-194 -484h731zM1360 -337h-188v341h-966v-341h-188v513h81q131 214 210 557t79 756h831v-1313h141v-513z" />
    <glyph glyph-name="uni0415" unicode="&#x415;" horiz-adv-x="1149" 
d="M151 0v1489h931v-176h-733v-408h683v-176h-683v-553h733v-176h-931z" />
    <glyph glyph-name="uni0416" unicode="&#x416;" horiz-adv-x="1831" 
d="M1008 685v-685h-196v685h-98l-496 -685h-232l562 768q-65 42 -114 106q-47 64 -91 202t-89 188q-45 48 -173 48h-40v177h51q169 1 259 -63t141 -208t67 -183q43 -104 105 -159q64 -52 148 -59v672h196v-674q94 9 154 59q62 47 101 143t50 129q69 211 164 277t261 66h51
v-177h-40q-128 0 -174 -49q-45 -49 -87 -180t-96 -197t-117 -106l569 -780h-244l-496 685h-96z" />
    <glyph glyph-name="uni0417" unicode="&#x417;" horiz-adv-x="1091" 
d="M831 454q0 271 -369 271h-156v166h136q158 0 254 63t96 184q0 157 -188 196q-52 9 -115 9t-123 -14q-60 -15 -112 -35q-54 -20 -83 -37t-51 -31t-27 -15h-13v219q70 32 186 59t232 27t196 -18t154 -68q74 -48 112 -113q36 -65 36 -171t-80 -198q-81 -90 -211 -118v-15
q217 -38 299 -205q32 -64 32 -165t-41 -187q-135 -284 -523 -285q-242 0 -441 85v222h14q78 -50 195 -92t211 -42q191 0 286 83q94 84 94 225z" />
    <glyph glyph-name="uni0418" unicode="&#x418;" horiz-adv-x="1372" 
d="M1221 0h-197v1182l-673 -1182h-200v1489h197v-1163l664 1163h209v-1489z" />
    <glyph glyph-name="uni0419" unicode="&#x419;" horiz-adv-x="1372" 
d="M705 1601q-183 0 -274 91t-96 243h178q2 -211 192 -211q95 0 143 50t49 161h178q-5 -152 -96 -243t-274 -91zM1221 0h-197v1182l-673 -1182h-200v1489h197v-1163l664 1163h209v-1489z" />
    <glyph glyph-name="uni041A" unicode="&#x41a;" horiz-adv-x="1234" 
d="M349 682v-682h-198v1489h198v-671q119 6 187 60t107 153q40 99 59 158q60 172 152 236t259 64h61v-177h-50q-122 0 -171 -47t-90 -180t-91 -194t-124 -108l604 -783h-252l-526 682h-125z" />
    <glyph glyph-name="uni041B" unicode="&#x41b;" horiz-adv-x="1388" 
d="M1237 1489v-1489h-198v1313h-502q-6 -260 -16 -413q-19 -556 -135 -730q-76 -116 -176 -154q-50 -20 -119 -19l-43 1q-14 2 -33 2v192h14l38 -3q73 0 120 45q69 69 104 262t50 697q5 164 9 296h887z" />
    <glyph glyph-name="uni041C" unicode="&#x41c;" horiz-adv-x="1578" 
d="M1427 0h-198v1283l-388 -873h-120l-385 873v-1283h-185v1489h270l372 -829l359 829h275v-1489z" />
    <glyph glyph-name="uni041D" unicode="&#x41d;" horiz-adv-x="1383" 
d="M1232 0h-198v729h-685v-729h-198v1489h198v-584h685v584h198v-1489z" />
    <glyph glyph-name="uni041E" unicode="&#x41e;" horiz-adv-x="1449" 
d="M724 1349q-105 0 -188 -39q-173 -81 -232 -306q-32 -112 -32 -260q0 -294 123 -449t330 -155t329 155t123 450q0 295 -122 450q-116 154 -331 154zM720 -31q-301 0 -477 204q-177 204 -177 571q0 363 176 569q176 207 481 207q304 0 482 -203t178 -572t-179 -573
q-90 -102 -212 -154q-126 -49 -272 -49z" />
    <glyph glyph-name="uni041F" unicode="&#x41f;" horiz-adv-x="1383" 
d="M1232 0h-198v1313h-685v-1313h-198v1489h1081v-1489z" />
    <glyph glyph-name="uni0420" unicode="&#x420;" horiz-adv-x="1129" 
d="M885 1038q0 74 -27 131q-66 150 -345 150h-164v-595h135q124 0 195 19t122 70q84 85 84 225zM1091 1052q0 -111 -34 -196q-74 -185 -277 -262q-104 -39 -263 -39h-168v-555h-198v1489h374q257 0 389 -93q177 -122 177 -344z" />
    <glyph glyph-name="uni0421" unicode="&#x421;" horiz-adv-x="1230" 
d="M734 144q254 0 447 193h15v-236q-44 -19 -92 -43q-174 -84 -346 -85q-494 0 -643 437q-49 144 -49 332t47 326q96 281 350 396q124 52 262 52t226 -26q131 -39 245 -100v-239h-16q-196 196 -446 196q-199 0 -329 -154q-133 -162 -133 -449t138 -451q124 -149 324 -149z
" />
    <glyph glyph-name="uni0422" unicode="&#x422;" horiz-adv-x="1196" 
d="M499 0v1313h-500v176h1198v-176h-500v-1313h-198z" />
    <glyph glyph-name="uni0423" unicode="&#x423;" horiz-adv-x="1178" 
d="M157 185l96 -7q39 0 86 3t103 51q26 26 46 75l34 79l-523 1103h219l404 -876l365 876h204l-540 -1254q-89 -205 -257 -233q-46 -8 -130 -7q-84 0 -121 5v185h14z" />
    <glyph glyph-name="uni0424" unicode="&#x424;" horiz-adv-x="1533" 
d="M272 759q0 -320 236 -414q69 -28 160 -30v880q-181 -4 -288 -111q-108 -108 -108 -325zM1261 760q0 212 -108 322q-108 111 -288 113v-880q88 1 161 29q235 98 235 416zM1317 1173q150 -152 150 -418t-159 -420q-168 -164 -443 -170v-181h-197v181q-124 5 -243 45
t-198 119t-120 186t-41 241t41 238q84 215 304 304q113 45 257 50v165h197v-165q289 -6 452 -175z" />
    <glyph glyph-name="uni0425" unicode="&#x425;" horiz-adv-x="1189" 
d="M1181 0h-227l-363 596l-369 -596h-214l473 745l-459 744h226l356 -585l361 585h215l-466 -734z" />
    <glyph glyph-name="uni0426" unicode="&#x426;" horiz-adv-x="1403" 
d="M1363 -337h-188v337h-1024v1489h198v-1315h675v1315h198v-1315h141v-511z" />
    <glyph glyph-name="uni0427" unicode="&#x427;" horiz-adv-x="1302" 
d="M574 732q193 0 379 68v689h198v-1489h-198v630q-240 -80 -416 -80q-314 0 -411 233q-33 83 -33 194v512h198v-413q-1 -98 7 -151q18 -128 126 -169q57 -24 150 -24z" />
    <glyph glyph-name="uni0428" unicode="&#x428;" horiz-adv-x="1932" 
d="M1781 0h-1630v1489h198v-1317h518v1317h198v-1317h518v1317h198v-1489z" />
    <glyph glyph-name="uni0429" unicode="&#x429;" horiz-adv-x="1962" 
d="M1922 -337h-188v337h-1583v1489h198v-1317h518v1317h198v-1317h518v1317h198v-1317h141v-509z" />
    <glyph glyph-name="uni042A" unicode="&#x42a;" horiz-adv-x="1412" 
d="M1167 455q-1 79 -25 135t-78 92t-129 44q-74 8 -200 8h-150v-565h145q136 -1 207 13q147 28 205 142q25 53 25 131zM1226 804q148 -114 148 -337q0 -222 -155 -345q-83 -66 -179 -94t-249 -28h-404v1313h-388v176h586v-584h212q149 1 246 -17t183 -84z" />
    <glyph glyph-name="uni042B" unicode="&#x42b;" horiz-adv-x="1615" 
d="M1464 0h-198v1489h198v-1489zM489 169q136 -1 207 13t126 52q56 38 80 89q24 49 24 129t-25 138t-79 93t-128 43t-200 8h-145v-565h140zM985 804q148 -114 148 -337q0 -222 -155 -345q-82 -66 -178 -94t-250 -28h-399v1489h198v-584h207q149 1 246 -17t183 -84z" />
    <glyph glyph-name="uni042C" unicode="&#x42c;" horiz-adv-x="1193" 
d="M511 169q136 -1 207 13t126 52q56 38 80 89q24 49 24 129t-25 138t-79 93t-128 43t-200 8h-167v-565h162zM1007 804q148 -114 148 -337q0 -222 -155 -345q-82 -66 -178 -94t-250 -28h-421v1489h198v-584h229q149 1 246 -17t183 -84z" />
    <glyph glyph-name="uni042D" unicode="&#x42d;" horiz-adv-x="1228" 
d="M478 1348q-245 0 -416 -144h-15v220q77 36 193 64t246 28q324 0 500 -199t176 -561t-187 -572t-491 -211q-249 0 -441 91v219h15q74 -66 184 -104t236 -38q215 -1 350 157t135 414h-726v173h716q-22 215 -149 339t-326 124z" />
    <glyph glyph-name="uni042E" unicode="&#x42e;" horiz-adv-x="1948" 
d="M783 746q-1 -296 121 -451t326 -155t325 154t121 451q0 296 -120 450t-327 154q-206 0 -325 -155q-121 -152 -121 -448zM1882 745q0 -370 -178 -573t-475 -203q-296 -1 -468 197t-178 554h-234v-720h-198v1489h198v-596h244q35 301 203 464t448 163t460 -202
q178 -203 178 -573z" />
    <glyph glyph-name="uni042F" unicode="&#x42f;" horiz-adv-x="1252" 
d="M903 757v562h-206q-83 -1 -135 -11t-98 -41t-72 -87t-26 -129q0 -143 77 -218q77 -76 262 -76h198zM158 1065q0 210 173 334q127 90 376 90h394v-1489h-198v592h-225l-445 -592h-238l478 622q-315 107 -315 443z" />
    <glyph glyph-name="uni0430" unicode="&#x430;" horiz-adv-x="1075" 
d="M463 1144q141 0 220 -18q264 -60 264 -362v-764h-187v119q-19 -13 -58 -45q-38 -32 -84 -55q-99 -50 -232 -50q-132 0 -230 101t-98 254q0 335 426 386q122 17 276 25v36q0 179 -164 199q-47 8 -107 8q-150 0 -329 -76h-11v191q173 51 314 51zM252 336q0 -194 212 -194
q147 0 296 133v310q-100 -9 -185 -17q-192 -19 -274 -100q-49 -46 -49 -132z" />
    <glyph glyph-name="uni0431" unicode="&#x431;" horiz-adv-x="1126" 
d="M794 242q80 110 80 292t-80 277t-230 95t-298 -99l-6 -122q0 -325 106 -454q80 -99 214 -99t214 110zM610 1078q90 0 172 -30q176 -65 247 -264q36 -100 36 -231t-41 -242q-42 -111 -112 -187q-145 -155 -357 -155q-213 0 -334 149q-78 96 -115 238q-39 142 -39 354
q0 307 89 516q35 84 98 150q134 140 480 169q117 11 260 20v-173q-75 -4 -104 -6q-28 -2 -136 -12q-108 -8 -218 -36t-158 -78q-86 -90 -109 -308q177 126 341 126z" />
    <glyph glyph-name="uni0432" unicode="&#x432;" horiz-adv-x="1074" 
d="M818 338q0 54 -16 90q-18 34 -63 56t-83 26t-113 5h-221v-365h163q99 0 155 8t98 32q80 48 80 148zM761 828q-1 42 -13 70q-25 56 -124 66q-44 3 -123 3h-179v-306h216q72 1 100 7t62 27q61 36 61 133zM1012 352q0 -173 -116 -262q-67 -52 -142 -71t-179 -19h-439v1117
h410q114 -1 178 -9t118 -38q112 -61 112 -210q0 -80 -44 -144t-117 -98l5 -7q92 -23 153 -93t61 -166z" />
    <glyph glyph-name="uni0433" unicode="&#x433;" horiz-adv-x="850" 
d="M846 952h-522v-952h-188v1117h710v-165z" />
    <glyph glyph-name="uni0434" unicode="&#x434;" horiz-adv-x="1143" 
d="M475 959q-28 -507 -208 -799h528v799h-320zM1094 -268h-175v271h-736v-271h-175v428h74q94 156 155 407t61 550h685v-957h111v-428z" />
    <glyph glyph-name="uni0435" unicode="&#x435;" horiz-adv-x="1078" 
d="M841 683q-5 310 -277 310q-78 1 -127 -21q-51 -22 -93 -66q-83 -85 -94 -223h591zM59 550q1 274 143 436t362 162t340 -128t120 -379v-102h-774q0 -193 98 -297t265 -104q168 0 321 94q43 28 58 41h11v-205q-49 -20 -89 -36q-147 -58 -293 -58q-267 0 -415 150
q-147 152 -147 426z" />
    <glyph glyph-name="uni0436" unicode="&#x436;" horiz-adv-x="1496" 
d="M841 514v-514h-186v514h-73l-357 -514h-217l421 585q-101 51 -154 216q-28 88 -65 121q-38 33 -121 33h-43v162h51q121 0 201 -50t126 -175q13 -29 20 -50q45 -129 95 -169t116 -45v489h186v-489q128 8 187 148l10 22q8 23 18 45t18 49q44 123 122 174t203 51h51v-162
h-43q-78 0 -118 -32q-40 -31 -68 -119q-50 -158 -149 -213l420 -591h-227l-351 514h-73z" />
    <glyph glyph-name="uni0437" unicode="&#x437;" horiz-adv-x="937" 
d="M87 1081q175 63 337 63q161 0 282 -64q146 -82 146 -242q0 -90 -52 -157q-52 -68 -136 -90v-7q92 -32 152 -98t60 -168q0 -186 -146 -271q-118 -73 -313 -73t-385 90v208h12q66 -62 170 -99t178 -37t122 10q50 10 91 34t60 54t19 89q0 58 -22 97q-45 69 -150 76
q-40 5 -102 5h-132v162h101q39 0 95 2q107 4 160 61q26 30 26 90q0 97 -77 136q-60 31 -153 31q-206 0 -331 -105h-12v203z" />
    <glyph glyph-name="uni0438" unicode="&#x438;" horiz-adv-x="1154" 
d="M1018 0h-186v833l-526 -833h-170v1117h186v-820l520 820h176v-1117z" />
    <glyph glyph-name="uni0439" unicode="&#x439;" horiz-adv-x="1154" 
d="M1018 0h-186v833l-526 -833h-170v1117h186v-820l520 820h176v-1117zM605 1382q167 0 167 254h162q0 -173 -81 -275q-47 -54 -103 -80t-142 -26q-163 0 -248 104t-85 277h162q0 -136 42 -195t126 -59z" />
    <glyph glyph-name="uni043A" unicode="&#x43a;" 
d="M324 515v-515h-188v1117h188v-486q74 3 125 31t87 114l10 22q8 23 18 45t18 49q44 123 122 174t203 51h51v-162h-43q-78 0 -118 -32q-39 -33 -67 -119q-50 -156 -150 -210l455 -594h-234l-383 515h-94z" />
    <glyph glyph-name="uni043B" unicode="&#x43b;" horiz-adv-x="1137" 
d="M1001 1117v-1117h-188v959h-384q-4 -99 -10 -272t-27 -323q-20 -150 -80 -239q-26 -36 -60 -67q-70 -60 -161 -60l-76 2v164h10l32 -2q59 0 88 33q51 51 78 195t35 513q3 67 7 214h736z" />
    <glyph glyph-name="uni043C" unicode="&#x43c;" horiz-adv-x="1308" 
d="M1172 0h-186v878l-268 -570h-140l-266 570v-878h-176v1117h227l294 -620l284 620h231v-1117z" />
    <glyph glyph-name="uni043D" unicode="&#x43d;" horiz-adv-x="1153" 
d="M1018 0h-188v503h-506v-503h-188v1117h188v-452h506v452h188v-1117z" />
    <glyph glyph-name="uni043E" unicode="&#x43e;" horiz-adv-x="1112" 
d="M557 986q-146 0 -226 -106t-80 -318t80 -322q79 -109 225 -109q146 1 226 107t79 322q0 216 -79 321t-225 105zM1055 558q0 -282 -136 -436t-365 -153q-229 0 -364 159q-133 158 -133 434t137 431q138 155 363 155t362 -154q136 -154 136 -436z" />
    <glyph glyph-name="uni043F" unicode="&#x43f;" horiz-adv-x="1154" 
d="M1018 0h-188v955h-506v-955h-188v1117h882v-1117z" />
    <glyph glyph-name="uni0440" unicode="&#x440;" horiz-adv-x="1132" 
d="M618 969q-138 0 -294 -127v-633q128 -62 260 -62q133 1 214 107t81 305t-61 305q-62 105 -200 105zM673 1148q185 0 293 -152t107 -419q0 -267 -134 -433t-337 -166q-148 0 -278 78v-468h-188v1529h188v-117q164 148 349 148z" />
    <glyph glyph-name="uni0441" unicode="&#x441;" horiz-adv-x="945" 
d="M600 -25q-393 0 -503 325q-38 108 -38 256t39 255q83 216 270 293q99 39 236 39t306 -86v-211h-11q-7 7 -47 35q-140 99 -280 99t-230 -110q-88 -112 -88 -312t85 -310t249 -110t311 136h11v-211q-176 -88 -310 -88z" />
    <glyph glyph-name="uni0442" unicode="&#x442;" horiz-adv-x="956" 
d="M952 952h-380v-952h-188v952h-380v165h948v-165z" />
    <glyph glyph-name="uni0443" unicode="&#x443;" 
d="M1014 1117l-601 -1529h-201l200 466l-406 1063h203l305 -827l304 827h196z" />
    <glyph glyph-name="uni0444" unicode="&#x444;" horiz-adv-x="1556" 
d="M533 980q-128 0 -203 -101t-75 -305t67 -317q69 -112 194 -112q50 1 84 13t85 34v745q-91 43 -152 43zM1301 560q0 200 -64 310t-191 110q-54 0 -90 -12t-85 -31v-745q13 -6 37 -18t42 -20q18 -9 73 -9q130 0 204 107q74 108 74 308zM1089 1142q187 0 297 -150
q108 -152 108 -404q0 -148 -37 -264q-70 -219 -234 -302q-77 -38 -151 -38t-106 16t-58 30l-37 19v-461h-186v461q-51 -27 -91 -46t-118 -19q-188 0 -301 153t-113 421t135 434q61 74 135 112t146 38t118 -20t89 -47v481h186v-481q108 67 218 67z" />
    <glyph glyph-name="uni0445" unicode="&#x445;" horiz-adv-x="1014" 
d="M1004 0h-231l-271 422l-279 -422h-213l388 554l-384 563h231l269 -418l276 418h214l-386 -550z" />
    <glyph glyph-name="uni0446" unicode="&#x446;" horiz-adv-x="1171" 
d="M1122 -268h-175v268h-811v1117h188v-955h499v955h188v-955h111v-430z" />
    <glyph glyph-name="uni0447" unicode="&#x447;" horiz-adv-x="1112" 
d="M546 539q107 0 242 44v534h188v-1117h-188v436q-192 -61 -335 -61q-256 0 -331 187q-26 66 -26 154v401h188v-303q0 -73 6 -118q14 -102 102 -138q47 -20 154 -19z" />
    <glyph glyph-name="uni0448" unicode="&#x448;" horiz-adv-x="1594" 
d="M1458 0h-1322v1117h188v-958h379v958h188v-958h379v958h188v-1117z" />
    <glyph glyph-name="uni0449" unicode="&#x449;" horiz-adv-x="1618" 
d="M1569 -268h-175v268h-1258v1117h188v-958h379v958h188v-958h379v958h188v-958h111v-427z" />
    <glyph glyph-name="uni044A" unicode="&#x44a;" horiz-adv-x="1164" 
d="M928 341q0 53 -17 91t-59 64q-42 24 -98 29t-150 5h-128v-380h124q180 0 235 33t75 69q18 36 18 89zM1122 346q0 -80 -32 -146q-98 -200 -423 -200h-379v952h-284v165h472v-435h196q128 0 197 -14t133 -60t92 -114t28 -148z" />
    <glyph glyph-name="uni044B" unicode="&#x44b;" horiz-adv-x="1419" 
d="M1283 0h-188v1117h188v-1117zM771 345q0 105 -75 150q-42 25 -98 30t-151 5h-123v-380h119q180 0 254 45t74 150zM839 88q-63 -46 -137 -67t-192 -21h-374v1117h188v-435h191q129 0 197 -14t137 -63q116 -87 116 -256t-126 -261z" />
    <glyph glyph-name="uni044C" unicode="&#x44c;" horiz-adv-x="1025" 
d="M788 341q0 53 -17 91t-59 64q-42 24 -98 29t-150 5h-140v-380h136q180 0 235 33t75 69q18 36 18 89zM982 346q0 -80 -32 -146q-98 -200 -423 -200h-391v1117h188v-435h208q128 0 197 -14t133 -60t92 -114t28 -148z" />
    <glyph glyph-name="uni044D" unicode="&#x44d;" horiz-adv-x="965" 
d="M372 -25q-158 0 -330 75v206h12q20 -16 54 -38q131 -82 276 -82t232 97t100 281h-508v151h507q-18 157 -104 237t-215 80q-170 0 -325 -128h-12v206q190 83 319 83q379 0 488 -313q37 -101 37 -249q0 -279 -143 -443q-144 -163 -388 -163z" />
    <glyph glyph-name="uni044E" unicode="&#x44e;" horiz-adv-x="1560" 
d="M1309 558q-1 216 -79 322t-222 106t-222 -108t-79 -319q0 -212 79 -320q78 -108 222 -108q144 -1 222 105t79 322zM1025 1148q219 0 349 -160t129 -435q0 -275 -135 -430q-136 -154 -358 -154q-222 1 -349 145q-128 144 -140 394h-197v-508h-188v1117h188v-455h201
q21 226 151 356t349 130z" />
    <glyph glyph-name="uni044F" unicode="&#x44f;" horiz-adv-x="1081" 
d="M757 591v376h-204q-114 0 -163 -28q-85 -49 -85 -146q1 -57 13 -91t45 -62q56 -49 196 -49h198zM945 0h-188v443h-186l-331 -443h-219l359 460q-137 40 -204 122q-64 82 -64 227t135 241q96 67 296 67h402v-1117z" />
    <glyph glyph-name="uni0450" unicode="&#x450;" horiz-adv-x="1078" 
d="M841 683q-5 310 -277 310q-78 1 -127 -21q-51 -22 -93 -66q-83 -85 -94 -223h591zM59 550q1 274 143 436t362 162t340 -128t120 -379v-102h-774q0 -193 98 -297t265 -104q168 0 321 94q43 28 58 41h11v-205q-49 -20 -89 -36q-147 -58 -293 -58q-267 0 -415 150
q-147 152 -147 426zM685 1302h-149l-273 374h243z" />
    <glyph glyph-name="uni0451" unicode="&#x451;" horiz-adv-x="1078" 
d="M841 683q-5 310 -277 310q-78 1 -127 -21q-51 -22 -93 -66q-83 -85 -94 -223h591zM59 550q1 274 143 436t362 162t340 -128t120 -379v-102h-774q0 -193 98 -297t265 -104q168 0 321 94q43 28 58 41h11v-205q-49 -20 -89 -36q-147 -58 -293 -58q-267 0 -415 150
q-147 152 -147 426zM467 1304h-201v195h201v-195zM880 1304h-201v195h201v-195z" />
    <glyph glyph-name="uni0452" unicode="&#x452;" horiz-adv-x="1184" 
d="M528 -403q-1 0 -51 2v158h59q184 0 252 126q82 150 82 527v146q-2 26 -2 90t-9 130q-16 131 -93 172q-40 21 -110 21q-131 0 -290 -135v-834h-188v1270h-166v132h166v154h188v-154h371v-132h-371v-277q170 155 339 155q243 0 322 -233q28 -81 28 -190l1 -101
q2 -35 2 -128l-3 -228q-2 -336 -149 -513q-134 -158 -344 -158h-34z" />
    <glyph glyph-name="uni0453" unicode="&#x453;" horiz-adv-x="850" 
d="M846 952h-522v-952h-188v1117h710v-165zM781 1676l-273 -374h-149l179 374h243z" />
    <glyph glyph-name="uni0454" unicode="&#x454;" horiz-adv-x="965" 
d="M61 557q1 270 141 428t380 158q155 0 330 -86v-203h-11q-51 44 -141 86t-198 42q-110 0 -198 -80t-112 -237h508v-151h-511q13 -194 103 -286t227 -92q101 0 186 36t136 82h11v-206q-148 -73 -330 -73q-114 -1 -210 35q-199 73 -273 290q-38 109 -38 257z" />
    <glyph glyph-name="uni0455" unicode="&#x455;" horiz-adv-x="914" 
d="M485 985q-93 0 -157 -39t-64 -114q0 -74 36 -108q57 -52 218 -78q16 -4 52 -12t56 -13q125 -31 187 -103t62 -196q0 -153 -118 -251t-315 -98q-198 0 -375 94v211h10q107 -89 207 -118q100 -28 150 -28t123 15t111 71q15 26 15 86q-1 60 -37 94t-102 50t-116 26
q-52 10 -112 27q-244 72 -244 302q0 151 114 246q115 95 306 95t342 -81v-201h-10q-156 123 -339 123z" />
    <glyph glyph-name="uni0456" unicode="&#x456;" horiz-adv-x="468" 
d="M341 1304h-214v195h214v-195zM328 0h-188v1117h188v-1117z" />
    <glyph glyph-name="uni0457" unicode="&#x457;" horiz-adv-x="468" 
d="M151 1304h-189v195h189v-195zM506 1304h-189v195h189v-195zM328 0h-188v1117h188v-1117z" />
    <glyph glyph-name="uni0458" unicode="&#x458;" horiz-adv-x="577" 
d="M442 1304h-214v195h214v-195zM43 -257q126 0 173 77q37 58 37 225v916h-202v156h390v-1149q0 -191 -102 -291t-283 -100q-72 0 -146 12v168h11q69 -14 122 -14z" />
    <glyph glyph-name="uni0459" unicode="&#x459;" horiz-adv-x="1692" 
d="M1455 345q0 105 -75 150q-42 25 -98 30t-151 5h-130v-380h126q180 0 254 45t74 150zM1001 1117v-435h198q129 0 197 -14t132 -60q120 -89 121 -262q0 -166 -126 -258q-63 -46 -137 -67t-192 -21h-381v959h-382q-16 -422 -37 -584t-82 -250q-26 -36 -60 -67
q-70 -60 -161 -60l-76 2v164h10l32 -2q59 0 88 33q51 51 78 195t35 513q3 67 7 214h736z" />
    <glyph glyph-name="uni045A" unicode="&#x45a;" horiz-adv-x="1687" 
d="M1440 341q0 53 -17 91t-59 64q-42 24 -98 29t-150 5h-130v-380h126q180 0 235 33t75 69q18 36 18 89zM1634 346q0 -80 -32 -146q-98 -200 -423 -200h-381v528h-474v-528h-188v1117h188v-435h474v435h188v-435h198q128 0 197 -14t133 -60t92 -114t28 -148z" />
    <glyph glyph-name="uni045B" unicode="&#x45b;" horiz-adv-x="1184" 
d="M366 993q174 155 336 155t258 -104t96 -319v-725h-188v636q0 180 -41 256q-41 77 -171 77q-131 0 -290 -135v-834h-188v1270h-166v132h166v154h188v-154h371v-132h-371v-277z" />
    <glyph glyph-name="uni045C" unicode="&#x45c;" 
d="M324 515v-515h-188v1117h188v-486q74 3 125 31t87 114l10 22q8 23 18 45t18 49q44 123 122 174t203 51h51v-162h-43q-78 0 -118 -32q-39 -33 -67 -119q-50 -156 -150 -210l455 -594h-234l-383 515h-94zM852 1676l-273 -374h-149l179 374h243z" />
    <glyph glyph-name="uni045D" unicode="&#x45d;" horiz-adv-x="1154" 
d="M714 1302h-149l-273 374h243zM1018 0h-186v833l-526 -833h-170v1117h186v-820l520 820h176v-1117z" />
    <glyph glyph-name="uni045E" unicode="&#x45e;" 
d="M1014 1117l-601 -1529h-201l200 466l-406 1063h203l305 -827l304 827h196zM515 1382q167 0 167 254h162q0 -173 -81 -275q-47 -54 -103 -80t-142 -26q-163 0 -248 104t-85 277h162q0 -136 42 -195t126 -59z" />
    <glyph glyph-name="uni045F" unicode="&#x45f;" horiz-adv-x="1154" 
d="M1018 0h-354v-268h-174v268h-354v1117h188v-956h506v956h188v-1117z" />
    <glyph glyph-name="uni0460" unicode="&#x460;" horiz-adv-x="2342" 
d="M66 735q0 367 193 574t517 207q138 0 276 -41v-196h-17q-137 66 -283 66q-234 0 -365 -185q-115 -163 -115 -431q0 -267 135 -427t343 -160t323 48v385h-344v174h884v-174h-344v-385q115 -48 323 -48t343 160t135 428t-114 430q-131 185 -366 185q-146 0 -283 -66h-17
v196q138 41 276 41q326 0 518 -207t192 -574t-190 -565t-518 -199q-186 0 -397 86q-211 -86 -397 -86q-328 1 -518 199t-190 565z" />
    <glyph glyph-name="uni0461" unicode="&#x461;" horiz-adv-x="1494" 
d="M1488 1117l-401 -1117h-169q-43 83 -177 359l-154 -359h-169q-242 478 -297 644q-55 165 -91 473h203q21 -301 61 -422q40 -122 199 -460l148 354q-19 50 -26 70q-49 150 -85 458h203q21 -301 61 -422q40 -122 199 -460l299 882h196z" />
    <glyph glyph-name="uni0462" unicode="&#x462;" horiz-adv-x="1394" 
d="M712 169q238 1 338 69t99 222q0 154 -102 221q-58 40 -160 49q-33 4 -170 4h-167v-565h162zM1356 466q0 -224 -156 -344q-153 -122 -427 -122h-421v1170h-347v143h347v176h198v-176h368v-143h-368v-265h229q154 0 249 -17t180 -84q148 -114 148 -338z" />
    <glyph glyph-name="uni0463" unicode="&#x463;" horiz-adv-x="1168" 
d="M931 343q0 165 -170 182q-60 5 -154 5h-140v-380h136q183 0 255 44t73 149zM1125 351q1 -167 -121 -259t-334 -92h-391v985h-274v132h274v439h188v-439h293v-132h-293v-303h208q121 0 193 -13t141 -64q116 -86 116 -254z" />
    <glyph glyph-name="uni0464" unicode="&#x464;" horiz-adv-x="1742" 
d="M1258 -27q-308 -1 -490 199t-188 540h-231v-712h-198v1489h198v-604h239q30 258 179 424q186 207 490 207q242 0 440 -91v-223h-15q-161 146 -419 146q-209 0 -329 -126t-144 -337h715v-173h-725q1 -271 138 -421t348 -150q264 0 416 141h15v-217q-213 -92 -439 -92z" />
    <glyph glyph-name="uni0465" unicode="&#x465;" horiz-adv-x="1415" 
d="M1032 -25q-238 -1 -374 141t-146 398h-188v-514h-188v1117h188v-452h193q23 197 135 321q139 157 380 157q160 0 330 -86v-203h-11q-145 128 -322 128q-139 0 -223 -87t-104 -230h508v-151h-511q10 -166 91 -272t256 -106t305 118h11v-206q-149 -73 -330 -73z" />
    <glyph glyph-name="uni0466" unicode="&#x466;" horiz-adv-x="1228" 
d="M740 885l-131 402l-133 -402l133 -210zM701 0h-188v566l-92 150l-231 -716h-200l502 1489h244l502 -1489h-209l-234 716l-94 -150v-566z" />
    <glyph glyph-name="uni0467" unicode="&#x467;" 
d="M584 665l-69 197l-70 -197l70 -140zM609 0h-188v426l-29 88l-183 -514h-203l418 1117h169l421 -1117h-196l-180 514l-29 -88v-426z" />
    <glyph glyph-name="uni0468" unicode="&#x468;" horiz-adv-x="1678" 
d="M1190 885l-131 402l-133 -402l133 -210zM1151 0h-188v566l-92 146l-231 -712h-200l240 712h-331v-712h-198v1489h198v-604h389l204 604h244l502 -1489h-209l-234 712l-94 -146v-566z" />
    <glyph glyph-name="uni0469" unicode="&#x469;" horiz-adv-x="1420" 
d="M984 665l-69 197l-70 -197l70 -140zM1009 0h-188v426l-29 88l-183 -514h-203l192 514h-274v-514h-188v1117h188v-452h331l169 452h169l421 -1117h-196l-180 514l-29 -88v-426z" />
    <glyph glyph-name="uni046A" unicode="&#x46a;" horiz-adv-x="1610" 
d="M1092 1313h-575l287 -481zM905 0h-198v655q-233 -91 -331 -226t-145 -429h-244q118 403 202 532q122 186 409 303l-396 654h1206l-396 -654q287 -117 409 -303q84 -129 202 -532h-244q-48 293 -145 430q-99 134 -329 225v-655z" />
    <glyph glyph-name="uni046B" unicode="&#x46b;" horiz-adv-x="1258" 
d="M843 962h-428l214 -344zM723 0h-188v445q-145 -70 -214 -164t-90 -281h-227q74 272 163 398t271 214l-315 505h1012l-315 -505q182 -88 271 -214t163 -398h-227q-21 187 -90 281t-214 164v-445z" />
    <glyph glyph-name="uni046C" unicode="&#x46c;" horiz-adv-x="2080" 
d="M1562 1313h-575l287 -481zM1375 0h-198v655q-233 -91 -331 -226t-145 -429h-244q94 323 149 438q82 171 227 274h-484v-712h-198v1489h198v-604h689l-366 604h1206l-396 -654q287 -117 409 -303q84 -129 202 -532h-244q-48 293 -145 430q-99 134 -329 225v-655z" />
    <glyph glyph-name="uni046D" unicode="&#x46d;" horiz-adv-x="1708" 
d="M1293 962h-428l214 -344zM1173 0h-188v445q-145 -70 -214 -164t-90 -281h-227q56 208 116 322t156 192h-402v-514h-188v1117h188v-452h531l-282 452h1012l-315 -505q182 -88 271 -214t163 -398h-227q-21 187 -90 281t-214 164v-445z" />
    <glyph glyph-name="uni046E" unicode="&#x46e;" horiz-adv-x="1091" 
d="M1038 -412h-152q0 75 -65 75q-16 0 -127 -43t-246 -43t-239 56q-129 71 -129 222t144 230q107 61 257 61t250 78t100 230q0 271 -369 271h-156v166h136q144 0 235 51q115 64 115 196q0 106 -84 156t-208 49q-123 0 -252 -50q-53 -21 -91 -44l-64 -38h-13v219
q184 86 410 86t366 -90t140 -267q0 -127 -82 -215t-209 -114v-15q331 -60 331 -371q0 -227 -166 -349t-398 -122q-76 0 -138 -26t-62 -81q0 -127 199 -127q79 -1 196 43t164 44q87 0 147 -66t60 -172zM847 2046l-228 -379h-227l-228 379h159l185 -256l184 256h155z" />
    <glyph glyph-name="uni046F" unicode="&#x46f;" horiz-adv-x="937" 
d="M899 -412h-152q0 75 -65 75q-15 0 -107 -43q-93 -43 -217 -43t-213 56q-114 71 -114 221t143 226q106 56 245 56q265 0 265 187q0 114 -89 153q-54 25 -185 25h-132v162h101q141 0 190 18q91 34 91 145q0 157 -217 157t-344 -105h-12v203q181 63 344 63t278 -66
q143 -81 143 -237q0 -91 -50 -159t-138 -91v-7q212 -74 212 -275q0 -170 -143 -260q-119 -75 -298 -75q-78 0 -145 -26t-67 -88q1 -61 47 -91t114 -30q68 -1 164 43q98 44 144 44q88 0 148 -66t59 -172zM777 1676l-228 -379h-227l-228 379h159l185 -256l184 256h155z" />
    <glyph glyph-name="uni0470" unicode="&#x470;" horiz-adv-x="1625" 
d="M1495 901q0 -299 -145 -428t-439 -150v-323h-197v323q-206 0 -320 145q-70 88 -95 212l-169 809h198l169 -832q12 -58 64 -110t153 -52v994h197v-994q203 18 295 104t91 279v611h198v-588z" />
    <glyph glyph-name="uni0471" unicode="&#x471;" horiz-adv-x="1463" 
d="M1336 441q0 -421 -511 -443v-410h-187v410q-191 0 -273 74q-52 49 -73 160l-165 885h188l165 -831q27 -134 158 -134v965h187v-965q183 14 253 90t70 253v622h188v-676z" />
    <glyph glyph-name="uni0472" unicode="&#x472;" horiz-adv-x="1449" 
d="M891 598q-103 0 -195 81t-136 81q-76 0 -284 -121q20 -217 119 -343q123 -156 339 -156t335 175q100 149 107 387q-182 -104 -285 -104zM726 1349q-212 0 -327 -148t-126 -409q188 113 287 113q99 -1 193 -79t141 -78q72 0 278 104q-19 217 -117 343q-117 154 -329 154z
M1383 744q0 -368 -178 -572q-177 -203 -481 -203q-304 1 -481 205t-177 570t176 570q176 206 481 206q306 0 483 -204t177 -572z" />
    <glyph glyph-name="uni0473" unicode="&#x473;" horiz-adv-x="1112" 
d="M688 420q-70 0 -144 61q-76 61 -111 61q-67 0 -178 -78q13 -139 76 -224q79 -109 226 -109q275 0 301 354q-100 -65 -170 -65zM557 986q-283 0 -304 -369q106 70 179 70t144 -59q76 -58 111 -58q65 0 170 75q-30 341 -300 341zM1055 558q0 -257 -125 -423t-372 -166
t-381 176q-120 157 -120 413t127 422q127 168 374 168t379 -176q118 -157 118 -414z" />
    <glyph glyph-name="uni0474" unicode="&#x474;" horiz-adv-x="1469" 
d="M1232 1331q-56 0 -81 -71l-433 -1260h-214l-512 1489h212l412 -1236l358 1074q24 79 98 121t160 41q160 0 280 -188l-99 -114h-11q-22 53 -68 99t-102 45z" />
    <glyph glyph-name="uni0475" unicode="&#x475;" horiz-adv-x="1266" 
d="M1027 990q-58 0 -85 -71l-349 -919h-169l-418 1117h203l306 -862l256 731q29 80 101 121t157 41q160 0 280 -188l-99 -114h-11q-23 52 -69 98t-103 46z" />
    <glyph glyph-name="uni0476" unicode="&#x476;" horiz-adv-x="1469" 
d="M1232 1331q-56 0 -81 -71l-433 -1260h-214l-512 1489h212l412 -1236l358 1074q24 79 98 121t160 41q160 0 280 -188l-99 -114h-11q-22 53 -68 99t-102 45zM348 2049l169 -374h-139l-258 374h228zM752 2049l169 -374h-139l-258 374h228z" />
    <glyph glyph-name="uni0477" unicode="&#x477;" horiz-adv-x="1266" 
d="M1027 990q-58 0 -85 -71l-349 -919h-169l-418 1117h203l306 -862l256 731q29 80 101 121t157 41q160 0 280 -188l-99 -114h-11q-23 52 -69 98t-103 46zM234 1676l169 -374h-139l-258 374h228zM638 1676l169 -374h-139l-258 374h228z" />
    <glyph glyph-name="uni0478" unicode="&#x478;" horiz-adv-x="2759" 
d="M1187 656q0 290 -131 445q-131 156 -330 156v90q-194 -3 -324 -157t-130 -444t132 -446t329 -156v-90q193 4 323 158t131 444zM1393 653q-1 -372 -183 -571t-484 -199v90q-296 2 -478 200t-182 563t186 575q182 205 481 205v-90q146 -2 263 -52q252 -108 350 -395
q47 -139 47 -326zM2478 990q-57 0 -86 -71l-529 -1331h-201l200 466l-406 1063h203l305 -827l257 696q29 80 101 121t157 41q160 0 280 -188l-99 -114h-11q-23 52 -69 98t-102 46z" />
    <glyph glyph-name="uni0479" unicode="&#x479;" horiz-adv-x="2380" 
d="M882 466q0 188 -71 300q-86 134 -252 134v80q-158 -8 -238 -142q-67 -110 -67 -284t78 -294q78 -122 245 -122q-2 -5 -1 -80q140 6 223 113t83 295zM1077 470q0 -281 -141 -428t-377 -147l1 80q-99 1 -191 36q-197 74 -272 289q-38 111 -38 257q0 274 145 434
q64 72 163 112t210 40v-80q223 -6 361 -159t139 -434zM2099 990q-57 0 -86 -71l-529 -1331h-201l200 466l-406 1063h203l305 -827l257 696q28 80 101 121t157 41q160 0 280 -188l-99 -114h-11q-22 52 -68 98t-103 46z" />
    <glyph glyph-name="uni047A" unicode="&#x47a;" horiz-adv-x="1751" 
d="M1479 744q0 308 -120 452t-365 168q-42 -66 -118 -66t-119 66q-245 -24 -365 -169t-120 -453t122 -452q122 -145 363 -169q43 66 119 66t118 -66q242 24 364 169q122 146 121 454zM1685 746q0 -390 -186 -577q-168 -168 -505 -190q-42 -66 -118 -66t-119 66
q-338 22 -505 189q-186 188 -186 577t187 573q165 165 504 188q41 66 118 66t119 -66q338 -23 504 -187q187 -183 187 -573z" />
    <glyph glyph-name="uni047B" unicode="&#x47b;" horiz-adv-x="1354" 
d="M1103 558q0 390 -325 432q-36 -55 -100 -55t-101 55q-326 -42 -326 -432t326 -432q37 55 101 55t100 -55q325 42 325 432zM1297 558q0 -536 -519 -576q-36 -55 -100 -55t-101 55q-520 40 -520 576t520 576q37 55 101 55t100 -55q519 -40 519 -576z" />
    <glyph glyph-name="uni047C" unicode="&#x47c;" horiz-adv-x="2342" 
d="M66 735q0 367 193 574t517 207q138 0 276 -41v-196h-17q-137 66 -283 66q-234 0 -365 -185q-115 -163 -115 -431q0 -267 135 -427t359 -160q84 0 170 13t235 75q149 -62 235 -75t170 -13q224 0 359 160t135 428t-114 430q-131 185 -366 185q-146 0 -283 -66h-17v196
q138 41 276 41q326 0 518 -207t192 -574t-190 -565t-518 -199q-186 0 -397 86q-211 -86 -397 -86q-328 1 -518 199t-190 565zM1516 1907q0 -46 -33 -79t-79 -33h-359q1 -5 1 -18q0 -46 -33 -79t-79 -33t-79 33t-33 79t33 79t79 33h359q-1 5 -1 18q0 46 33 79t79 33t79 -33
t33 -79z" />
    <glyph glyph-name="uni047D" unicode="&#x47d;" horiz-adv-x="2079" 
d="M1499 1143q249 0 385 -163q136 -162 136 -422t-138 -422t-390 -161q-250 0 -453 88q-203 -88 -453 -88q-250 -1 -388 161t-139 422t135 422q136 163 386 163q160 0 330 -86v-211h-11q-159 134 -323 134t-250 -134q-72 -112 -72 -288t81 -289q92 -131 262 -131
q228 0 443 136q215 -136 442 -136q170 0 262 131q81 113 81 289t-72 288q-87 134 -251 134t-322 -134h-11v211q170 86 330 86zM1385 1507q0 -46 -33 -79t-79 -33h-359q1 -5 1 -18q0 -46 -33 -79t-79 -33t-79 33t-33 79t33 79t79 33h359q-1 5 -1 18q0 46 33 79t79 33t79 -33
t33 -79z" />
    <glyph glyph-name="uni047E" unicode="&#x47e;" horiz-adv-x="2342" 
d="M66 735q0 367 193 574t517 207q138 0 276 -41v-196h-17q-137 66 -283 66q-234 0 -365 -185q-115 -163 -115 -431q0 -267 135 -427t343 -160t323 48v385h-344v174h884v-174h-344v-385q115 -48 323 -48t343 160t135 428t-114 430q-131 185 -366 185q-146 0 -283 -66h-17
v196q138 41 276 41q326 0 518 -207t192 -574t-190 -565t-518 -199q-186 0 -397 86q-211 -86 -397 -86q-328 1 -518 199t-190 565zM1628 1929l-90 -195h-34l-47 101h-222l-47 -101h-34l-47 101h-222l-47 -101h-34l-90 195h914z" />
    <glyph glyph-name="uni047F" unicode="&#x47f;" horiz-adv-x="1494" 
d="M1488 1117l-401 -1117h-169q-43 83 -177 359l-154 -359h-169q-242 478 -297 644q-55 165 -91 473h203q21 -301 61 -422q40 -122 199 -460l148 354q-19 50 -26 70q-49 150 -85 458h203q21 -301 61 -422q40 -122 199 -460l299 882h196zM1166 1489l-90 -195h-34l-47 101
h-222l-47 -101h-34l-47 101h-222l-47 -101h-34l-90 195h914z" />
    <glyph glyph-name="uni0480" unicode="&#x480;" horiz-adv-x="1230" 
d="M736 1516q230 0 460 -126v-239h-16q-211 196 -446 196q-200 0 -331 -156q-131 -155 -131 -445t132 -446t330 -156q52 0 90 3v-559h-198v394q-76 6 -161 40q-253 99 -350 388q-49 144 -49 333q0 357 184 565t486 208z" />
    <glyph glyph-name="uni0481" unicode="&#x481;" horiz-adv-x="945" 
d="M910 844h-11q-145 136 -318 136t-257 -131q-70 -109 -70 -287t72 -290q86 -134 251 -134h88v-550h-188v395q-202 35 -310 191t-108 402q0 248 123 399q135 168 398 168q141 0 330 -88v-211z" />
    <glyph glyph-name="uni0482" unicode="&#x482;" horiz-adv-x="1016" 
d="M996 940l-50 -152l-303 98l-111 -342l303 -99l-49 -152l-304 99l-127 -392h-177l145 443l-303 99l50 152l303 -98l111 342l-303 99l49 152l304 -99l129 399h176l-147 -450z" />
    <glyph glyph-name="uni0483" unicode="&#x483;" horiz-adv-x="0" 
d="M906 1507q0 -46 -33 -79t-79 -33h-359q1 -5 1 -18q0 -46 -33 -79t-79 -33t-79 33t-33 79t33 79t79 33h359q-1 5 -1 18q0 46 33 79t79 33t79 -33t33 -79z" />
    <glyph glyph-name="uni0484" unicode="&#x484;" horiz-adv-x="0" 
d="M938 1335h-95q0 54 -36 105q-37 48 -95 48t-186 -76t-220 -77h-124v154h124q70 0 190 59t193 59q109 -1 179 -77t70 -195z" />
    <glyph glyph-name="uni0485" unicode="&#x485;" horiz-adv-x="0" 
d="M937 1349h-625v-123h-130v376h130v-123h625v-130z" />
    <glyph glyph-name="uni0486" unicode="&#x486;" horiz-adv-x="0" 
d="M937 1226h-130v123h-625v130h625v123h130v-376z" />
    <glyph glyph-name="uni0488" unicode="&#x488;" horiz-adv-x="0" 
d="M-439 -92h-91q0 149 -120 149t-120 -149h-91q1 107 53 175t158 68q211 0 211 -243zM201 -336h-91q0 149 -120 149t-120 -149h-91q1 107 53 175t158 68q211 0 211 -243zM-559 464h-91q0 149 -120 149t-120 -149h-91q1 107 53 175t158 68q211 0 211 -243zM-439 970h-91
q0 149 -120 149t-120 -149h-91q1 107 53 175t158 68q211 0 211 -243zM861 -92h-91q0 149 -120 149t-120 -149h-91q0 243 211 243q106 0 158 -68t53 -175zM201 1214h-91q0 149 -120 149t-120 -149h-91q1 107 53 175t158 68q211 0 211 -243zM981 464h-91q0 149 -120 149
t-120 -149h-91q0 243 211 243q106 0 158 -68t53 -175zM861 970h-91q0 149 -120 149t-120 -149h-91q0 243 211 243q106 0 158 -68t53 -175z" />
    <glyph glyph-name="uni0489" unicode="&#x489;" horiz-adv-x="0" 
d="M-735 453q-73 0 -135 42t-78 110h89q11 -75 116 -75v76h147v-153h-139zM743 586v-76h-147v153h139q73 0 135 -42t78 -110h-89q-11 75 -116 75zM-680 -42q33 0 79 46l-54 54l104 104l109 -109l-99 -98q-53 -52 -125 -66t-133 23l63 63q23 -17 56 -17zM60 -199
q0 -73 -42 -135t-110 -78v89q75 11 75 116h-76v147h153v-139zM-646 1108q0 -33 46 -79l54 54l104 -104l-109 -109l-98 99q-52 53 -66 125t23 133l63 -63q-17 -23 -17 -56zM646 9q0 33 -46 79l-54 -54l-104 104l108 108l98 -98q53 -53 67 -125t-23 -133l-63 63q17 23 17 56z
M60 1188h-153v139q0 71 41 135q43 62 111 78v-89q-75 -11 -75 -116h76v-147zM679 1159q-33 0 -79 -46l54 -54l-104 -104l-108 108l98 99q52 52 124 66t134 -23l-63 -63q-23 17 -56 17z" />
    <glyph glyph-name="uni048A" unicode="&#x48a;" horiz-adv-x="1372" 
d="M1024 0v1182l-673 -1182h-200v1489h197v-1163l664 1163h209v-1316h212l-221 -510h-188l161 337h-161zM705 1601q-169 1 -267 85t-103 249h178q4 -211 192 -211t192 211h178q-5 -165 -103 -249t-267 -85z" />
    <glyph glyph-name="uni048B" unicode="&#x48b;" horiz-adv-x="1154" 
d="M832 0v833l-526 -833h-170v1117h186v-820l520 820h176v-955h171l-182 -430h-175l122 268h-122zM919 1636q-1 -178 -85 -280t-244 -101q-160 -1 -245 103t-85 278h162q0 -254 168 -254t167 254h162z" />
    <glyph glyph-name="uni048C" unicode="&#x48c;" horiz-adv-x="1193" 
d="M511 169q239 1 338 69t99 222t-102 221q-58 40 -160 49q-33 4 -170 4h-167v-565h162zM1155 466q0 -224 -155 -345t-428 -121h-421v1170h-137v143h137v176h198v-176h158v-143h-158v-265h229q154 0 249 -17t180 -84q148 -114 148 -338z" />
    <glyph glyph-name="uni048D" unicode="&#x48d;" horiz-adv-x="1025" 
d="M788 343q0 165 -170 182q-60 5 -154 5h-140v-380h136q184 0 256 44t72 149zM982 351q0 -167 -122 -259t-333 -92h-391v1225h-134v132h134v199h188v-199h143v-132h-143v-543h208q121 0 193 -13t141 -64q116 -86 116 -254z" />
    <glyph glyph-name="uni048E" unicode="&#x48e;" horiz-adv-x="1129" 
d="M885 1035q0 156 -107 227q-86 57 -265 57h-164v-595h135q146 0 221 28l-138 138l109 109l153 -154q56 76 56 190zM517 555h-168v-555h-198v1489h374q254 0 389 -93q177 -122 177 -356q0 -199 -128 -329l140 -141l-109 -109l-157 158q-124 -64 -320 -64z" />
    <glyph glyph-name="uni048F" unicode="&#x48f;" horiz-adv-x="1132" 
d="M879 567q0 402 -259 402q-145 0 -296 -127v-633q130 -62 226 -62t152 27l-135 136l109 109l139 -140q64 104 64 288zM593 -22q-139 0 -269 78v-468h-188v1529h188v-117q163 148 342 148q213 0 320 -182q87 -148 87 -400t-129 -417l159 -159l-109 -109l-162 163
q-100 -66 -239 -66z" />
    <glyph glyph-name="uni0490" unicode="&#x490;" horiz-adv-x="1040" 
d="M1034 1313h-685v-1313h-198v1489h697v410h186v-586z" />
    <glyph glyph-name="uni0491" unicode="&#x491;" horiz-adv-x="850" 
d="M846 952h-522v-952h-188v1117h536v369h174v-534z" />
    <glyph glyph-name="uni0492" unicode="&#x492;" horiz-adv-x="1039" 
d="M1034 1313h-685v-470h519v-176h-519v-667h-198v667h-116v176h116v646h883v-176z" />
    <glyph glyph-name="uni0493" unicode="&#x493;" horiz-adv-x="850" 
d="M846 952h-522v-324h392v-165h-392v-463h-188v463h-90v165h90v489h710v-165z" />
    <glyph glyph-name="uni0494" unicode="&#x494;" horiz-adv-x="1167" 
d="M589 745q239 0 380 -156t141 -437t-141 -428t-380 -147q-129 0 -260 57l-70 31v211h11q146 -136 318 -136t256 131q71 110 71 287t-71 290q-86 134 -252 134q-116 0 -243 -77v-505h-198v1489h883v-176h-685v-615q129 47 240 47z" />
    <glyph glyph-name="uni0495" unicode="&#x495;" horiz-adv-x="1044" 
d="M466 745q239 0 380 -156t141 -437t-141 -428t-380 -147q-129 0 -260 57l-70 31v211h11q145 -136 317 -136t250 122t78 298t-72 288q-86 134 -251 134q-64 0 -145 -29v-553h-188v1117h710v-165h-522v-223q65 16 142 16z" />
    <glyph glyph-name="uni0496" unicode="&#x496;" horiz-adv-x="1898" 
d="M1858 -337h-188v337h-69l-497 685h-96v-685h-196v685h-98l-496 -685h-232l562 768q-138 90 -208 317q-41 133 -81 173q-52 54 -178 54h-40v177h51q172 0 262 -68t149 -232l30 -86q18 -51 26 -68q84 -202 253 -218v672h196v-674q181 18 263 220q26 68 56 154
q58 166 149 233t262 67h51v-177h-40q-125 0 -173 -48t-88 -179q-68 -212 -213 -305l442 -606h141v-511z" />
    <glyph glyph-name="uni0497" unicode="&#x497;" horiz-adv-x="1538" 
d="M1489 -268h-175v268h-49l-351 514h-73v-514h-186v514h-73l-357 -514h-217l421 585q-102 53 -155 219q-26 83 -64 117t-121 34h-43v162h51q247 0 327 -225q17 -49 46 -116q62 -141 185 -148v489h186v-489q129 11 187 148q35 82 46 116q80 225 325 225h51v-162h-43
q-83 0 -121 -34t-64 -117q-50 -156 -150 -213l306 -429h111v-430z" />
    <glyph glyph-name="uni0498" unicode="&#x498;" horiz-adv-x="1091" 
d="M831 454q0 271 -369 271h-156v166h136q144 0 235 51q115 64 115 196q0 106 -84 156t-208 49q-123 0 -252 -50q-53 -21 -91 -44l-64 -38h-13v219q184 86 410 86t366 -90t140 -267q0 -127 -82 -215t-209 -114v-15q217 -39 299 -204q32 -66 32 -167q0 -198 -150 -335
q-79 -73 -262 -129q78 -52 78 -167q0 -230 -289 -230q-75 0 -151 21v158h9q53 -30 127 -30t110 25q34 26 34 84q0 57 -50 93t-138 46q-185 20 -323 78v222h14q203 -134 424 -134q175 0 269 84q93 84 93 224z" />
    <glyph glyph-name="uni0499" unicode="&#x499;" horiz-adv-x="937" 
d="M876 309q0 -95 -47 -169t-137 -115q-54 -26 -142 -45q78 -52 78 -167q0 -230 -289 -230q-75 0 -151 21v158h9q53 -30 127 -30t110 25q34 27 34 85t-50 96t-117 45q-128 14 -269 81v208h12q146 -136 375 -136q114 0 180 39q85 49 85 155t-84 144q-59 27 -190 27h-132v162
h101q138 0 186 18q95 36 95 145q0 85 -77 126q-58 31 -151 31q-206 0 -333 -105h-12v203q181 63 341 63t278 -64q146 -80 146 -239q0 -89 -50 -159q-51 -68 -138 -91v-7q212 -74 212 -275z" />
    <glyph glyph-name="uni049A" unicode="&#x49a;" horiz-adv-x="1298" 
d="M1258 -337h-188v337h-70l-526 682h-125v-682h-198v1489h198v-671q212 8 297 217q10 25 62 171t142 215q94 68 263 68h61v-177h-50q-124 0 -172 -48t-89 -179q-63 -203 -215 -302l469 -609h141v-511z" />
    <glyph glyph-name="uni049B" unicode="&#x49b;" horiz-adv-x="1071" 
d="M1022 -268h-175v268h-47l-382 515h-94v-515h-188v1117h188v-486q150 1 212 145q1 2 10 22t13 31t23 63q80 225 325 225h51v-162h-43q-83 0 -121 -34t-64 -117q-50 -153 -150 -210l331 -432h111v-430z" />
    <glyph glyph-name="uni049C" unicode="&#x49c;" horiz-adv-x="1234" 
d="M607 300h-134v382h-124v-682h-198v1489h198v-671q70 1 124 24v354h134v-237q37 58 94 226q58 168 149 236q94 68 263 68h61v-177h-50q-124 0 -172 -48t-89 -179q-63 -203 -215 -302l604 -783h-252l-393 509v-209z" />
    <glyph glyph-name="uni049D" unicode="&#x49d;" 
d="M552 140h-134v375h-94v-515h-188v1117h188v-486q55 2 94 16v349h134v-182l9 20q5 13 21 58q80 225 325 225h51v-162h-43q-83 0 -121 -34t-64 -117q-50 -153 -150 -210l455 -594h-234l-249 335v-195z" />
    <glyph glyph-name="uni049E" unicode="&#x49e;" horiz-adv-x="1234" 
d="M349 682v-682h-198v1100h-127v143h127v246h198v-246h158v-143h-158v-282q212 8 297 217q10 25 62 171t142 215q94 68 263 68h61v-177h-50q-124 0 -172 -48t-89 -179q-63 -203 -215 -302l604 -783h-252l-526 682h-125z" />
    <glyph glyph-name="uni049F" unicode="&#x49f;" 
d="M324 515v-515h-188v1268h-124v134h124v154h188v-154h343v-134h-343v-637q150 1 212 145q1 2 10 22t13 31t23 63q80 225 325 225h51v-162h-43q-83 0 -121 -34t-64 -117q-50 -153 -150 -210l455 -594h-234l-383 515h-94z" />
    <glyph glyph-name="uni04A0" unicode="&#x4a0;" horiz-adv-x="1471" 
d="M586 682v-682h-198v1313h-388v176h586v-671q212 8 297 217q10 25 62 173t143 214q91 67 262 67h61v-177h-50q-123 0 -171 -48t-90 -179q-63 -203 -215 -302l604 -783h-252l-526 682h-125z" />
    <glyph glyph-name="uni04A1" unicode="&#x4a1;" horiz-adv-x="1168" 
d="M472 515v-515h-188v952h-284v165h472v-486q150 1 212 145q1 2 10 22t13 31t23 63q80 225 325 225h51v-162h-43q-83 0 -121 -34t-64 -117q-50 -153 -150 -210l455 -594h-234l-383 515h-94z" />
    <glyph glyph-name="uni04A2" unicode="&#x4a2;" horiz-adv-x="1413" 
d="M1373 -337h-188v337h-151v729h-685v-729h-198v1489h198v-584h685v584h198v-1316h141v-510z" />
    <glyph glyph-name="uni04A3" unicode="&#x4a3;" horiz-adv-x="1178" 
d="M1129 -268h-175v268h-124v503h-506v-503h-188v1117h188v-452h506v452h188v-955h111v-430z" />
    <glyph glyph-name="uni04A4" unicode="&#x4a4;" horiz-adv-x="1620" 
d="M1620 1313h-388v-1313h-198v729h-685v-729h-198v1489h198v-584h685v584h586v-176z" />
    <glyph glyph-name="uni04A5" unicode="&#x4a5;" horiz-adv-x="1302" 
d="M1302 952h-284v-952h-188v503h-506v-503h-188v1117h188v-452h506v452h472v-165z" />
    <glyph glyph-name="uni04A6" unicode="&#x4a6;" horiz-adv-x="2049" 
d="M1471 745q239 0 380 -156t141 -437t-141 -428t-380 -147q-129 0 -260 57l-70 31v211h11q146 -136 318 -136t256 131q71 110 71 287t-71 290q-86 134 -252 134q-118 0 -242 -76v-506h-198v1313h-685v-1313h-198v1489h1081v-791q129 47 239 47z" />
    <glyph glyph-name="uni04A7" unicode="&#x4a7;" horiz-adv-x="1737" 
d="M1159 745q239 0 380 -156t141 -437t-141 -428t-379 -147q-129 0 -260 57l-70 31v211h11q145 -136 309 -136t250 112t85 298q0 186 -72 298q-86 134 -251 134q-63 0 -144 -29v-553h-188v955h-506v-955h-188v1117h882v-388q65 16 141 16z" />
    <glyph glyph-name="uni04A8" unicode="&#x4a8;" horiz-adv-x="1449" 
d="M1220 578q0 310 -177 310q-95 0 -141 -72t-45 -245q0 -233 102 -381q261 114 261 388zM733 -27q-332 0 -509 230q-158 206 -158 542t168 545q180 226 502 226q231 0 460 -126v-239h-16q-212 196 -446 196t-358 -195q-104 -164 -104 -409t108 -409q124 -190 354 -190
q30 0 40 1q-99 177 -99 435t102 371q85 96 266 96q349 0 349 -466q0 -167 -78 -305t-219 -217q134 -85 297 -86v-186q-86 4 -169 27q-194 51 -326 174q-77 -15 -164 -15z" />
    <glyph glyph-name="uni04A9" unicode="&#x4a9;" horiz-adv-x="1012" 
d="M802 459q0 135 -76 135q-70 0 -70 -138t73 -255q73 79 73 258zM570 -25q-261 -1 -386 159t-125 422q-1 262 135 424q136 163 386 163q160 0 330 -86v-211h-11q-159 134 -323 134t-250 -134q-72 -112 -72 -291t66 -287q79 -132 247 -130h9q-94 152 -94 329q0 122 62 198
t181 76q252 1 252 -275t-135 -399q63 -56 135 -92v-181q-152 69 -282 196q-59 -15 -125 -15z" />
    <glyph glyph-name="uni04AA" unicode="&#x4aa;" horiz-adv-x="1230" 
d="M734 144q254 0 447 193h15v-236q-36 -16 -104 -49q-68 -32 -167 -52q29 -19 63 -72t34 -115q0 -230 -289 -230q-75 0 -151 21v158h9q53 -30 127 -30t110 25q34 26 34 86q0 108 -167 134q-82 11 -230 45q-116 43 -212 146q-187 203 -187 568q0 364 184 572t486 208
q230 0 460 -126v-239h-16q-211 196 -446 196q-200 0 -331 -156q-131 -155 -131 -445t132 -446t330 -156z" />
    <glyph glyph-name="uni04AB" unicode="&#x4ab;" horiz-adv-x="945" 
d="M254 558q0 -176 78 -298t250 -122t317 136h11v-211q-12 -5 -56 -24t-114 -39q28 -19 62 -72t35 -115q0 -230 -289 -230q-74 0 -151 21v158h9q52 -30 128 -30t110 25t33 86q0 108 -167 134q-85 14 -141 34q-197 72 -272 289q-38 111 -38 257q0 274 141 430t380 156
q160 0 330 -86v-211h-11q-159 134 -323 134t-250 -134q-72 -112 -72 -288z" />
    <glyph glyph-name="uni04AC" unicode="&#x4ac;" horiz-adv-x="1196" 
d="M1197 1313h-500v-1140h136v-510h-188v337h-146v1313h-500v176h1198v-176z" />
    <glyph glyph-name="uni04AD" unicode="&#x4ad;" horiz-adv-x="956" 
d="M952 952h-380v-790h107v-430h-175v268h-120v952h-380v165h948v-165z" />
    <glyph glyph-name="uni04AE" unicode="&#x4ae;" horiz-adv-x="1180" 
d="M690 0h-198v638l-503 851h220l384 -657l390 657h210l-503 -830v-659z" />
    <glyph glyph-name="uni04AF" unicode="&#x4af;" 
d="M598 -412h-186v466l-406 1063h203l305 -827l304 827h196l-416 -1063v-466z" />
    <glyph glyph-name="uni04B0" unicode="&#x4b0;" horiz-adv-x="1180" 
d="M1080 663v-138h-390v-525h-198v525h-392v138h392l-503 826h220l384 -657l390 657h210l-503 -826h390z" />
    <glyph glyph-name="uni04B1" unicode="&#x4b1;" 
d="M920 60v-138h-322v-334h-186v334h-312v138h312l-406 1057h203l305 -827l304 827h196l-416 -1057h322z" />
    <glyph glyph-name="uni04B2" unicode="&#x4b2;" horiz-adv-x="1256" 
d="M1216 -337h-188v337h-75l-362 596l-369 -596h-214l473 745l-459 744h226l356 -585l361 585h215l-466 -734l361 -582h141v-510z" />
    <glyph glyph-name="uni04B3" unicode="&#x4b3;" horiz-adv-x="1054" 
d="M1005 -268h-175v268h-56l-272 422l-279 -422h-213l388 554l-384 563h231l269 -418l276 418h214l-386 -550l276 -405h111v-430z" />
    <glyph glyph-name="uni04B4" unicode="&#x4b4;" horiz-adv-x="1662" 
d="M1622 -337h-188v337h-1024v1313h-410v176h1018v-176h-410v-1139h675v1315h198v-1315h141v-511z" />
    <glyph glyph-name="uni04B5" unicode="&#x4b5;" horiz-adv-x="1337" 
d="M1288 -268h-175v268h-811v952h-302v165h788v-165h-298v-790h499v955h188v-955h111v-430z" />
    <glyph glyph-name="uni04B6" unicode="&#x4b6;" horiz-adv-x="1302" 
d="M1283 -337h-188v337h-142v630q-245 -80 -431 -80t-308 104t-121 323v512h198v-413q0 -182 47 -253q60 -91 246 -91t369 68v689h198v-1315h132v-511z" />
    <glyph glyph-name="uni04B7" unicode="&#x4b7;" horiz-adv-x="1112" 
d="M1084 -268h-175v268h-121v436q-183 -61 -341 -61q-159 0 -255 83t-96 258v401h188v-303q0 -144 39 -202q47 -73 187 -73t278 44v534h188v-955h108v-430z" />
    <glyph glyph-name="uni04B8" unicode="&#x4b8;" horiz-adv-x="1302" 
d="M953 1489h198v-1489h-198v630q-145 -48 -275 -70v-296h-134v286h-7q-201 0 -323 104t-121 323v512h198v-413q-1 -182 51 -259t202 -84v379h134v-374q170 23 275 62v689z" />
    <glyph glyph-name="uni04B9" unicode="&#x4b9;" horiz-adv-x="1112" 
d="M788 1117h188v-1117h-188v436q-64 -22 -185 -48v-208h-134v195h-16q-161 -2 -259 82t-98 259v401h188v-303q0 -144 40 -204t145 -69v294h134v-291q104 13 185 39v534z" />
    <glyph glyph-name="uni04BA" unicode="&#x4ba;" horiz-adv-x="1302" 
d="M1209 0h-198v413q0 182 -47 253q-60 91 -246 91t-369 -68v-689h-198v1489h198v-630q245 80 431 80t308 -104t121 -323v-512z" />
    <glyph glyph-name="uni04BB" unicode="&#x4bb;" horiz-adv-x="1142" 
d="M663 1148q165 0 258 -109t93 -314v-725h-188v636q0 180 -41 256q-41 77 -171 77q-131 0 -290 -135v-834h-188v1556h188v-563q174 155 339 155z" />
    <glyph glyph-name="uni04BC" unicode="&#x4bc;" horiz-adv-x="1689" 
d="M964 1349q-228 0 -347 -180q-99 -150 -105 -393h905q-6 242 -106 393q-119 180 -347 180zM1623 597h-1102q29 -209 143 -333t312 -124q300 0 505 145h15v-220q-208 -96 -510 -96q-302 -1 -470 173t-201 455q-147 3 -231 67t-84 196q0 80 24 167h170v-9q-34 -64 -34 -140
q0 -95 146 -100q6 342 182 542t478 200t479 -203q117 -135 154 -341q24 -129 24 -379z" />
    <glyph glyph-name="uni04BD" unicode="&#x4bd;" horiz-adv-x="1290" 
d="M772 993q-134 1 -216 -85t-94 -225h591q-5 165 -76 237t-205 73zM1236 539h-774q0 -185 94 -293t275 -108q118 0 220 46t153 89h11v-205l-82 -32q-160 -62 -300 -62q-266 0 -413 149q-146 149 -149 416q-135 3 -203 53t-68 182q0 80 24 167h150v-9q-34 -64 -34 -150
q0 -97 140 -99q27 182 134 304q143 161 363 161q219 0 339 -128t120 -379v-102z" />
    <glyph glyph-name="uni04BE" unicode="&#x4be;" horiz-adv-x="1689" 
d="M964 1349q-228 0 -347 -180q-99 -150 -105 -393h905q-6 242 -106 393q-119 180 -347 180zM1623 597h-1102q29 -209 143 -333t312 -124q300 0 505 145h15v-220q-116 -53 -361 -87q-63 -8 -108 -44t-45 -94t34 -83q36 -25 110 -25t127 30h9v-158q-76 -21 -151 -21
q-289 0 -289 230q0 83 68 160q-251 25 -397 195t-178 429q-147 3 -231 67t-84 196q0 80 24 167h170v-9q-34 -64 -34 -140q0 -95 146 -100q6 342 182 542t478 200t479 -203q117 -135 154 -341q24 -129 24 -379z" />
    <glyph glyph-name="uni04BF" unicode="&#x4bf;" horiz-adv-x="1290" 
d="M772 993q-132 1 -216 -85q-82 -86 -94 -225h591q-5 168 -77 239t-204 71zM1236 539h-774q0 -185 94 -293t288 -108q196 0 360 135h11v-205q-156 -61 -295 -88q-50 -11 -84 -49t-34 -93t34 -81q36 -25 110 -25t127 30h9v-158q-77 -21 -151 -21q-289 0 -289 230
q0 93 68 170q-210 33 -323 178t-116 378q-135 3 -203 53t-68 182q0 80 24 167h150v-9q-34 -64 -34 -150q0 -97 140 -99q27 182 134 304q143 161 363 161q219 0 339 -128t120 -379v-102z" />
    <glyph glyph-name="uni04C0" unicode="&#x4c0;" horiz-adv-x="764" 
d="M671 0h-578v152h190v1185h-190v152h578v-152h-190v-1185h190v-152z" />
    <glyph glyph-name="uni04C1" unicode="&#x4c1;" horiz-adv-x="1831" 
d="M1008 685v-685h-196v685h-98l-496 -685h-232l562 768q-65 42 -114 106q-47 64 -91 202t-89 188q-45 48 -173 48h-40v177h51q169 1 259 -63t141 -208t67 -183q43 -104 105 -159q64 -52 148 -59v672h196v-674q94 9 154 59q62 47 101 143t50 129q69 211 164 277t261 66h51
v-177h-40q-128 0 -174 -49q-45 -49 -87 -180t-96 -197t-117 -106l569 -780h-244l-496 685h-96zM910 1755q167 0 167 254h162q0 -177 -81 -275q-92 -106 -245 -106q-163 0 -248 104t-85 277h162q0 -135 42 -195t126 -59z" />
    <glyph glyph-name="uni04C2" unicode="&#x4c2;" horiz-adv-x="1496" 
d="M841 514v-514h-186v514h-73l-357 -514h-217l421 585q-101 51 -154 216q-28 88 -65 121q-38 33 -121 33h-43v162h51q121 0 201 -50t126 -175q13 -29 20 -50q45 -129 95 -169t116 -45v489h186v-489q128 8 187 148l10 22q8 23 18 45t18 49q44 123 122 174t203 51h51v-162
h-43q-78 0 -118 -32q-40 -31 -68 -119q-50 -158 -149 -213l420 -591h-227l-351 514h-73zM750 1382q167 0 167 254h162q0 -173 -81 -275q-46 -54 -102 -80t-142 -26q-163 0 -248 103q-86 103 -86 278h162q0 -136 42 -195t126 -59z" />
    <glyph glyph-name="uni04C3" unicode="&#x4c3;" horiz-adv-x="1234" 
d="M1200 192q0 -266 -134 -440t-387 -175q-141 0 -330 88v211h11q145 -136 317 -136t257 151q71 125 71 307t-71 307q-86 150 -252 150h-333v-655h-198v1489h198v-671q212 8 297 217q10 25 62 171t142 215q94 68 263 68h61v-177h-50q-123 0 -178 -55q-42 -40 -82 -171
t-90 -191t-95 -77q253 0 394 -190q127 -170 127 -436z" />
    <glyph glyph-name="uni04C4" unicode="&#x4c4;" 
d="M987 109q0 -532 -521 -532q-141 0 -330 88v211h11q145 -136 322 -136q323 0 323 364t-323 365h-145v-469h-188v1117h188v-486q150 1 212 145q1 2 10 22t13 31t23 63q80 225 325 225h51v-162h-43q-83 0 -121 -34t-64 -117q-46 -146 -117 -187q147 0 261 -140t113 -368z
" />
    <glyph glyph-name="uni04C5" unicode="&#x4c5;" horiz-adv-x="1388" 
d="M15 0v192h14q30 -3 38 -3q75 0 120 45q87 86 121 382q21 207 33 577l9 296h887v-1316h212l-221 -510h-188l161 337h-162v1313h-502q-1 -41 -3 -101t-6 -151t-7 -161q-15 -389 -67 -562q-102 -341 -363 -341l-38 1q-17 2 -38 2z" />
    <glyph glyph-name="uni04C6" unicode="&#x4c6;" horiz-adv-x="1137" 
d="M1001 1117v-955h171l-182 -430h-175l122 268h-124v959h-384l-6 -159q-1 -48 -6 -139q-13 -301 -53 -420q-83 -243 -273 -243l-76 2v164h10l32 -2q55 0 88 33q87 87 106 514q4 90 8 194l6 214h736z" />
    <glyph glyph-name="uni04C7" unicode="&#x4c7;" horiz-adv-x="1383" 
d="M1232 -16q0 -197 -120 -302t-320 -105q-130 0 -263 29v189h11q141 -48 225 -48q173 0 227 81q42 63 42 230v671h-685v-729h-198v1489h198v-584h685v584h198v-1505z" />
    <glyph glyph-name="uni04C8" unicode="&#x4c8;" horiz-adv-x="1153" 
d="M1018 -17q0 -221 -89 -313t-351 -93q-121 0 -254 29v189h11q141 -48 216 -48q171 0 225 67t54 244v445h-506v-503h-188v1117h188v-452h506v452h188v-1134z" />
    <glyph glyph-name="uni04C9" unicode="&#x4c9;" horiz-adv-x="1383" 
d="M1034 0v729h-685v-729h-198v1489h198v-584h685v584h198v-1316h212l-221 -510h-188l161 337h-162z" />
    <glyph glyph-name="uni04CA" unicode="&#x4ca;" horiz-adv-x="1153" 
d="M830 0v503h-506v-503h-188v1117h188v-452h506v452h188v-955h171l-182 -430h-175l122 268h-124z" />
    <glyph glyph-name="uni04CB" unicode="&#x4cb;" horiz-adv-x="1302" 
d="M1151 0h-142v-337h-188v511h132v456q-245 -80 -431 -80t-308 104t-121 323v512h198v-413q0 -182 47 -253q60 -91 246 -91t369 68v689h198v-1489z" />
    <glyph glyph-name="uni04CC" unicode="&#x4cc;" horiz-adv-x="1112" 
d="M976 0h-121v-268h-175v430h108v274q-183 -61 -341 -61q-159 0 -255 83t-96 258v401h188v-303q0 -144 39 -202q47 -73 187 -73t278 44v534h188v-1117z" />
    <glyph glyph-name="uni04CD" unicode="&#x4cd;" horiz-adv-x="1578" 
d="M1229 0v1283l-388 -873h-120l-385 873v-1283h-185v1489h270l372 -829l359 829h275v-1316h212l-221 -510h-188l161 337h-162z" />
    <glyph glyph-name="uni04CE" unicode="&#x4ce;" horiz-adv-x="1308" 
d="M986 0v878l-268 -570h-140l-266 570v-878h-176v1117h227l294 -620l284 620h231v-955h171l-182 -430h-175l122 268h-122z" />
    <glyph glyph-name="uni04CF" unicode="&#x4cf;" horiz-adv-x="468" 
d="M328 0h-188v1556h188v-1556z" />
    <glyph glyph-name="uni04D0" unicode="&#x4d0;" horiz-adv-x="1228" 
d="M839 585l-230 702l-229 -702h459zM-10 0l502 1489h244l502 -1489h-209l-135 416h-569l-135 -416h-200zM614 1755q167 0 167 254h162q0 -177 -81 -275q-92 -106 -245 -106q-163 0 -248 104t-85 277h162q0 -135 42 -195t126 -59z" />
    <glyph glyph-name="uni04D1" unicode="&#x4d1;" horiz-adv-x="1075" 
d="M463 1144q141 0 220 -18q264 -60 264 -362v-764h-187v119q-19 -13 -58 -45q-38 -32 -84 -55q-99 -50 -232 -50q-132 0 -230 101t-98 254q0 335 426 386q122 17 276 25v36q0 179 -164 199q-47 8 -107 8q-150 0 -329 -76h-11v191q173 51 314 51zM252 336q0 -194 212 -194
q147 0 296 133v310q-100 -9 -185 -17q-192 -19 -274 -100q-49 -46 -49 -132zM523 1382q167 0 167 254h162q0 -173 -81 -275q-47 -54 -103 -80t-142 -26q-163 0 -248 104t-85 277h162q0 -136 42 -195t126 -59z" />
    <glyph glyph-name="uni04D2" unicode="&#x4d2;" horiz-adv-x="1228" 
d="M839 585l-230 702l-229 -702h459zM-10 0l502 1489h244l502 -1489h-209l-135 416h-569l-135 -416h-200zM500 1657h-201v195h201v-195zM913 1657h-201v195h201v-195z" />
    <glyph glyph-name="uni04D3" unicode="&#x4d3;" horiz-adv-x="1075" 
d="M463 1144q141 0 220 -18q264 -60 264 -362v-764h-187v119q-19 -13 -58 -45q-38 -32 -84 -55q-99 -50 -232 -50q-132 0 -230 101t-98 254q0 335 426 386q122 17 276 25v36q0 179 -164 199q-47 8 -107 8q-150 0 -329 -76h-11v191q173 51 314 51zM252 336q0 -194 212 -194
q147 0 296 133v310q-100 -9 -185 -17q-192 -19 -274 -100q-49 -46 -49 -132zM422 1304h-201v195h201v-195zM835 1304h-201v195h201v-195z" />
    <glyph glyph-name="uni04D4" unicode="&#x4d4;" horiz-adv-x="1870" 
d="M890 723v601h-194l-245 -601h439zM1802 0h-912v557h-505l-217 -557h-207l603 1489h1238v-176h-716v-408h666v-176h-666v-553h716v-176z" />
    <glyph glyph-name="uni04D5" unicode="&#x4d5;" horiz-adv-x="1802" 
d="M1546 816q-51 177 -262 177q-131 0 -213 -76t-107 -214h603q-5 59 -21 113zM501 1146q304 0 413 -184q66 78 166 132t216 54q224 0 338 -134t115 -373v-82h-788q0 -219 113 -328q99 -93 257 -93q175 0 304 81q66 41 81 54h11v-205l-83 -32q-140 -62 -302 -62
q-319 0 -465 207q-43 -40 -73 -68q-30 -29 -88 -63q-60 -34 -128 -56t-198 -23t-231 97t-101 238t53 214q99 142 381 170q135 13 294 16v58q0 177 -170 206q-48 10 -122 10t-172 -27t-151 -51h-15v191q194 53 345 53zM251 330q0 -188 223 -188q90 0 182 44t161 112
q-39 106 -39 260q-265 -8 -359 -34q-168 -46 -168 -194z" />
    <glyph glyph-name="uni04D6" unicode="&#x4d6;" horiz-adv-x="1149" 
d="M151 0v1489h931v-176h-733v-408h683v-176h-683v-553h733v-176h-931zM616 1755q167 0 167 254h162q0 -177 -81 -275q-92 -106 -245 -106q-163 0 -248 104t-85 277h162q0 -135 42 -195t126 -59z" />
    <glyph glyph-name="uni04D7" unicode="&#x4d7;" horiz-adv-x="1078" 
d="M841 683q-5 310 -277 310q-78 1 -127 -21q-51 -22 -93 -66q-83 -85 -94 -223h591zM59 550q1 274 143 436t362 162t340 -128t120 -379v-102h-774q0 -193 98 -297t265 -104q168 0 321 94q43 28 58 41h11v-205q-49 -20 -89 -36q-147 -58 -293 -58q-267 0 -415 150
q-147 152 -147 426zM573 1382q167 0 167 254h162q0 -173 -81 -275q-47 -54 -103 -80t-142 -26q-163 0 -248 104t-85 277h162q0 -136 42 -195t126 -59z" />
    <glyph glyph-name="uni04DA" unicode="&#x4da;" horiz-adv-x="1449" 
d="M620 1657h-201v195h201v-195zM1033 1657h-201v195h201v-195zM725 140q229 0 347 180q99 150 105 393h-905q6 -242 106 -393q118 -180 347 -180zM723 1520q306 0 483 -204t177 -572t-178 -572q-177 -203 -481 -203t-480 203q-86 100 -132 244t-46 476h1102
q-26 189 -113 303q-119 154 -332 154q-248 0 -415 -145h-15v220q85 40 205 68t225 28z" />
    <glyph glyph-name="uni04DB" unicode="&#x4db;" horiz-adv-x="1078" 
d="M392 1304h-201v195h201v-195zM805 1304h-201v195h201v-195zM510 129q142 -1 224 85t94 225h-591q4 -148 68 -229t205 -81zM457 1148q273 0 417 -152t145 -417q0 -265 -134 -435t-383 -170q-208 0 -328 128t-120 379v102h774q0 185 -94 293t-275 108q-118 0 -220 -46
t-153 -89h-11v205q52 21 170 63q111 31 212 31z" />
    <glyph glyph-name="uni04DC" unicode="&#x4dc;" horiz-adv-x="1831" 
d="M1008 685v-685h-196v685h-98l-496 -685h-232l562 768q-65 42 -114 106q-47 64 -91 202t-89 188q-45 48 -173 48h-40v177h51q169 1 259 -63t141 -208t67 -183q43 -104 105 -159q64 -52 148 -59v672h196v-674q94 9 154 59q62 47 101 143t50 129q69 211 164 277t261 66h51
v-177h-40q-128 0 -174 -49q-45 -49 -87 -180t-96 -197t-117 -106l569 -780h-244l-496 685h-96zM800 1657h-201v195h201v-195zM1213 1657h-201v195h201v-195z" />
    <glyph glyph-name="uni04DD" unicode="&#x4dd;" horiz-adv-x="1496" 
d="M841 514v-514h-186v514h-73l-357 -514h-217l421 585q-101 51 -154 216q-28 88 -65 121q-38 33 -121 33h-43v162h51q121 0 201 -50t126 -175q13 -29 20 -50q45 -129 95 -169t116 -45v489h186v-489q128 8 187 148l10 22q8 23 18 45t18 49q44 123 122 174t203 51h51v-162
h-43q-78 0 -118 -32q-40 -31 -68 -119q-50 -158 -149 -213l420 -591h-227l-351 514h-73zM644 1304h-201v195h201v-195zM1057 1304h-201v195h201v-195z" />
    <glyph glyph-name="uni04DE" unicode="&#x4de;" horiz-adv-x="1091" 
d="M831 454q0 271 -369 271h-156v166h136q158 0 254 63t96 184q0 157 -188 196q-52 9 -115 9t-123 -14q-60 -15 -112 -35q-54 -20 -83 -37t-51 -31t-27 -15h-13v219q70 32 186 59t232 27t196 -18t154 -68q74 -48 112 -113q36 -65 36 -171t-80 -198q-81 -90 -211 -118v-15
q217 -38 299 -205q32 -64 32 -165t-41 -187q-135 -284 -523 -285q-242 0 -441 85v222h14q78 -50 195 -92t211 -42q191 0 286 83q94 84 94 225zM434 1657h-201v195h201v-195zM847 1657h-201v195h201v-195z" />
    <glyph glyph-name="uni04DF" unicode="&#x4df;" horiz-adv-x="937" 
d="M87 1081q175 63 337 63q161 0 282 -64q146 -82 146 -242q0 -90 -52 -157q-52 -68 -136 -90v-7q92 -32 152 -98t60 -168q0 -186 -146 -271q-118 -73 -313 -73t-385 90v208h12q66 -62 170 -99t178 -37t122 10q50 10 91 34t60 54t19 89q0 58 -22 97q-45 69 -150 76
q-40 5 -102 5h-132v162h101q39 0 95 2q107 4 160 61q26 30 26 90q0 97 -77 136q-60 31 -153 31q-206 0 -331 -105h-12v203zM374 1304h-201v195h201v-195zM787 1304h-201v195h201v-195z" />
    <glyph glyph-name="uni04E0" unicode="&#x4e0;" horiz-adv-x="1091" 
d="M466 -27q-238 0 -435 85v222h14q203 -134 424 -134q162 0 262 78t100 230q0 271 -369 271h-103v166l431 422h-710v176h956v-179l-405 -404v-15q169 -21 287 -135t118 -327q0 -212 -166 -334t-404 -122z" />
    <glyph glyph-name="uni04E1" unicode="&#x4e1;" horiz-adv-x="910" 
d="M861 119q0 -542 -521 -542q-141 0 -330 88v211h11q145 -136 322 -136q323 0 323 379q0 165 -90 275t-263 109v42l311 417h-560v155h786v-134l-282 -377q96 -42 170 -128q123 -144 123 -359z" />
    <glyph glyph-name="uni04E2" unicode="&#x4e2;" horiz-adv-x="1372" 
d="M1221 0h-197v1182l-673 -1182h-200v1489h197v-1163l664 1163h209v-1489zM1076 1698h-754v154h754v-154z" />
    <glyph glyph-name="uni04E3" unicode="&#x4e3;" horiz-adv-x="1154" 
d="M1018 0h-186v833l-526 -833h-170v1117h186v-820l520 820h176v-1117zM956 1335h-754v154h754v-154z" />
    <glyph glyph-name="uni04E4" unicode="&#x4e4;" horiz-adv-x="1372" 
d="M1221 0h-197v1182l-673 -1182h-200v1489h197v-1163l664 1163h209v-1489zM600 1657h-201v195h201v-195zM1013 1657h-201v195h201v-195z" />
    <glyph glyph-name="uni04E5" unicode="&#x4e5;" horiz-adv-x="1154" 
d="M1018 0h-186v833l-526 -833h-170v1117h186v-820l520 820h176v-1117zM474 1304h-201v195h201v-195zM887 1304h-201v195h201v-195z" />
    <glyph glyph-name="uni04E6" unicode="&#x4e6;" horiz-adv-x="1449" 
d="M724 1349q-105 0 -188 -39q-173 -81 -232 -306q-32 -112 -32 -260q0 -294 123 -449t330 -155t329 155t123 450q0 295 -122 450q-116 154 -331 154zM720 -31q-301 0 -477 204q-177 204 -177 571q0 363 176 569q176 207 481 207q304 0 482 -203t178 -572t-179 -573
q-90 -102 -212 -154q-126 -49 -272 -49zM614 1677h-201v195h201v-195zM1027 1677h-201v195h201v-195z" />
    <glyph glyph-name="uni04E7" unicode="&#x4e7;" horiz-adv-x="1112" 
d="M557 986q-146 0 -226 -106t-80 -318t80 -322q79 -109 225 -109q146 1 226 107t79 322q0 216 -79 321t-225 105zM1055 558q0 -282 -136 -436t-365 -153q-229 0 -364 159q-133 158 -133 434t137 431q138 155 363 155t362 -154q136 -154 136 -436zM451 1304h-201v195h201
v-195zM864 1304h-201v195h201v-195z" />
    <glyph glyph-name="uni04E8" unicode="&#x4e8;" horiz-adv-x="1449" 
d="M725 140q229 0 347 180q99 150 105 393h-905q6 -242 106 -393q118 -180 347 -180zM726 1349q-212 0 -332 -154q-87 -111 -113 -303h887q-26 189 -113 303q-117 154 -329 154zM1383 744q0 -368 -178 -572q-177 -203 -481 -203q-304 1 -481 205t-177 570t176 570
q176 206 481 206q306 0 483 -204t177 -572z" />
    <glyph glyph-name="uni04E9" unicode="&#x4e9;" horiz-adv-x="1112" 
d="M556 131q298 0 305 408h-610q7 -408 305 -408zM556 986q-256 0 -297 -303h594q-41 303 -297 303zM1055 558q0 -257 -125 -423t-372 -166t-381 176q-120 157 -120 413t127 422q127 168 374 168t379 -176q118 -157 118 -414z" />
    <glyph glyph-name="uni04EA" unicode="&#x4ea;" horiz-adv-x="1449" 
d="M725 140q229 0 347 180q99 150 105 393h-905q6 -242 106 -393q118 -180 347 -180zM726 1349q-212 0 -332 -154q-87 -111 -113 -303h887q-26 189 -113 303q-117 154 -329 154zM1383 744q0 -368 -178 -572q-177 -203 -481 -203q-304 1 -481 205t-177 570t176 570
q176 206 481 206q306 0 483 -204t177 -572zM614 1677h-201v195h201v-195zM1027 1677h-201v195h201v-195z" />
    <glyph glyph-name="uni04EB" unicode="&#x4eb;" horiz-adv-x="1112" 
d="M556 131q298 0 305 408h-610q7 -408 305 -408zM556 986q-256 0 -297 -303h594q-41 303 -297 303zM1055 558q0 -257 -125 -423t-372 -166t-381 176q-120 157 -120 413t127 422q127 168 374 168t379 -176q118 -157 118 -414zM451 1304h-201v195h201v-195zM864 1304h-201
v195h201v-195z" />
    <glyph glyph-name="uni04EC" unicode="&#x4ec;" horiz-adv-x="1228" 
d="M478 1348q-245 0 -416 -144h-15v220q77 36 193 64t246 28q324 0 500 -199t176 -561t-187 -572t-491 -211q-249 0 -441 91v219h15q74 -66 184 -104t236 -38q215 -1 350 157t135 414h-726v173h716q-22 215 -149 339t-326 124zM434 1657h-201v195h201v-195zM847 1657h-201
v195h201v-195z" />
    <glyph glyph-name="uni04ED" unicode="&#x4ed;" horiz-adv-x="965" 
d="M372 -25q-158 0 -330 75v206h12q20 -16 54 -38q131 -82 276 -82t232 97t100 281h-508v151h507q-18 157 -104 237t-215 80q-170 0 -325 -128h-12v206q190 83 319 83q379 0 488 -313q37 -101 37 -249q0 -279 -143 -443q-144 -163 -388 -163zM354 1304h-201v195h201v-195z
M767 1304h-201v195h201v-195z" />
    <glyph glyph-name="uni04EE" unicode="&#x4ee;" horiz-adv-x="1178" 
d="M157 185l96 -7q39 0 86 3t103 51q26 26 46 75l34 79l-523 1103h219l404 -876l365 876h204l-540 -1254q-89 -205 -257 -233q-46 -8 -130 -7q-84 0 -121 5v185h14zM976 1698h-754v154h754v-154z" />
    <glyph glyph-name="uni04EF" unicode="&#x4ef;" 
d="M1014 1117l-601 -1529h-201l200 466l-406 1063h203l305 -827l304 827h196zM906 1335h-754v154h754v-154z" />
    <glyph glyph-name="uni04F0" unicode="&#x4f0;" horiz-adv-x="1178" 
d="M157 185l96 -7q39 0 86 3t103 51q26 26 46 75l34 79l-523 1103h219l404 -876l365 876h204l-540 -1254q-89 -205 -257 -233q-46 -8 -130 -7q-84 0 -121 5v185h14zM500 1657h-201v195h201v-195zM913 1657h-201v195h201v-195z" />
    <glyph glyph-name="uni04F1" unicode="&#x4f1;" 
d="M1014 1117l-601 -1529h-201l200 466l-406 1063h203l305 -827l304 827h196zM416 1304h-201v195h201v-195zM829 1304h-201v195h201v-195z" />
    <glyph glyph-name="uni04F2" unicode="&#x4f2;" horiz-adv-x="1178" 
d="M157 185l96 -7q39 0 86 3t103 51q26 26 46 75l34 79l-523 1103h219l404 -876l365 876h204l-540 -1254q-89 -205 -257 -233q-46 -8 -130 -7q-84 0 -121 5v185h14zM697 2049l-258 -374h-139l169 374h228zM1101 2049l-258 -374h-139l169 374h228z" />
    <glyph glyph-name="uni04F3" unicode="&#x4f3;" 
d="M1014 1117l-601 -1529h-201l200 466l-406 1063h203l305 -827l304 827h196zM609 1676l-258 -374h-139l169 374h228zM1013 1676l-258 -374h-139l169 374h228z" />
    <glyph glyph-name="uni04F4" unicode="&#x4f4;" horiz-adv-x="1302" 
d="M574 732q193 0 379 68v689h198v-1489h-198v630q-240 -80 -416 -80q-314 0 -411 233q-33 83 -33 194v512h198v-413q-1 -98 7 -151q18 -128 126 -169q57 -24 150 -24zM514 1657h-201v195h201v-195zM927 1657h-201v195h201v-195z" />
    <glyph glyph-name="uni04F5" unicode="&#x4f5;" horiz-adv-x="1112" 
d="M546 539q107 0 242 44v534h188v-1117h-188v436q-192 -61 -335 -61q-256 0 -331 187q-26 66 -26 154v401h188v-303q0 -73 6 -118q14 -102 102 -138q47 -20 154 -19zM424 1304h-201v195h201v-195zM837 1304h-201v195h201v-195z" />
    <glyph glyph-name="uni04F6" unicode="&#x4f6;" horiz-adv-x="1039" 
d="M349 174h188v-511h-188v337h-198v1489h883v-176h-685v-1139z" />
    <glyph glyph-name="uni04F7" unicode="&#x4f7;" horiz-adv-x="850" 
d="M324 174h188v-511h-188v337h-188v1117h710v-165h-522v-778z" />
    <glyph glyph-name="uni04F8" unicode="&#x4f8;" horiz-adv-x="1615" 
d="M1464 0h-198v1489h198v-1489zM489 169q136 -1 207 13t126 52q56 38 80 89q24 49 24 129t-25 138t-79 93t-128 43t-200 8h-145v-565h140zM985 804q148 -114 148 -337q0 -222 -155 -345q-82 -66 -178 -94t-250 -28h-399v1489h198v-584h207q149 1 246 -17t183 -84zM714 1657
h-201v195h201v-195zM1127 1657h-201v195h201v-195z" />
    <glyph glyph-name="uni04F9" unicode="&#x4f9;" horiz-adv-x="1419" 
d="M1283 0h-188v1117h188v-1117zM771 345q0 105 -75 150q-42 25 -98 30t-151 5h-123v-380h119q180 0 254 45t74 150zM839 88q-63 -46 -137 -67t-192 -21h-374v1117h188v-435h191q129 0 197 -14t137 -63q116 -87 116 -256t-126 -261zM594 1304h-201v195h201v-195zM1007 1304
h-201v195h201v-195z" />
    <glyph glyph-name="uni04FA" unicode="&#x4fa;" horiz-adv-x="1039" 
d="M140 -257q126 0 172 77q22 36 30 88t7 77v15h-198v667h-116v176h116v646h883v-176h-685v-470h519v-176h-519v-409h188v-290q0 -191 -102 -291t-283 -100q-74 0 -146 12v168h11q71 -14 123 -14z" />
    <glyph glyph-name="uni04FB" unicode="&#x4fb;" horiz-adv-x="850" 
d="M115 -257q52 1 100 19q116 45 109 223v15h-188v463h-90v165h90v489h710v-165h-522v-324h392v-165h-392v-205h188v-290q0 -190 -102 -291q-103 -100 -283 -100q-72 0 -146 12v168h11q71 -14 123 -14z" />
    <glyph glyph-name="uni04FC" unicode="&#x4fc;" horiz-adv-x="1268" 
d="M815 -257q52 1 100 19q116 45 109 223v15h-70l-363 596l-369 -596h-214l473 745l-459 744h226l356 -585l361 585h215l-466 -734l310 -501v4h188v-290q0 -190 -102 -291q-103 -100 -283 -100q-72 0 -146 12v168h11q71 -14 123 -14z" />
    <glyph glyph-name="uni04FD" unicode="&#x4fd;" horiz-adv-x="992" 
d="M622 -257q126 0 172 77q22 36 30 88t7 77v15h-58l-271 422l-279 -422h-213l388 554l-384 563h231l269 -418l276 418h214l-386 -550l213 -313v4h188v-290q0 -191 -102 -291t-283 -100q-74 0 -146 12v168h11q71 -14 123 -14z" />
    <glyph glyph-name="uni04FE" unicode="&#x4fe;" horiz-adv-x="1189" 
d="M50 653v152h394l-422 684h226l356 -585l361 585h215l-435 -684h423v-152h-391l404 -653h-227l-363 596l-369 -596h-214l414 653h-372z" />
    <glyph glyph-name="uni04FF" unicode="&#x4ff;" horiz-adv-x="1014" 
d="M40 493v134h308l-334 490h231l269 -418l276 418h214l-344 -490h314v-134h-306l336 -493h-231l-271 422l-279 -422h-213l345 493h-315z" />
  </font>
</defs>
</svg>
