<svg xmlns="http://www.w3.org/2000/svg" width="170" height="80" viewBox="-10.5 -9.5 170 80" enable-background="new -10.5 -9.5 170 80"><title>Slice 2</title><desc>Created with Sketch.</desc><g><g fill="#fff"><path d="M22.716 37.476C14.93 30.47 8.592 23.164 3.836 16.052c-2.51-3.75-4.572-7.484-5.775-11.04-.386-1.14-1.47-4.39 2.243-2.997.45.17 2.528 1.614 2.76 1.973.623.97-.816.814-.52 1.76C3.046 7.36 3.826 9.05 4.7 10.732c1.723 3.323 3.942 6.714 6.543 10.117 5.422 7.096 12.307 14.353 20.803 21.14 8.845 7.064 19.99 14.014 32.002 17.608 4.786 1.432 9.283 2.133 12.83 1.51 2.13-.373 3.815-1.15 4.938-2.235.254-.246 1.41-3.227 1.43-3.225 1.283.173 1.473 3.682 1.408 3.968-.418 1.83-2.336 3.01-4.68 3.717-15.83 4.763-44.79-14.64-57.258-25.857z"/><path d="M.642 3.008C.23 6.254-.76 9.434-1.088 12.69c-.1 1.01 1.147 6.363.395 6.552-2.48.62-3.718-4.104-3.79-5.1-.204-2.805.698-5.63 1.335-8.383.287-1.236.567-2.477.664-3.728.08-1.032-.926-3.77-.043-4.59 2.1-1.95 3.77 2.22 4.083 2.693C3.31 2.79 5.54 5.275 8.034 7.578c1.453 1.342 3.033 2.624 4.834 3.72-.623-.38 2.73 2.228.856 1.408C8.26 10.316 4.017 6.946.642 3.008z"/></g><path fill="#fff" d="M61.9 13.92c0-.85-.424-1.5-1.25-1.9-.7-.3-1.824-.526-3.35-.626 2.35-.875 3.55-2 3.55-3.375 0-.75-.35-1.326-1-1.75-.574-.326-1.324-.5-2.25-.5-.85 0-2.274.074-4.324.224-.65.05-.95.325-.95.8 0 .5.275.75.85.75.05 0 .175 0 .375-.05.226-.05.376-.075.426-.075-.05 1.674-.075 2.674-.075 3.024v2.825c-.024 1.95-.024 3.05-.024 3.35-.5.05-.8.15-.95.25-.25.124-.35.35-.35.65 0 .374.225.6.7.65.875-.05 1.925-.25 3.15-.55 1.75-.476 2.9-.85 3.5-1.15 1.3-.65 1.975-1.5 1.975-2.55zm12.376 4.174c0 .95-1.3 1.85-3.9 2.65v-1.6c0-.25 0-.85.05-1.825 1.225-.05 1.95-.1 2.2-.1 1.1 0 1.65.3 1.65.874zM75.4 24.02c0 .95-1.7 1.724-5.1 2.274v-3.75c1.85.075 3.15.2 3.9.4.8.225 1.2.575 1.2 1.075zm10.57.3c0-.2-.075-.376-.226-.576-.15-.2-.325-.3-.5-.3-.2 0-.45.175-.75.5-.4.375-.675.65-.825.825-.45.35-1.026.524-1.726.524-.55 0-.95-.2-1.25-.625-.3-.426-.425-.976-.425-1.626 0-1.875.85-3.45 2.6-4.7.3.225.75.325 1.35.325.55 0 .95-.326 1.175-1.026-.025-.75-.45-1.15-1.275-1.15-.75 0-1.375.175-1.925.5-1 .65-1.825 1.525-2.45 2.65-.65 1.15-.95 2.375-.95 3.65 0 1.05.3 1.9.95 2.6.625.675 1.45 1.025 2.45 1.025.9 0 1.8-.376 2.7-1.126.7-.575 1.074-1.075 1.074-1.475zm11.093 1.924c0-.2-.075-.375-.226-.575-.15-.176-.3-.276-.5-.276-.125 0-.4.025-.85.075-.476.1-.825.124-1.05.124-1.1 0-1.875-.525-2.375-1.575 1.1-.476 2.024-1.15 2.774-2.026.825-.95 1.25-1.9 1.25-2.9 0-.65-.25-1.225-.7-1.725-.65-.65-1.274-1-1.9-1-1.024 0-1.874.65-2.55 1.924-.6 1.125-.9 2.3-.9 3.5 0 .375.026.75.1 1.15-.15.025-.324.025-.474.025-.425 0-.85-.126-1.275-.4-.425-.3-.675-.45-.75-.45-.5 0-.75.274-.75.824 0 .4.3.775.926 1.125.5.324 1.2.474 2.074.474.25 0 .5-.025.7-.075.852 1.85 2.25 2.774 4.2 2.774 1.5 0 2.276-.35 2.276-1zm-2.45-7.025c0 .674-.3 1.3-.875 1.874-.575.625-1.275 1.1-2.075 1.45-.05-.35-.075-.7-.075-1 0-.8.175-1.6.525-2.35.35-.75.774-1.15 1.274-1.15.275 0 .55.125.825.35.25.25.4.525.4.825zm12.394-2.85c0-.2-.1-.4-.25-.55-.176-.15-.375-.226-.576-.226-.198 0-.548.075-1.048.175-1.7.35-3.7.55-6 .574-.426 0-.625.275-.625.825 0 .5.375.75 1.15.774-.126 1.1-.2 1.825-.227 2.15-.25 2-.6 4.175-1.05 6.55-.1.475-.124.775-.124.875 0 .574.225.874.674.874.576 0 .9-.325.976-.975.125-1.426.325-2.976.575-4.65.126-1 .376-2.65.75-4.976 1.126-.15 1.85-.25 2.2-.3.9-.1 1.875-.225 2.95-.35.4-.05.627-.325.627-.775zm8.693 4.574c0-.925-.275-1.8-.8-2.6-.55-.8-1.25-1.35-2.1-1.675-.302-.1-.5-.15-.552-.15-.125 0-.25.024-.35.05-.2.25-.525.474-.975.7-.85.45-1.525 1.2-2.05 2.274-.5 1-.75 2.025-.75 3.05 0 1.125.3 2.1.925 2.925.65.95 1.5 1.4 2.55 1.4.65 0 1.3-.3 2-.85s1.15-1.15 1.4-1.826c.15-.4.25-.7.325-.9.252-.625.377-1.425.377-2.4zm-1.45.375c0 .824-.275 1.674-.825 2.55-.6.95-1.2 1.424-1.85 1.424-.6 0-1.076-.25-1.45-.8-.376-.5-.55-1.125-.55-1.9 0-.975.2-1.85.625-2.6.5-.85 1.174-1.3 2.05-1.35.25.15.6.25 1 .25.65.45 1 1.25 1 2.425zM75.8 36.943c0-.475-.35-.775-1.024-.875l-6 .5c-.775.074-1.15.324-1.15.724 0 .35.05.675.2.95-.15 2.125-.225 3.5-.25 4.1-.175 1.85-.25 2.775-.25 2.775 0 .323.075.624.275.898.2.3.4.425.65.425.326 0 .5-.274.55-.85.15-2.65.3-5.15.5-7.5 1.9-.175 3.4-.3 4.476-.4-.2 4.75-.275 7.3-.275 7.6 0 1.55.35 2.325 1.076 2.325.35 0 .55-.2.55-.575-.125-.8-.175-1.525-.175-2.125 0-.875.05-2.2.15-4 0-.275.05-.7.126-1.25.05-.45.075-.725.075-.825 0-.35-.05-.65-.1-.9.4-.25.6-.6.6-1zm10.42 3.65c0-.175-.1-.4-.3-.65 0-.625-.102-1.2-.3-1.7.05-.175.073-.3.073-.35 0-.275-.15-.525-.4-.75-.274-.2-.55-.325-.8-.325-1.15 0-2.524.75-4.174 2.25-.526.5-.9.9-1.1 1.15-1.05 1.3-1.55 2.5-1.55 3.65 0 .724.224 1.374.7 1.924.474.65 1.05.95 1.724.95 1.275 0 2.6-.825 3.975-2.476.1.925.174 1.6.224 2.025.075.8.35 1.225.85 1.225.525 0 .8-.25.8-.725 0-.05-.1-.425-.25-1.175-.1-.4-.125-.825-.125-1.25 0-1.15.175-2.275.55-3.325.05-.2.1-.35.1-.45zm-1.75-.7c0 1.1-.5 2.226-1.45 3.425-.95 1.2-1.876 1.774-2.826 1.774-.7 0-1.025-.425-1.025-1.3 0-.825.5-1.825 1.55-3 .4-.475.924-.95 1.574-1.425.7-.526 1.225-.8 1.55-.8.4 0 .625.45.625 1.324zm12.143-2.25c0-1.15-.25-2.1-.75-2.85-.55-.85-1.35-1.3-2.4-1.3-1.425 0-2.55 1.075-3.375 3.175-.625 1.624-.925 3.324-.925 5.074v.574c0 .226.025.4.025.55-.7.25-1.025.6-1.025 1 0 .476.35.75 1.075.8 0 .5.024.9.024 1.226v1.375c0 1.4-.1 2.424-.25 3.074-.175.625-.25.975-.25 1.05 0 .55.25.825.775.825.375 0 .65-.4.826-1.176.3-1.55.45-3.275.45-5.226 0-.55-.025-1.15-.075-1.8 1.9-.7 3.25-1.4 4.1-2.15 1.175-1.05 1.775-2.474 1.775-4.224zm-1.475-.425c0 1.474-.425 2.624-1.25 3.45-.65.624-1.725 1.2-3.25 1.724.05-2.875.525-5 1.476-6.35.425-.625.875-.95 1.35-.95.5 0 .9.225 1.226.675.298.45.448.95.448 1.45zm11.843 5.098v-2.1c0-1.45-.274-2.175-.824-2.175-.4 0-.7.35-.95 1.025-.525 1.325-1.125 2.4-1.8 3.225-.7.85-1.35 1.25-1.95 1.25-.2 0-.4-.075-.55-.226-.175-.15-.25-.35-.25-.55 0-.475.075-1.3.226-2.475.15-1.15.225-2.025.225-2.575s-.1-1.025-.25-1.475c-.176-.45-.426-.675-.75-.675-.55 0-.8.225-.8.65 0 .075.024.275.124.575.077.3.126.55.126.75 0 .55-.074 1.375-.174 2.525-.15 1.15-.2 1.975-.2 2.525 0 .775.2 1.4.624 1.85.375.5.926.726 1.625.726.802 0 1.602-.425 2.427-1.3.675-.7 1.225-1.525 1.675-2.476 0 1.525-.075 2.726-.226 3.625-.625 3.625-2.924 5.45-6.875 5.45-.25 0-.698-.05-1.35-.125-.448.025-.698.275-.698.75 0 .75.7 1.125 2.074 1.125 2.375 0 4.325-.675 5.825-1.975 1.8-1.598 2.7-4.223 2.7-7.924zm19.863 5.375c0-.25-.075-.475-.176-.7-.2-.35-.35-.524-.5-.624-.475-1.076-.85-2.727-1.1-4.926-.275-1.95-.5-3.3-.65-4.025-.1-.35-.3-.526-.65-.526-.5 0-1.25 1.775-2.273 5.325-.8-1.3-1.4-2.85-1.826-4.7l-.2-.9c-.1-.326-.274-.5-.55-.5-.375 0-.75.6-1.15 1.8-.148-.05-.25-.076-.25-.076-.35 0-.523.225-.523.65 0 .075 0 .2.024.375 0 .274.023.474.023.574-.024.2-.074 1.025-.174 2.475-.102 1.2-.15 1.974-.15 2.35 0 1.6.224 2.374.724 2.374.45 0 .676-.524.676-1.575 0-2.126.2-4.25.6-6.376.475 1.45.975 2.65 1.475 3.625.625 1.225 1.15 1.824 1.575 1.824.325 0 .65-.5.95-1.55l.875-3.45c.35 3.45.725 5.85 1.15 7.15.5 1.5.975 2.25 1.45 2.25.15 0 .3-.1.45-.275.123-.202.198-.4.198-.577zm9.844-.85c0-.124-.1-.274-.25-.474-.6-.65-.875-2.326-.875-5 0-.852.05-1.8.174-2.852l.2-1.8c0-.2-.075-.4-.225-.575-.174-.2-.374-.3-.6-.3-.324 0-1.15.95-2.475 2.8-1.05 1.5-2.15 3.175-3.25 5 .2-2.75.35-4.6.426-5.5 0-.325-.124-.625-.325-.875-.25-.25-.524-.375-.774-.375-.148 0-.273.1-.374.25.05.6.1 1 .1 1.2-.024 1.5-.15 3.5-.374 5.95-.05.575-.1.95-.125 1.125 0 .274.1.475.25.625.35.35.524.524.574.524.226 0 .552-.35.976-1.1 1.6-2.85 3.15-5.175 4.65-7-.074 1.45-.1 2.65-.1 3.65 0 1.3.125 2.45.4 3.45.324 1.3.774 1.95 1.35 1.95.1 0 .25-.1.4-.25.15-.2.25-.324.25-.423zm9.84-9.774c0-.526-.25-.8-.724-.8-.35 0-.574.4-.675 1.2-.2 1.4-.35 2.424-.4 3.024-1.374.375-2.624.625-3.774.725.225-2 .55-3.55.975-4.65.1-.25.15-.45.15-.576 0-.5-.226-.775-.677-.775-.35 0-.574.174-.7.474-.5 1.275-.874 3.125-1.124 5.525-.552 0-.876-.025-.976-.05-.375 0-.55.224-.55.624 0 .524.274.774.874.774h.525c-.1 1.226-.176 2.426-.225 3.575 0 .1-.025.2-.05.35-.05.15-.05.25-.05.35 0 .2.074.376.225.576.15.148.35.25.574.25.426 0 .65-.276.676-.826.1-2 .174-3.45.225-4.325 1.35-.126 2.6-.35 3.75-.676-.15 1.25-.225 2.45-.275 3.55 0 .075-.025.2-.05.35-.05.15-.05.25-.05.275 0 .6.074 1.024.225 1.3.15.274.3.425.475.425.5 0 .775-.3.775-.875 0-.05-.025-.2-.025-.45-.024-.25-.024-.425-.024-.525 0-1.825.25-4.475.773-7.925.076-.55.125-.85.125-.9zm10.47 5.248v-2.1c0-1.45-.275-2.175-.824-2.175-.4 0-.7.35-.95 1.025-.525 1.325-1.126 2.4-1.8 3.225-.7.85-1.35 1.25-1.95 1.25-.2 0-.4-.075-.55-.226-.176-.15-.25-.35-.25-.55 0-.475.074-1.3.225-2.475.15-1.15.225-2.025.225-2.575s-.1-1.025-.25-1.475c-.175-.45-.425-.675-.75-.675-.55 0-.8.225-.8.65 0 .075.024.275.125.575.075.3.125.55.125.75 0 .55-.075 1.375-.175 2.525-.15 1.15-.2 1.975-.2 2.525 0 .775.2 1.4.625 1.85.375.5.925.726 1.625.726.8 0 1.6-.425 2.425-1.3.676-.7 1.225-1.525 1.676-2.476 0 1.525-.077 2.726-.227 3.625-.625 3.625-2.925 5.45-6.875 5.45-.25 0-.7-.05-1.35-.125-.45.025-.7.275-.7.75 0 .75.7 1.125 2.074 1.125 2.375 0 4.326-.675 5.826-1.975 1.8-1.598 2.7-4.223 2.7-7.924zm11.52-6.524c0-.175-.076-.35-.227-.525-.15-.15-.3-.25-.475-.25-.225 0-.575.05-1.05.15-3.45.8-6.05 1.424-7.775 1.874-.175.05-.274.075-.325.075-.4.074-.574.35-.574.85 0 .45.25.724.75.774.55-.1 1.075-.225 1.575-.375.575-.15 1.275-.3 2.125-.45-.1 1.974-.15 4-.15 6.05 0 2.15.15 3.424.45 3.874.1.15.275.25.575.25.5 0 .775-.55.775-1.625 0-.55-.1-.95-.3-1.226-.05-.65-.075-1.676-.075-3.125 0-1.3.075-2.852.25-4.7.725-.176 1.325-.3 1.8-.4.25.174.425.25.476.25.1 0 .25-.026.45-.126l1.176-.55c.35-.175.55-.45.55-.8z"/></g></svg>