<?xml version="1.0" encoding="utf-8"?>
<!-- Generator: Adobe Illustrator 16.0.0, SVG Export Plug-In . SVG Version: 6.00 Build 0)  -->
<!DOCTYPE svg PUBLIC "-//W3C//DTD SVG 1.0//EN" "http://www.w3.org/TR/2001/REC-SVG-20010904/DTD/svg10.dtd">
<svg version="1.0" id="Layer_1" xmlns:sketch="http://www.bohemiancoding.com/sketch/ns"
	 xmlns="http://www.w3.org/2000/svg" xmlns:xlink="http://www.w3.org/1999/xlink" x="0px" y="0px" width="170px" height="80px"
	 viewBox="0 0 170 80" enable-background="new 0 0 170 80" xml:space="preserve">
<title>Slice 2</title>
<desc>Created with Sketch.</desc>
<g id="Page-1_1_" sketch:type="MSPage">
	<g id="arrow2-_x2B_-всего" transform="translate(-15.000000, -10.000000)" sketch:type="MSLayerGroup">
		
			<g id="arrow2" transform="translate(59.567347, 40.789684) scale(-1, 1) rotate(-8.000000) translate(-59.567347, -40.789684) translate(3.567347, 7.789684)" sketch:type="MSShapeGroup">
			
				<g id="arrow" transform="translate(55.502613, 33.000000) scale(-1, 1) translate(-55.502613, -33.000000) translate(-0.497387, -0.000000)">
				<g id="Page-1" transform="translate(0.000000, -0.314327)">
					
						<g id="Fill-7-_x2B_-Fill-8" transform="translate(56.000000, 33.067352) scale(1, -1) rotate(-10.000000) translate(-56.000000, -33.067352) translate(3.000000, 8.567352)">
						<path id="Fill-7" fill="#FFFFFF" d="M45.4,6.3c-9.6,4.3-17.9,9.2-24.6,14.5c-3.5,2.8-6.7,5.7-8.9,8.7c-0.7,1-2.8,3.7,1.2,3.5
							c0.5,0,2.9-0.8,3.2-1c0.9-0.7-0.5-1,0-1.8c1-1.4,2.2-2.7,3.6-4.1c2.7-2.6,5.8-5.2,9.3-7.6c7.4-5.1,16.1-9.8,26.3-13.7
							c10.6-4,23.3-7.2,35.9-6.9c5,0.1,9.5,0.8,12.7,2.5c1.9,1,3.3,2.3,4,3.7c0.2,0.3,0.3,3.5,0.4,3.5c1.3,0.2,2.5-3,2.6-3.3
							c0.2-1.9-1.3-3.6-3.3-5C94.2-10,60.7-0.5,45.4,6.3L45.4,6.3z"/>
						<path id="Fill-8" fill="#FFFFFF" d="M13.7,32.3c0.6-3.2,0.7-6.5,1.3-9.7c0.2-1,3.1-5.7,2.4-6.1c-2.2-1.4-4.8,2.8-5.2,3.7
							c-1.1,2.6-1.1,5.6-1.3,8.4c-0.1,1.3-0.2,2.5-0.5,3.7c-0.2,1-2,3.3-1.5,4.4c1.4,2.5,4.3-0.9,4.7-1.3c2.5-2,5.4-3.7,8.5-5.1
							c1.8-0.8,3.7-1.6,5.7-2c-0.7,0.2,3.3-1.3,1.2-1.1C23.2,27.7,18.2,29.6,13.7,32.3L13.7,32.3z"/>
					</g>
				</g>
			</g>
		</g>
		<path id="всего" sketch:type="MSShapeGroup" fill="#FFFFFF" d="M86.4,32c0-0.9-0.4-1.5-1.2-1.9c-0.7-0.3-1.8-0.5-3.4-0.6
			c2.4-0.9,3.6-2,3.6-3.4c0-0.8-0.4-1.3-1-1.8c-0.6-0.3-1.3-0.5-2.2-0.5c-0.9,0-2.3,0.1-4.3,0.2c-0.6,0-0.9,0.3-0.9,0.8
			s0.3,0.8,0.8,0.8c0.1,0,0.2,0,0.4,0c0.2-0.1,0.4-0.1,0.4-0.1c-0.1,1.7-0.1,2.7-0.1,3v2.8c0,1.9,0,3,0,3.4c-0.5,0-0.8,0.1-1,0.2
			s-0.3,0.3-0.3,0.6c0,0.4,0.2,0.6,0.7,0.6c0.9,0,1.9-0.2,3.1-0.5c1.8-0.5,2.9-0.9,3.5-1.2C85.7,33.9,86.4,33,86.4,32L86.4,32z
			 M83.8,26.2c0,1-1.3,1.9-3.9,2.7v-1.6c0-0.2,0-0.9,0-1.8c1.2,0,2-0.1,2.2-0.1C83.2,25.3,83.8,25.6,83.8,26.2L83.8,26.2z
			 M84.9,32.1c0,0.9-1.7,1.7-5.1,2.3v-3.8c1.9,0.1,3.2,0.2,3.9,0.4C84.5,31.2,84.9,31.6,84.9,32.1L84.9,32.1z M95.5,32.4
			c0-0.2-0.1-0.4-0.2-0.6c-0.2-0.2-0.3-0.3-0.5-0.3c-0.2,0-0.5,0.2-0.8,0.5c-0.4,0.4-0.7,0.6-0.8,0.8c-0.4,0.4-1,0.5-1.7,0.5
			c-0.5,0-0.9-0.2-1.2-0.6c-0.3-0.4-0.4-1-0.4-1.6c0-1.9,0.9-3.5,2.6-4.7c0.3,0.2,0.8,0.3,1.3,0.3c0.6,0,1-0.3,1.2-1
			c0-0.8-0.5-1.1-1.3-1.1c-0.8,0-1.4,0.2-1.9,0.5c-1,0.6-1.8,1.5-2.4,2.6c-0.6,1.1-1,2.4-1,3.6c0,1,0.3,1.9,1,2.6
			c0.6,0.7,1.4,1,2.4,1c0.9,0,1.8-0.4,2.7-1.1C95.1,33.3,95.5,32.8,95.5,32.4L95.5,32.4z M106.6,34.3c0-0.2-0.1-0.4-0.2-0.6
			c-0.1-0.2-0.3-0.3-0.5-0.3c-0.1,0-0.4,0-0.8,0.1c-0.5,0.1-0.8,0.1-1.1,0.1c-1.1,0-1.9-0.5-2.4-1.6c1.1-0.5,2-1.1,2.8-2
			c0.8-1,1.2-1.9,1.2-2.9c0-0.6-0.2-1.2-0.7-1.7c-0.6-0.7-1.3-1-1.9-1c-1,0-1.9,0.6-2.6,1.9c-0.6,1.1-0.9,2.3-0.9,3.5
			c0,0.4,0,0.8,0.1,1.1c-0.2,0-0.3,0-0.5,0c-0.4,0-0.9-0.1-1.3-0.4c-0.4-0.3-0.7-0.4-0.8-0.4c-0.5,0-0.8,0.3-0.8,0.8
			c0,0.4,0.3,0.8,0.9,1.1c0.5,0.3,1.2,0.5,2.1,0.5c0.2,0,0.5,0,0.7-0.1c0.9,1.9,2.2,2.8,4.2,2.8C105.8,35.3,106.6,35,106.6,34.3
			L106.6,34.3z M104.1,27.3c0,0.7-0.3,1.3-0.9,1.9c-0.6,0.6-1.3,1.1-2.1,1.5c-0.1-0.4-0.1-0.7-0.1-1c0-0.8,0.2-1.6,0.5-2.4
			c0.4-0.8,0.8-1.1,1.3-1.1c0.3,0,0.6,0.1,0.8,0.4C104,26.7,104.1,27,104.1,27.3L104.1,27.3z M116.5,24.4c0-0.2-0.1-0.4-0.2-0.6
			c-0.2-0.1-0.4-0.2-0.6-0.2s-0.5,0.1-1,0.2c-1.7,0.4-3.7,0.5-6,0.6c-0.4,0-0.6,0.3-0.6,0.8s0.4,0.8,1.1,0.8
			c-0.1,1.1-0.2,1.8-0.2,2.1c-0.2,2-0.6,4.2-1,6.6c-0.1,0.5-0.1,0.8-0.1,0.9c0,0.6,0.2,0.9,0.7,0.9c0.6,0,0.9-0.3,1-1
			c0.1-1.4,0.3-3,0.6-4.6c0.1-1,0.4-2.6,0.8-5c1.1-0.1,1.9-0.2,2.2-0.3c0.9-0.1,1.9-0.2,3-0.4C116.3,25.2,116.5,24.9,116.5,24.4
			L116.5,24.4z M125.2,29c0-0.9-0.3-1.8-0.8-2.6c-0.5-0.8-1.2-1.3-2.1-1.7c-0.3-0.1-0.5-0.1-0.6-0.1c-0.1,0-0.2,0-0.3,0
			c-0.2,0.2-0.5,0.5-1,0.7c-0.8,0.4-1.5,1.2-2.1,2.3c-0.5,1-0.8,2-0.8,3c0,1.1,0.3,2.1,0.9,2.9c0.7,0.9,1.5,1.4,2.5,1.4
			c0.6,0,1.3-0.3,2-0.9c0.7-0.5,1.1-1.1,1.4-1.8c0.1-0.4,0.2-0.7,0.3-0.9C125.1,30.8,125.2,30,125.2,29L125.2,29z M123.8,29.4
			c0,0.8-0.3,1.7-0.8,2.6c-0.6,0.9-1.2,1.4-1.8,1.4c-0.6,0-1.1-0.2-1.5-0.8c-0.4-0.5-0.5-1.1-0.5-1.9c0-1,0.2-1.8,0.6-2.6
			c0.5-0.9,1.2-1.3,2-1.4c0.2,0.1,0.6,0.2,1,0.2C123.4,27.4,123.8,28.2,123.8,29.4L123.8,29.4z M85.3,45c0-0.5-0.3-0.8-1-0.9l-6,0.5
			c-0.8,0.1-1.1,0.3-1.1,0.7c0,0.4,0,0.7,0.2,1c-0.2,2.1-0.2,3.5-0.2,4.1C77,52.2,77,53.2,77,53.2c0,0.3,0.1,0.6,0.3,0.9
			c0.2,0.3,0.4,0.4,0.6,0.4c0.3,0,0.5-0.3,0.5-0.9c0.2-2.6,0.3-5.1,0.5-7.5c1.9-0.2,3.4-0.3,4.5-0.4c-0.2,4.8-0.3,7.3-0.3,7.6
			c0,1.5,0.4,2.3,1.1,2.3c0.3,0,0.5-0.2,0.5-0.6c-0.1-0.8-0.2-1.5-0.2-2.1c0-0.9,0-2.2,0.1-4c0-0.3,0-0.7,0.1-1.2
			c0-0.5,0.1-0.7,0.1-0.8c0-0.3,0-0.6-0.1-0.9C85.1,45.8,85.3,45.4,85.3,45L85.3,45z M95.7,48.7c0-0.2-0.1-0.4-0.3-0.6
			c0-0.6-0.1-1.2-0.3-1.7c0-0.2,0.1-0.3,0.1-0.4c0-0.3-0.1-0.5-0.4-0.8c-0.3-0.2-0.5-0.3-0.8-0.3c-1.2,0-2.5,0.8-4.2,2.2
			c-0.5,0.5-0.9,0.9-1.1,1.1c-1,1.3-1.5,2.5-1.5,3.7c0,0.7,0.2,1.4,0.7,1.9c0.5,0.6,1,1,1.7,1c1.3,0,2.6-0.8,4-2.5
			c0.1,0.9,0.2,1.6,0.2,2c0.1,0.8,0.4,1.2,0.9,1.2s0.8-0.2,0.8-0.7c0-0.1-0.1-0.4-0.2-1.2c-0.1-0.4-0.1-0.8-0.1-1.2
			c0-1.2,0.2-2.3,0.6-3.3C95.7,48.9,95.7,48.8,95.7,48.7L95.7,48.7z M94,48c0,1.1-0.5,2.2-1.4,3.4c-1,1.2-1.9,1.8-2.8,1.8
			c-0.7,0-1-0.4-1-1.3c0-0.8,0.5-1.8,1.6-3c0.4-0.5,0.9-1,1.6-1.4c0.7-0.5,1.2-0.8,1.6-0.8C93.8,46.6,94,47.1,94,48L94,48z
			 M106.1,45.7c0-1.1-0.2-2.1-0.8-2.9c-0.5-0.9-1.3-1.3-2.4-1.3c-1.4,0-2.5,1.1-3.4,3.2c-0.6,1.6-0.9,3.3-0.9,5.1v0.6
			c0,0.2,0,0.4,0,0.6c-0.7,0.2-1,0.6-1,1c0,0.5,0.4,0.8,1.1,0.8c0,0.5,0,0.9,0,1.2v1.4c0,1.4-0.1,2.4-0.2,3.1
			c-0.2,0.6-0.2,1-0.2,1.1c0,0.5,0.2,0.8,0.8,0.8c0.4,0,0.7-0.4,0.8-1.2c0.3-1.5,0.5-3.3,0.5-5.2c0-0.5,0-1.1-0.1-1.8
			c1.9-0.7,3.2-1.4,4.1-2.1C105.5,48.9,106.1,47.5,106.1,45.7L106.1,45.7z M104.7,45.3c0,1.5-0.4,2.6-1.2,3.5
			c-0.6,0.6-1.7,1.2-3.2,1.7c0.1-2.9,0.5-5,1.5-6.4c0.4-0.6,0.9-1,1.3-1c0.5,0,0.9,0.2,1.2,0.7C104.5,44.3,104.7,44.8,104.7,45.3
			L104.7,45.3z M116.5,50.4v-2.1c0-1.4-0.3-2.2-0.8-2.2c-0.4,0-0.7,0.4-1,1c-0.5,1.3-1.1,2.4-1.8,3.2c-0.7,0.8-1.4,1.2-2,1.2
			c-0.2,0-0.4-0.1-0.5-0.2c-0.2-0.1-0.2-0.3-0.2-0.5c0-0.5,0.1-1.3,0.2-2.5c0.1-1.1,0.2-2,0.2-2.6c0-0.5-0.1-1-0.2-1.5
			c-0.2-0.5-0.4-0.7-0.8-0.7c-0.6,0-0.8,0.2-0.8,0.6c0,0.1,0,0.3,0.1,0.6c0.1,0.3,0.1,0.5,0.1,0.8c0,0.5-0.1,1.4-0.2,2.5
			c-0.1,1.1-0.2,2-0.2,2.5c0,0.8,0.2,1.4,0.6,1.8c0.4,0.5,0.9,0.7,1.6,0.7c0.8,0,1.6-0.4,2.4-1.3c0.7-0.7,1.2-1.5,1.7-2.5
			c0,1.5-0.1,2.7-0.2,3.6c-0.6,3.6-2.9,5.5-6.9,5.5c-0.2,0-0.7-0.1-1.3-0.1c-0.4,0-0.7,0.3-0.7,0.8c0,0.8,0.7,1.1,2.1,1.1
			c2.4,0,4.3-0.7,5.8-2C115.6,56.7,116.5,54.1,116.5,50.4L116.5,50.4z M136.4,55.8c0-0.2-0.1-0.5-0.2-0.7c-0.2-0.4-0.4-0.5-0.5-0.6
			c-0.5-1.1-0.9-2.7-1.1-4.9c-0.3-2-0.5-3.3-0.6-4c-0.1-0.4-0.3-0.5-0.6-0.5c-0.5,0-1.2,1.8-2.3,5.3c-0.8-1.3-1.4-2.9-1.8-4.7
			l-0.2-0.9c-0.1-0.3-0.3-0.5-0.6-0.5c-0.4,0-0.8,0.6-1.1,1.8c-0.1,0-0.2-0.1-0.2-0.1c-0.4,0-0.5,0.2-0.5,0.7c0,0.1,0,0.2,0,0.4
			c0,0.3,0,0.5,0,0.6c0,0.2-0.1,1-0.2,2.5c-0.1,1.2-0.2,2-0.2,2.4c0,1.6,0.2,2.4,0.7,2.4s0.7-0.5,0.7-1.6c0-2.1,0.2-4.2,0.6-6.4
			c0.5,1.5,1,2.6,1.5,3.6c0.6,1.2,1.2,1.8,1.6,1.8c0.3,0,0.6-0.5,1-1.5l0.9-3.5c0.3,3.5,0.7,5.9,1.1,7.1c0.5,1.5,1,2.2,1.4,2.2
			c0.2,0,0.3-0.1,0.5-0.3C136.3,56.1,136.4,55.9,136.4,55.8L136.4,55.8z M146.2,54.9c0-0.1-0.1-0.3-0.2-0.5c-0.6-0.7-0.9-2.3-0.9-5
			c0-0.9,0-1.8,0.2-2.9l0.2-1.8c0-0.2-0.1-0.4-0.2-0.6c-0.2-0.2-0.4-0.3-0.6-0.3c-0.3,0-1.1,1-2.5,2.8c-1,1.5-2.2,3.2-3.2,5
			c0.2-2.8,0.3-4.6,0.4-5.5c0-0.3-0.1-0.6-0.3-0.9c-0.2-0.2-0.5-0.4-0.8-0.4c-0.1,0-0.3,0.1-0.4,0.2c0,0.6,0.1,1,0.1,1.2
			c0,1.5-0.2,3.5-0.4,6c-0.1,0.6-0.1,0.9-0.1,1.1c0,0.3,0.1,0.5,0.2,0.6c0.3,0.3,0.5,0.5,0.6,0.5c0.2,0,0.6-0.3,1-1.1
			c1.6-2.8,3.1-5.2,4.6-7c-0.1,1.5-0.1,2.7-0.1,3.7c0,1.3,0.1,2.4,0.4,3.4c0.3,1.3,0.8,2,1.4,2c0.1,0,0.2-0.1,0.4-0.2
			C146.1,55.1,146.2,55,146.2,54.9L146.2,54.9z M156,45.1c0-0.5-0.2-0.8-0.7-0.8c-0.3,0-0.6,0.4-0.7,1.2c-0.2,1.4-0.4,2.4-0.4,3
			c-1.4,0.4-2.6,0.6-3.8,0.7c0.2-2,0.5-3.5,1-4.6c0.1-0.2,0.1-0.4,0.1-0.6c0-0.5-0.2-0.8-0.7-0.8c-0.3,0-0.6,0.2-0.7,0.5
			c-0.5,1.3-0.9,3.1-1.1,5.5c-0.6,0-0.9,0-1,0c-0.4,0-0.6,0.2-0.6,0.6c0,0.5,0.3,0.8,0.9,0.8h0.5c-0.1,1.2-0.2,2.4-0.2,3.6
			c0,0.1,0,0.2-0.1,0.4c0,0.1,0,0.2,0,0.3c0,0.2,0.1,0.4,0.2,0.6c0.1,0.1,0.3,0.2,0.6,0.2c0.4,0,0.7-0.3,0.7-0.8
			c0.1-2,0.2-3.5,0.2-4.3c1.3-0.1,2.6-0.4,3.8-0.7c-0.2,1.2-0.2,2.4-0.3,3.5c0,0.1,0,0.2,0,0.4c0,0.1,0,0.2,0,0.3
			c0,0.6,0.1,1,0.2,1.3c0.1,0.3,0.3,0.4,0.5,0.4c0.5,0,0.8-0.3,0.8-0.9c0-0.1,0-0.2,0-0.4s0-0.4,0-0.5c0-1.8,0.2-4.5,0.8-7.9
			C156,45.5,156,45.2,156,45.1L156,45.1z M166.5,50.4v-2.1c0-1.4-0.3-2.2-0.8-2.2c-0.4,0-0.7,0.4-1,1c-0.5,1.3-1.1,2.4-1.8,3.2
			c-0.7,0.8-1.4,1.2-2,1.2c-0.2,0-0.4-0.1-0.5-0.2c-0.2-0.1-0.2-0.3-0.2-0.5c0-0.5,0.1-1.3,0.2-2.5c0.1-1.1,0.2-2,0.2-2.6
			c0-0.5-0.1-1-0.2-1.5c-0.2-0.5-0.4-0.7-0.8-0.7c-0.5,0-0.8,0.2-0.8,0.6c0,0.1,0,0.3,0.1,0.6c0.1,0.3,0.1,0.5,0.1,0.8
			c0,0.5-0.1,1.4-0.2,2.5c-0.2,1.1-0.2,2-0.2,2.5c0,0.8,0.2,1.4,0.6,1.8c0.4,0.5,0.9,0.7,1.6,0.7c0.8,0,1.6-0.4,2.4-1.3
			c0.7-0.7,1.2-1.5,1.7-2.5c0,1.5-0.1,2.7-0.2,3.6c-0.6,3.6-2.9,5.5-6.9,5.5c-0.2,0-0.7-0.1-1.4-0.1c-0.4,0-0.7,0.3-0.7,0.8
			c0,0.8,0.7,1.1,2.1,1.1c2.4,0,4.3-0.7,5.8-2C165.6,56.7,166.5,54.1,166.5,50.4L166.5,50.4z M178,43.9c0-0.2-0.1-0.4-0.2-0.5
			c-0.1-0.1-0.3-0.2-0.5-0.2s-0.6,0-1,0.1c-3.5,0.8-6.1,1.4-7.8,1.9c-0.2,0-0.3,0.1-0.3,0.1c-0.4,0.1-0.6,0.3-0.6,0.8
			s0.2,0.7,0.8,0.8c0.5-0.1,1.1-0.2,1.6-0.4c0.6-0.2,1.3-0.3,2.1-0.5c-0.1,2-0.1,4-0.1,6.1c0,2.2,0.1,3.4,0.5,3.9
			c0.1,0.2,0.3,0.2,0.6,0.2c0.5,0,0.8-0.6,0.8-1.6c0-0.6-0.1-1-0.3-1.2c-0.1-0.7-0.1-1.7-0.1-3.1c0-1.3,0.1-2.9,0.2-4.7
			c0.7-0.2,1.3-0.3,1.8-0.4c0.2,0.2,0.4,0.2,0.5,0.2s0.2,0,0.4-0.1l1.2-0.6C177.8,44.5,178,44.2,178,43.9L178,43.9z"/>
	</g>
</g>
</svg>
