<?xml version="1.0" encoding="utf-8"?>
<!-- Generator: Adobe Illustrator 16.0.0, SVG Export Plug-In . SVG Version: 6.00 Build 0)  -->
<!DOCTYPE svg PUBLIC "-//W3C//DTD SVG 1.1//EN" "http://www.w3.org/Graphics/SVG/1.1/DTD/svg11.dtd">
<svg version="1.1" id="Layer_1" xmlns="http://www.w3.org/2000/svg" xmlns:xlink="http://www.w3.org/1999/xlink" x="0px" y="0px"
	 width="130px" height="130px" viewBox="0 0 130 130" enable-background="new 0 0 130 130" xml:space="preserve">
<g>
	<defs>
		<circle id="SVGID_1_" cx="65" cy="65" r="65"/>
	</defs>
	<clipPath id="SVGID_2_">
		<use xlink:href="#SVGID_1_"  overflow="visible"/>
	</clipPath>
	
		<rect x="-5" y="-5" clip-path="url(#SVGID_2_)" fill-rule="evenodd" clip-rule="evenodd" fill="#FFB728" width="140" height="140"/>
</g>
<g>
	<defs>
		<rect id="SVGID_3_" width="130" height="130"/>
	</defs>
	<clipPath id="SVGID_4_">
		<use xlink:href="#SVGID_3_"  overflow="visible"/>
	</clipPath>
	<image overflow="visible" clip-path="url(#SVGID_4_)" width="130" height="130" xlink:href="8E804C46EB57E7DF.png" >
	</image>
</g>
<g>
	<defs>
		<circle id="SVGID_5_" cx="65" cy="65" r="65"/>
	</defs>
	<clipPath id="SVGID_6_">
		<use xlink:href="#SVGID_5_"  overflow="visible"/>
	</clipPath>
	<path clip-path="url(#SVGID_6_)" fill-rule="evenodd" clip-rule="evenodd" fill="#FF2600" d="M-239,130c35.898,0,65-29.102,65-65
		s-29.102-65-65-65s-65,29.102-65,65S-274.898,130-239,130z M-315-11h152v164h-152V-11z"/>
</g>
<g>
	<defs>
		<rect id="SVGID_7_" x="28" y="23" width="77" height="85"/>
	</defs>
	<clipPath id="SVGID_8_">
		<use xlink:href="#SVGID_7_"  overflow="visible"/>
	</clipPath>
	<g clip-path="url(#SVGID_8_)">
		<image overflow="visible" width="77" height="85" xlink:href="8E804C46EB57E7DD.png"  transform="matrix(1 0 0 1 28 23)">
		</image>
	</g>
</g>
<g>
	<defs>
		<rect id="SVGID_9_" x="16" y="10" width="96" height="111"/>
	</defs>
	<clipPath id="SVGID_10_">
		<use xlink:href="#SVGID_9_"  overflow="visible"/>
	</clipPath>
	<path clip-path="url(#SVGID_10_)" fill-rule="evenodd" clip-rule="evenodd" fill="#808080" d="M-153.318,36.061l1.319,1.319
		c6.213-5.432,14.211-8.873,22.999-9.328V27h-1.992c-1.106,0-2.008-0.895-2.008-1.998v-4.004c0-1.111,0.899-1.998,2.008-1.998h7.983
		c1.106,0,2.008,0.895,2.008,1.998v4.004c0,1.111-0.899,1.998-2.008,1.998H-125v1.052c20.057,1.04,36,17.632,36,37.948
		c0,20.987-17.013,38-38,38s-38-17.013-38-38c0-10.335,4.126-19.707,10.821-26.558l-1.261-1.26l-0.709,0.709
		c-0.779,0.779-2.045,0.78-2.825,0l-1.417-1.417c-0.777-0.778-0.78-2.045,0-2.825l3.54-3.54c0.779-0.779,2.045-0.78,2.825,0
		l1.417,1.417c0.777,0.778,0.78,2.045,0,2.825L-153.318,36.061z"/>
</g>
<g>
	<defs>
		<path id="SVGID_11_" d="M38.682,36.061l1.319,1.319c6.213-5.432,14.211-8.873,22.999-9.328V27h-1.992
			C59.902,27,59,26.105,59,25.002v-4.004C59,19.887,59.899,19,61.008,19h7.983C70.098,19,71,19.895,71,20.998v4.004
			C71,26.113,70.101,27,68.991,27H67v1.052c20.057,1.04,36,17.632,36,37.948c0,20.987-17.014,38-38,38c-20.987,0-38-17.013-38-38
			c0-10.335,4.126-19.707,10.821-26.558l-1.261-1.26l-0.709,0.709c-0.779,0.779-2.045,0.78-2.825,0l-1.417-1.417
			c-0.777-0.778-0.78-2.045,0-2.825l3.54-3.54c0.779-0.779,2.045-0.78,2.825,0l1.417,1.417c0.777,0.778,0.78,2.045,0,2.825
			L38.682,36.061z"/>
	</defs>
	<clipPath id="SVGID_12_">
		<use xlink:href="#SVGID_11_"  overflow="visible"/>
	</clipPath>
	<rect x="22" y="14" clip-path="url(#SVGID_12_)" fill-rule="evenodd" clip-rule="evenodd" fill="#2C3E50" width="86" height="95"/>
</g>
<g>
	<defs>
		<circle id="SVGID_13_" cx="65" cy="66" r="30"/>
	</defs>
	<clipPath id="SVGID_14_">
		<use xlink:href="#SVGID_13_"  overflow="visible"/>
	</clipPath>
	<rect x="30" y="31" clip-path="url(#SVGID_14_)" fill-rule="evenodd" clip-rule="evenodd" fill="#FFFFFF" width="70" height="70"/>
</g>
<g>
	<defs>
		<rect id="SVGID_15_" x="35" y="36" width="60" height="60"/>
	</defs>
	<clipPath id="SVGID_16_">
		<use xlink:href="#SVGID_15_"  overflow="visible"/>
	</clipPath>
	<g clip-path="url(#SVGID_16_)">
		<image overflow="visible" width="60" height="60" xlink:href="8E804C46EB57E7E3.png"  transform="matrix(1 0 0 1 35 36)">
		</image>
	</g>
</g>
<g>
	<defs>
		<circle id="SVGID_17_" cx="65" cy="66" r="30"/>
	</defs>
	<clipPath id="SVGID_18_">
		<use xlink:href="#SVGID_17_"  overflow="visible"/>
	</clipPath>
	<path clip-path="url(#SVGID_18_)" fill-rule="evenodd" clip-rule="evenodd" fill="#FF2600" d="M-95,96c16.568,0,30-13.432,30-30
		s-13.432-30-30-30s-30,13.432-30,30S-111.568,96-95,96z M-135,26h80v90h-80V26z"/>
</g>
<g>
	<defs>
		<circle id="SVGID_19_" cx="65" cy="66" r="30"/>
	</defs>
	<clipPath id="SVGID_20_">
		<use xlink:href="#SVGID_19_"  overflow="visible"/>
	</clipPath>
	<g clip-path="url(#SVGID_20_)" enable-background="new    ">
		<g>
			<defs>
				<rect id="SVGID_21_" x="65" y="36" width="20" height="29"/>
			</defs>
			<clipPath id="SVGID_22_">
				<use xlink:href="#SVGID_21_"  overflow="visible"/>
			</clipPath>
			<g clip-path="url(#SVGID_22_)">
				<defs>
					<path id="SVGID_23_" d="M65,36v27.047c0,0.984,1.08,1.278,1.621,0.44C72.747,53.992,85,35,85,35L65,36z"/>
				</defs>
				<clipPath id="SVGID_24_">
					<use xlink:href="#SVGID_23_"  overflow="visible"/>
				</clipPath>
				<g clip-path="url(#SVGID_24_)">
					<defs>
						<rect id="SVGID_25_" x="35" y="36" width="60" height="60"/>
					</defs>
					<clipPath id="SVGID_26_">
						<use xlink:href="#SVGID_25_"  overflow="visible"/>
					</clipPath>
					
						<rect x="60" y="30" clip-path="url(#SVGID_26_)" fill-rule="evenodd" clip-rule="evenodd" fill="#2ADBA1" width="30" height="38.979"/>
				</g>
			</g>
		</g>
	</g>
</g>
<g>
	<defs>
		<circle id="SVGID_27_" cx="65" cy="66" r="5"/>
	</defs>
	<clipPath id="SVGID_28_">
		<use xlink:href="#SVGID_27_"  overflow="visible"/>
	</clipPath>
	
		<circle clip-path="url(#SVGID_28_)" fill="none" stroke="#2C3E50" stroke-width="6" stroke-miterlimit="10" cx="65" cy="66" r="5"/>
</g>
<g>
	<defs>
		<polygon id="SVGID_29_" points="65.268,61.928 68.732,63.928 75,49.072 		"/>
	</defs>
	<clipPath id="SVGID_30_">
		<use xlink:href="#SVGID_29_"  overflow="visible"/>
	</clipPath>
	
		<rect x="64" y="43" transform="matrix(-0.866 -0.5 0.5 -0.866 104.4896 139.9971)" clip-path="url(#SVGID_30_)" fill-rule="evenodd" clip-rule="evenodd" fill="#2C3E50" width="14.001" height="26"/>
</g>
</svg>
