<svg width="130" height="130" viewBox="0 0 130 130" xmlns="http://www.w3.org/2000/svg"><title>Slice 2</title><desc>Created with Sketch.</desc><defs><filter x="-50%" y="-50%" width="200%" height="200%" filterUnits="objectBoundingBox" id="a"><feOffset dy="6" in="SourceAlpha" result="shadowOffsetInner1"/><feGaussianBlur in="shadowOffsetInner1" result="shadowBlurInner1"/><feComposite in="shadowBlurInner1" in2="SourceAlpha" operator="arithmetic" k2="-1" k3="1" result="shadowInnerInner1"/><feColorMatrix values="0 0 0 0 0.956862745 0 0 0 0 0.57254902 0 0 0 0 0.0431372549 0 0 0 0.21 0" in="shadowInnerInner1" result="shadowMatrixInner1"/><feMerge><feMergeNode in="SourceGraphic"/><feMergeNode in="shadowMatrixInner1"/></feMerge></filter><filter x="-50%" y="-50%" width="200%" height="200%" filterUnits="objectBoundingBox" id="b"><feOffset dx="1" dy="4" in="SourceAlpha" result="shadowOffsetOuter1"/><feGaussianBlur in="shadowOffsetOuter1" result="shadowBlurOuter1"/><feColorMatrix values="0 0 0 0 0.948474702 0 0 0 0 0.644393839 0 0 0 0 0.142660415 0 0 0 0.7 0" in="shadowBlurOuter1" result="shadowMatrixOuter1"/><feMerge><feMergeNode in="shadowMatrixOuter1"/><feMergeNode in="SourceGraphic"/></feMerge></filter><filter x="-50%" y="-50%" width="200%" height="200%" filterUnits="objectBoundingBox" id="c"><feOffset dy="5" in="SourceAlpha" result="shadowOffsetInner1"/><feGaussianBlur in="shadowOffsetInner1" result="shadowBlurInner1"/><feComposite in="shadowBlurInner1" in2="SourceAlpha" operator="arithmetic" k2="-1" k3="1" result="shadowInnerInner1"/><feColorMatrix values="0 0 0 0 0 0 0 0 0 0 0 0 0 0 0 0 0 0 0.049 0" in="shadowInnerInner1" result="shadowMatrixInner1"/><feMerge><feMergeNode in="SourceGraphic"/><feMergeNode in="shadowMatrixInner1"/></feMerge></filter></defs><g fill="none"><circle fill="#FFB727" filter="url(#a)" cx="65" cy="65" r="65"/><path d="M38.682 36.06l1.32 1.32c6.213-5.432 14.21-8.873 22.998-9.328V27h-1.99C59.9 27 59 26.105 59 25.002v-4.004c0-1.11.9-1.998 2.01-1.998h7.98c1.108 0 2.01.895 2.01 1.998v4.004c0 1.11-.9 1.998-2.01 1.998H67v1.052c20.057 1.04 36 17.632 36 37.948 0 20.987-17.013 38-38 38S27 86.987 27 66c0-10.335 4.126-19.707 10.82-26.558l-1.26-1.26-.708.71c-.78.778-2.045.78-2.825 0l-1.418-1.42c-.778-.776-.78-2.044 0-2.824l3.538-3.54c.78-.778 2.045-.78 2.825 0l1.418 1.42c.778.776.78 2.044 0 2.824l-.708.71z" fill="#2C3E50" filter="url(#b)"/><circle fill="#fff" filter="url(#c)" cx="65" cy="66" r="30"/><path d="M65 36v27.047c0 .985 1.08 1.278 1.62.44L85 35l-20 1z" fill="#2ADCA1"/><circle stroke="#2C3E50" stroke-width="3" cx="65" cy="66" r="5"/><path d="M65.268 61.928l3.464 2L75 49.072l-9.732 12.856z" fill="#2C3E50"/></g></svg>