<?xml version="1.0" encoding="UTF-8" standalone="no"?>
<svg width="130px" height="130px" viewBox="0 0 130 130" version="1.1" xmlns="http://www.w3.org/2000/svg" xmlns:xlink="http://www.w3.org/1999/xlink" xmlns:sketch="http://www.bohemiancoding.com/sketch/ns">
    <!-- Generator: Sketch 3.1 (8751) - http://www.bohemiancoding.com/sketch -->
    <title>Slice 2</title>
    <desc>Created with Sketch.</desc>
    <defs>
        <filter x="-50%" y="-50%" width="200%" height="200%" filterUnits="objectBoundingBox" id="filter-1">
            <feOffset dx="0" dy="6" in="SourceAlpha" result="shadowOffsetInner1"></feOffset>
            <feGaussianBlur stdDeviation="0" in="shadowOffsetInner1" result="shadowBlurInner1"></feGaussianBlur>
            <feComposite in="shadowBlurInner1" in2="SourceAlpha" operator="arithmetic" k2="-1" k3="1" result="shadowInnerInner1"></feComposite>
            <feColorMatrix values="0 0 0 0 0.278431373   0 0 0 0 0.556862745   0 0 0 0 0.619607843  0 0 0 0.192179008 0" in="shadowInnerInner1" type="matrix" result="shadowMatrixInner1"></feColorMatrix>
            <feMerge>
                <feMergeNode in="SourceGraphic"></feMergeNode>
                <feMergeNode in="shadowMatrixInner1"></feMergeNode>
            </feMerge>
        </filter>
        <filter x="-50%" y="-50%" width="200%" height="200%" filterUnits="objectBoundingBox" id="filter-2">
            <feOffset dx="3" dy="4" in="SourceAlpha" result="shadowOffsetOuter1"></feOffset>
            <feGaussianBlur stdDeviation="0" in="shadowOffsetOuter1" result="shadowBlurOuter1"></feGaussianBlur>
            <feColorMatrix values="0 0 0 0 0.298877902   0 0 0 0 0.617851751   0 0 0 0 0.690529337  0 0 0 0.7 0" in="shadowBlurOuter1" type="matrix" result="shadowMatrixOuter1"></feColorMatrix>
            <feMerge>
                <feMergeNode in="shadowMatrixOuter1"></feMergeNode>
                <feMergeNode in="SourceGraphic"></feMergeNode>
            </feMerge>
        </filter>
    </defs>
    <g id="Page-1" stroke="none" stroke-width="1" fill="none" fill-rule="evenodd" sketch:type="MSPage">
        <g id="Group" sketch:type="MSLayerGroup">
            <circle id="Oval-47" fill="#62B2C4" filter="url(#filter-1)" sketch:type="MSShapeGroup" cx="65" cy="65" r="65"></circle>
            <rect id="Rectangle-301" stroke="#13447F" stroke-width="5" fill="#FFFFFF" filter="url(#filter-2)" sketch:type="MSShapeGroup" x="35" y="28" width="60" height="74" rx="2"></rect>
            <rect id="Rectangle-302" fill="#FFB728" sketch:type="MSShapeGroup" x="50" y="30" width="30" height="6"></rect>
            <g id="icon_8204" transform="translate(46.000000, 44.000000)" fill="#000000" sketch:type="MSShapeGroup">
                <circle id="Oval" cx="7" cy="4" r="4"></circle>
                <path d="M14,15 L14,13.8648649 C14,11.1891892 12.03125,9 9.625,9 L4.375,9 C1.96875,9 0,11.1891892 0,13.8648649 L0,15 L14,15 L14,15 Z" id="Shape"></path>
            </g>
            <g id="icon_8204" transform="translate(46.000000, 70.000000)" fill="#000000" sketch:type="MSShapeGroup">
                <circle id="Oval" cx="7" cy="4" r="4"></circle>
                <path d="M14,15 L14,13.8648649 C14,11.1891892 12.03125,9 9.625,9 L4.375,9 C1.96875,9 0,11.1891892 0,13.8648649 L0,15 L14,15 L14,15 Z" id="Shape"></path>
            </g>
            <g id="icon_8204" transform="translate(69.000000, 44.000000)" fill="#000000" sketch:type="MSShapeGroup">
                <circle id="Oval" cx="7" cy="4" r="4"></circle>
                <path d="M14,15 L14,13.8648649 C14,11.1891892 12.03125,9 9.625,9 L4.375,9 C1.96875,9 0,11.1891892 0,13.8648649 L0,15 L14,15 L14,15 Z" id="Shape"></path>
            </g>
            <g id="icon_8204" transform="translate(69.000000, 70.000000)" fill="#000000" sketch:type="MSShapeGroup">
                <circle id="Oval" cx="7" cy="4" r="4"></circle>
                <path d="M14,15 L14,13.8648649 C14,11.1891892 12.03125,9 9.625,9 L4.375,9 C1.96875,9 0,11.1891892 0,13.8648649 L0,15 L14,15 L14,15 Z" id="Shape"></path>
            </g>
        </g>
    </g>
</svg>