<svg width="275" height="107" viewBox="0 0 275 107" xmlns="http://www.w3.org/2000/svg"><title>Slice 2</title><desc>Created with Sketch.</desc><g fill="none"><g><path d="M36.89 78.78s-4.853 2.01-11.418 3.315c-7.404 1.47-17.28 1.223-17.28 1.223s11.615 22.055 20.3 23.81c9.342 1.886 8.4-28.348 8.4-28.348z" id="Shape-4" fill-opacity=".5" fill="#D2ADA4"/><path d="M55.8 37.626S48.44 52.992 44.258 62.233c-6.094 13.463-5.632 15.544-5.632 15.544s16.797-9.38 19.785-24.404c2.276-11.45-2.61-15.747-2.61-15.747z" id="Shape-4" fill="#42332F"/><path d="M41.83 8.25c-11.633-3.134-20.668-.5-30.68 12.64-20.326 26.68-3.484 61.576-2.435 61.576 0 0 28.956 8.3 42.213-21.528 10.543-23.716 8.487-47.95-9.1-52.687z" id="Shape-4" fill="#7B6F65"/><path d="M59.973 10.744s-3.293 5.213-6.81 6.963c-2.818 1.4-9.09 2.065-15.11.843-2.785-.565-7.466-1.728-13.617-5.878C18.286 8.52 20.123 0 20.123 0s-4.26 2.602-4.26 7.265c0 3.818 2.462 6.76 2.462 6.76S9.36 24.144 17.372 30.4c6.63 5.18 14.493 2.123 18.172 10.754 0 0 3.8-5.168 14.852-3.77 9.735 1.23 4.82-15.17 4.82-15.17s2.876.168 5.03-3.41c2.102-3.49-.273-8.06-.273-8.06z" id="Shape-4" fill="#ACA497"/><path d="M8.876 23.97S-1.836 36.7.276 56.804c1.268 12.078 3.427 16.363 3.427 16.363s-3.008-9.18 2.16-20.543c3.762-8.27 7.8-11.85 7.8-17.747 0-9.076-4.787-10.91-4.787-10.91zm50.717-11.196s-.664 2.037-2.988 4.108c-1.03.915-2.852 1.97-2.852 1.97l1.32 3.128s3.745-.822 4.52-3.972c.776-3.15 0-5.234 0-5.234zM18.84 8.5c-1.342-2.64-.53-6.148-.53-6.148s-2.98 2.786-2.535 6.25c.49 3.823 2.344 4.9 2.344 4.9l3.134-2.215s-1.324-.65-2.413-2.787z" id="Shape-4" fill="#42332F"/><path d="M33.208 22.852s-.314-.578-3.657-3.158c-2.013-1.553-3.803-2.576-5.168-3.232-.793.373-1.674 1.112-2.417 2.508-2.25 4.22.05 8.446 3.202 9.745 2.445 1.007 5.214.124 6.913-1.464.033-.048.063-.096.09-.144 1.35-2.363 1.038-4.254 1.038-4.254zM50.91 21.165c-1.025.375-2.443.766-4.414 1.127-5.25.956-4.445 4.177-4.127 5.947.09.503.25.975.444 1.413 2.175 2.385 5.904 2.866 8.613.142 3.153-3.168.572-7.212-.518-8.63z" id="Shape-4" fill="#F2962D"/><path d="M47.1 21.593c-.486.11-1.01.22-1.58.324-1.576.29-2.62.782-3.308 1.376-.193.443-.302.933-.302 1.446 0 1.975 1.575 3.576 3.518 3.576 1.942 0 3.516-1.6 3.516-3.577 0-1.36-.747-2.54-1.843-3.147zm-16.48-1.268c-.287-.23-.6-.474-.952-.745-1-.772-1.946-1.41-2.81-1.943-1.776.18-3.162 1.706-3.162 3.558 0 1.976 1.575 3.577 3.517 3.577s3.518-1.6 3.518-3.577c0-.3-.04-.59-.11-.87zm3.606 9.626c.857 3.013 1.843 6.753 1.843 6.753 3.01-4.35 3.342-5.133 3.342-7.573 0-2.365-1.814-4.223-1.814-4.223s-3.62 4.168-3.372 5.044zm-3.51 27.568c-1.048 1.878-.94 2.93-.193 3.213.956.365 1.837-1.327 2.286-3.15 1.14-4.624.837-7.8.837-7.8-.603 2.813-1.256 4.74-2.93 7.738zm13.294-5.93c-.62 1.36-.478 2.09.065 2.257.697.215 1.212-1.005 1.415-2.3.513-3.28.1-5.49.1-5.49-.248 1.992-.587 3.368-1.58 5.534zm-24.982-1.66c.62.386 1.42-.666 1.936-1.866 1.307-3.046 1.456-5.29 1.456-5.29-.734 1.866-1.402 3.112-2.897 4.955-.937 1.154-.98 1.9-.495 2.2z" id="Shape-4" fill="#212629"/><path d="M22.742 75.675c-4.067 0-7.967-.893-11.594-2.52-4.015-7.13-6.37-15.787-6.37-25.123 0-13.636 5.023-25.825 12.912-33.922-2.295 1.96-4.627 4.403-7.06 7.385-21.8 26.72-3.486 61.58-2.437 61.58 0 0 3.62 1.034 8.885 1.055l.39.003c9.635 0 24.632-3.423 33.153-22.588 2.622-5.898 4.463-11.828 5.482-17.48-4.25 18.272-17.577 31.61-33.36 31.61zM47.514 21.556c-7.136.693-5.554 5.783-5.554 5.783s-.146-2.286 3.313-2.702c2.308-.277 5.643-1.14 6.764-2.574.965-1.237 1.182-2.428 1.182-2.428s-3.133 1.672-5.706 1.92zm-16.568-1.954c-4.108-2.78-4.73-2.842-6.707-4.43-1.584-1.274-2.006-2.238-2.006-2.238s0 3.743 4.038 6.584c2.19 1.54 4.578 2.15 5.587 3.122 2.213 2.13 1.984 3.496 1.984 3.496s.32-.396.477-1.243c.16-.846.195-2.118.195-2.118s-1.342-1.668-3.57-3.173z" fill="#1F1E20"/><path d="M46.984 24.135c-1.24 0-2.24 1.02-2.24 2.28 0 1.257 1 2.277 2.24 2.277 1.237 0 2.242-1.02 2.242-2.278 0-1.26-1.005-2.28-2.242-2.28zm-18.575-2.97c-1.24 0-2.242 1.02-2.242 2.277 0 1.26 1.002 2.28 2.24 2.28 1.24 0 2.242-1.02 2.242-2.28 0-1.258-1.003-2.278-2.24-2.278z" fill-opacity=".4" fill="#fff"/></g><path d="M78.26 6.63c-1.474 3.62-3.244 8.51-4.372 12.13h2.395c.278-.922.59-1.95.937-3.027h5.293c.4 1.112.816 2.158 1.163 3.027h2.535c-1.353-3.237-3.124-8.232-4.356-12.13H78.26zm-.433 7.135c.625-1.828 1.268-3.62 1.875-5.186h.468c.47 1.565 1.06 3.393 1.684 5.185h-4.027zm16.91-2.244c.71 0 1.49.175 2.047.383l.486-1.844c-.66-.245-1.84-.42-2.69-.42-2.673 0-4.374 1.028-4.374 4.65 0 3.635 1.684 4.715 4.374 4.715.833 0 1.996-.173 2.69-.453l-.486-1.845c-.556.226-1.302.418-2.048.418-1.562 0-2.31-.453-2.31-2.802 0-2.454.748-2.802 2.31-2.802zm11.46 0c.71 0 1.492.175 2.048.383l.486-1.844c-.657-.245-1.838-.42-2.69-.42-2.672 0-4.373 1.028-4.373 4.65 0 3.635 1.683 4.715 4.374 4.715.833 0 1.998-.173 2.69-.453l-.485-1.845c-.556.226-1.302.418-2.048.418-1.562 0-2.31-.453-2.31-2.802.002-2.454.75-2.802 2.31-2.802zm11.16-1.88c-2.796 0-4.2 1.027-4.2 4.647 0 3.637 1.388 4.717 4.2 4.717 2.845 0 4.234-1.08 4.234-4.717 0-3.62-1.406-4.648-4.234-4.648zm0 7.606c-1.512 0-1.98-.47-1.98-2.923 0-2.54.468-2.923 1.98-2.923 1.544 0 2.012.383 2.012 2.923 0 2.454-.47 2.923-2.014 2.923zm17.41-7.344h-2.15v6.98h-3.472V9.9h-2.152v8.858h7.515v2.454h1.735l.503-4.334h-1.977V9.902h-.002zm9.018 5.64V9.9h-2.152v8.858h2.152c1.232-1.6 2.534-3.498 3.593-5.412v5.412h2.152V9.902h-2.152c-1.06 1.896-2.396 4.126-3.593 5.64zm14.985-5.903c-1.268 0-2.604.226-3.524.47l.4 1.775c.728-.26 1.7-.4 2.672-.4 1.84 0 2.204.348 2.204 1.897-.747-.158-1.44-.245-2.188-.245-2.065 0-3.47.4-3.47 2.908 0 2.314.937 2.96 3.73 2.96 1.234 0 2.882-.262 3.993-.7v-5.218c0-2.646-1.196-3.448-3.817-3.448zm1.753 7.414c-.503.174-1.146.298-1.77.298-1.302 0-1.632-.192-1.632-1.394 0-1.132.435-1.27 1.65-1.27.642 0 1.267.05 1.753.157v2.21zm15.497-7.152h-2.152v6.98h-3.47V9.9h-2.153v8.858h7.514v2.454h1.734l.504-4.334h-1.978V9.902zm9.02 5.64V9.9h-2.153v8.858h2.152c1.23-1.6 2.533-3.498 3.59-5.412v5.412h2.153V9.902h-2.152c-1.058 1.896-2.395 4.126-3.59 5.64zm14.207-5.64c-2.116 0-2.794 1.165-2.794 2.593 0 1.253.625 2.367 2.517 2.437-1.232.173-1.892.764-3.142 3.828h2.465c.988-2.68 1.562-3.15 2.707-3.15h1.337v3.15h2.152V9.902h-5.243zm3.09 4.002h-2.465c-.71 0-1.094-.348-1.094-1.15 0-.835.365-1.112 1.042-1.112h2.517v2.262z" fill="#478E9E"/><path d="M80.677 27.786c-2.307 0-5.237.47-6.95 1.187v21.584h3.864v-6.862c.874.438 1.996.906 3.804.906 4.24 0 6.89-1.936 6.89-8.406-.002-6.502-2.37-8.408-7.607-8.408zm.03 13.535c-1.713 0-3.116-.593-3.116-1.53V31.6c.81-.314 2.027-.47 3.087-.47 2.743 0 3.647.782 3.647 5.158 0 3.938-.904 5.033-3.616 5.033zm19.175-13.534c-4.613 0-7.387 1.97-7.387 8.346 0 6.533 3.117 8.96 7.7 8.96 1.62 0 3.957-.342 5.548-.875l-.624-3.063c-1.247.374-3.336.656-4.458.656-2.775 0-4.083-1.178-4.115-4.583h10.256c.28-7.722-1.902-9.44-6.92-9.44zm-3.303 6.47c.248-2.625 1.09-3.407 3.52-3.407 2.214 0 3.024.594 3.15 3.406h-6.67zm14.703 10.398h3.865V31.63h6.235v13.023h3.865V28.255h-13.964v16.4zm26.038-16.868c-4.612 0-7.387 1.97-7.387 8.346 0 6.533 3.118 8.96 7.7 8.96 1.62 0 3.96-.342 5.548-.875l-.624-3.063c-1.246.374-3.335.656-4.456.656-2.774 0-4.084-1.178-4.115-4.583h10.255c.28-7.722-1.9-9.44-6.92-9.44zm-3.304 6.47c.25-2.625 1.09-3.407 3.523-3.407 2.21 0 3.02.594 3.146 3.406h-6.67zm13.46-2.626h5.457v13.023h3.865V31.63h5.486v-3.375h-14.807v3.375zm22.476 6.752V28.255h-3.865v16.398h3.865c2.213-2.875 4.55-6.773 6.453-10.21v10.21h3.865V28.255h-3.865c-1.902 3.408-4.302 7.408-6.453 10.127zm14.12-6.752h5.457v13.023h3.864V31.63h5.486v-3.375h-14.806v3.375zm25.643-3.844c-5.018 0-7.543 1.844-7.543 8.346 0 6.533 2.494 8.96 7.543 8.96 5.113 0 7.606-2.427 7.606-8.96 0-6.502-2.523-8.346-7.605-8.346zm0 14.15c-2.71 0-3.553-1.335-3.553-5.742 0-4.564.842-5.252 3.553-5.252 2.775 0 3.616.688 3.616 5.252.002 4.407-.84 5.74-3.615 5.74zm19.23-14.15c-2.308 0-5.238.47-6.952 1.187v21.584h3.865v-6.862c.873.438 1.995.906 3.803.906 4.24 0 6.89-1.936 6.89-8.406 0-6.502-2.37-8.408-7.606-8.408zm.03 13.535c-1.715 0-3.118-.593-3.118-1.53V31.6c.81-.314 2.027-.47 3.086-.47 2.743 0 3.647.782 3.647 5.158 0 3.938-.904 5.033-3.616 5.033zm19.33-13.534c-5.018 0-7.543 1.844-7.543 8.346 0 6.533 2.494 8.96 7.543 8.96 5.113 0 7.606-2.427 7.606-8.96 0-6.502-2.525-8.346-7.605-8.346zm0 14.15c-2.71 0-3.553-1.335-3.553-5.742 0-4.564.842-5.252 3.553-5.252 2.775 0 3.616.688 3.616 5.252 0 4.407-.84 5.74-3.615 5.74zm22.702-6.21c3.024-.22 3.616-1.564 3.616-3.657 0-2.345-.84-3.814-4.426-3.814h-9.57v16.398h9.696c2.898 0 4.675-1.218 4.675-4.343 0-2.376-.81-4.49-3.99-4.584zm-6.514-4.47h4.582c1.122 0 1.527.343 1.527 1.562 0 1.095-.405 1.625-1.527 1.625h-4.582v-3.187zm4.738 10.398h-4.737v-4.366h4.644c1.216 0 1.808 1.114 1.808 2.552 0 1.314-.498 1.814-1.714 1.814z" fill="#3F3F3F"/></g></svg>