<?xml version="1.0" encoding="UTF-8" standalone="no"?>
<svg width="19px" height="19px" viewBox="0 0 19 19" version="1.1" xmlns="http://www.w3.org/2000/svg" xmlns:xlink="http://www.w3.org/1999/xlink" xmlns:sketch="http://www.bohemiancoding.com/sketch/ns">
    <!-- Generator: Sketch 3.1.1 (8761) - http://www.bohemiancoding.com/sketch -->
    <title>icon_52961</title>
    <desc>Created with Sketch.</desc>
    <defs></defs>
    <g id="Page-1" stroke="none" stroke-width="1" fill="none" fill-rule="evenodd" sketch:type="MSPage">
        <g id="icon_52961" sketch:type="MSLayerGroup" fill="#95CEB4">
            <path d="M0,9.5 C0,14.7355556 4.26444444,19 9.5,19 C14.7355556,19 19,14.7355556 19,9.5 C19,4.26444444 14.7355556,0 9.5,0 C4.26444444,0 0,4.26444444 0,9.5 Z M10.976378,15 L8,15 L8,8 L11,8 L11,15 L10.976378,15 Z M9.46697182,7 C8.57825983,7 7.97837923,6.33858268 8.00059703,5.51181102 C7.97837923,4.63779528 8.57825983,4 9.48918962,4 C10.4001194,4 10.9777822,4.66141732 11,5.51181102 C11,6.31496063 10.4001194,7 9.46697182,7 L9.46697182,7 Z" id="Information" sketch:type="MSShapeGroup"></path>
        </g>
    </g>
</svg>