<?xml version="1.0" encoding="UTF-8" standalone="no"?>
<svg width="19px" height="18px" viewBox="0 0 19 18" version="1.1" xmlns="http://www.w3.org/2000/svg" xmlns:xlink="http://www.w3.org/1999/xlink" xmlns:sketch="http://www.bohemiancoding.com/sketch/ns">
    <!-- Generator: Sketch 3.1.1 (8761) - http://www.bohemiancoding.com/sketch -->
    <title>Shape 2</title>
    <desc>Created with Sketch.</desc>
    <defs></defs>
    <g id="Page-1" stroke="none" stroke-width="1" fill="none" fill-rule="evenodd" sketch:type="MSPage">
        <g id="4" sketch:type="MSArtboardGroup" transform="translate(-542.000000, -444.000000)" fill="#478E9E">
            <g id="form_with_states" sketch:type="MSLayerGroup" transform="translate(190.000000, 191.000000)">
                <g id="Rectangle-1-+-Населенный-пункт" transform="translate(240.000000, 60.000000)" sketch:type="MSShapeGroup">
                    <g id="Отправить-повторно-+-Shape-2" transform="translate(113.000000, 191.000000)">
                        <path d="M1.94376119,16.316 L0.901385331,16.2537759 C0.428705331,16.230068 0.0712253308,16.5721922 0.0449453308,17.0251968 C0.0193853308,17.4782013 0.360305331,17.8673767 0.806345331,17.8929084 L3.88182533,18.0745479 C3.89766533,18.0767363 3.91350533,18.0767363 3.92934533,18.0767363 C4.13490533,18.0767363 4.33434533,17.9953997 4.48518533,17.8524225 C4.64754533,17.698503 4.73934533,17.4803897 4.73934533,17.2560759 L4.73934533,14.137931 C4.73934533,13.6849264 4.37646533,13.3172706 3.92934533,13.3172706 C3.48222533,13.3172706 3.11934533,13.6849264 3.11934533,14.137931 L3.11934533,15.1868479 C0.888296955,12.4722672 1.02887652,8.41963708 3.54108402,5.87333337 C4.83096402,4.56757144 6.54384402,3.84940238 8.36616402,3.84940238 L8.38920402,3.84940238 L8.39136402,3.84940238 C8.83740402,3.84940238 9.20028402,3.48393494 9.20136402,3.03093038 C9.20244402,2.56917211 8.86728402,2.22522421 8.36616402,2.20808152 C6.11112402,2.20808152 3.99252402,3.09694795 2.39556402,4.71273715 C-0.731517654,7.88062805 -0.889004013,12.937536 1.94376119,16.316 Z M14.5774253,7.60014376 C15.2447877,8.6840575 15.6016253,9.93730623 15.6016253,11.2462884 C15.6016253,13.0947804 14.8917053,14.8302037 13.6018253,16.1359656 C12.3544253,17.4012416 10.6941053,18.1194107 8.92758533,18.1598966 C8.48046533,18.170474 8.12622533,18.5446951 8.13558533,18.9976997 C8.14494533,19.444139 8.50566533,19.8012174 8.94558533,19.8012174 C8.95062533,19.8012174 8.95710533,19.8012174 8.96358533,19.8015822 C11.1498653,19.7523425 13.2043853,18.8634761 14.7473453,17.2969265 C16.3432253,15.6811373 17.2216253,13.5335602 17.2216253,11.2466531 C17.2216253,9.46733883 16.6886462,7.77098136 15.6891754,6.33434242 L16.7953853,6.39928552 C17.2698653,6.43138246 17.6255453,6.08086927 17.6518253,5.62786471 C17.6773853,5.17486016 17.3364653,4.78787317 16.8904253,4.76015309 L13.8149453,4.57851358 C13.8043224,4.57808163 13.7936741,4.57785838 13.7830092,4.57784279 C13.6539102,4.57607551 13.5246892,4.60537573 13.4070195,4.66528006 C13.336008,4.70026036 13.2697332,4.74551404 13.2115853,4.800639 C13.0492253,4.95674685 12.9574253,5.17267173 12.9574253,5.39917401 L12.9574253,8.51513047 C12.9574253,8.96813503 13.3203053,9.3357909 13.7674253,9.3357909 C14.2145453,9.3357909 14.5774253,8.96813503 14.5774253,8.51513047 L14.5774253,7.60014376 L14.5774253,7.60014376 Z" id="Shape-2"></path>
                    </g>
                </g>
            </g>
        </g>
    </g>
</svg>