<?xml version="1.0" encoding="UTF-8" standalone="no"?>
<svg width="36px" height="36px" viewBox="0 0 36 36" version="1.1" xmlns="http://www.w3.org/2000/svg" xmlns:xlink="http://www.w3.org/1999/xlink" xmlns:sketch="http://www.bohemiancoding.com/sketch/ns">
    <!-- Generator: Sketch 3.1.1 (8761) - http://www.bohemiancoding.com/sketch -->
    <title>Slice 2</title>
    <desc>Created with Sketch.</desc>
    <defs></defs>
    <g id="Page-1" stroke="none" stroke-width="1" fill="none" fill-rule="evenodd" sketch:type="MSPage">
        <g id="Rectangle-173" sketch:type="MSLayerGroup">
            <rect fill="#3B5998" sketch:type="MSShapeGroup" x="0" y="0" width="36" height="36" rx="4"></rect>
            <path d="M15.1423225,15.9445833 L15.1423225,13.83525 C15.1423225,12.90425 15.1653521,11.46925 15.8320571,10.58025 C16.5350337,9.63933333 17.4993955,9 19.1586735,9 C21.8617652,9 23,9.39025 23,9.39025 L22.4639876,12.6073333 C22.4639876,12.6073333 21.5715931,12.3448333 20.7384996,12.3448333 C19.9048304,12.3448333 19.1586735,12.6475833 19.1586735,13.4916667 L19.1586735,15.9445833 L22.5756808,15.9445833 L22.3373251,19.0864167 L19.1586735,19.0864167 L19.1586735,28 L15.1423225,28 L15.1423225,19.0864167 L13,19.0864167 L13,15.9445833 L15.1423225,15.9445833 Z" id="Fill-4" fill="#FFFFFF" sketch:type="MSShapeGroup"></path>
        </g>
    </g>
</svg>