<?xml version="1.0" encoding="UTF-8" standalone="no"?>
<svg width="235px" height="92px" viewBox="0 0 235 92" version="1.1" xmlns="http://www.w3.org/2000/svg" xmlns:xlink="http://www.w3.org/1999/xlink" xmlns:sketch="http://www.bohemiancoding.com/sketch/ns">
    <!-- Generator: Sketch 3.1.1 (8761) - http://www.bohemiancoding.com/sketch -->
    <title>Slice 2</title>
    <desc>Created with Sketch.</desc>
    <defs></defs>
    <g id="Page-1" stroke="none" stroke-width="1" fill="none" fill-rule="evenodd" sketch:type="MSPage">
        <g id="logo-2" sketch:type="MSLayerGroup">
            <g id="Rectangle_2" sketch:type="MSShapeGroup">
                <path d="M31.525,67 C31.525,67 27.377,68.708 21.767,69.819 C15.44,71.07 7,70.859 7,70.859 C7,70.859 16.926,89.616 24.347,91.108 C32.331,92.713 31.525,67 31.525,67 L31.525,67 Z" id="Shape-4" fill="#42332F"></path>
                <path d="M47.6848523,32 C47.6848523,32 41.3928523,45.068 37.8198523,52.927 C32.6118523,64.377 33.0068523,66.147 33.0068523,66.147 C33.0068523,66.147 47.3608523,58.169 49.9138523,45.392 C51.8588523,35.654 47.6848523,32 47.6848523,32 L47.6848523,32 Z" id="Shape-4" fill="#42332F"></path>
                <path d="M35.7446406,7.01701567 C25.8046406,4.35101567 18.0836406,6.59001567 9.52864058,17.7650157 C-7.84135942,40.4560157 6.55064058,70.1350157 7.44764058,70.1350157 C7.44764058,70.1350157 32.1916406,77.1930157 43.5206406,51.8260157 C52.5296406,31.6560157 50.7726406,11.0450157 35.7446406,7.01701567 L35.7446406,7.01701567 Z" id="Shape-4" fill="#7B6F65"></path>
                <path d="M51.2498506,9.13742732 C51.2498506,9.13742732 48.4358506,13.5711247 45.4308506,15.0592824 C43.0218506,16.24961 37.6628506,16.8154872 32.5168506,15.7760601 C30.1378506,15.2955609 26.1378506,14.306765 20.8818506,10.7774784 C15.6258506,7.24620621 17.1958506,0 17.1958506,0 C17.1958506,0 13.5548506,2.21287761 13.5548506,6.1789817 C13.5548506,9.42532974 15.6598506,11.9271025 15.6598506,11.9271025 C15.6598506,11.9271025 7.99885056,20.5353851 14.8448506,25.8546305 C20.5098506,30.2585449 27.2298506,27.6594809 30.3738506,35 C30.3738506,35 33.6208506,30.6050206 43.0658506,31.7933626 C51.3848506,32.8407318 47.1838506,18.8923557 47.1838506,18.8923557 C47.1838506,18.8923557 49.6418506,19.0353141 51.4838506,15.9924833 C53.2788506,13.0241101 51.2498506,9.13742732 51.2498506,9.13742732 L51.2498506,9.13742732 Z" id="Shape-4" fill="#ACA497"></path>
                <path d="M7.58471049,20.385 C7.58471049,20.385 -1.56928951,31.214 0.235710491,48.311 C1.31971049,58.583 3.16471049,62.227 3.16471049,62.227 C3.16471049,62.227 0.593710491,54.42 5.00971049,44.756 C8.22471049,37.722 11.6767105,34.679 11.6767105,29.663 C11.6757105,21.944 7.58471049,20.385 7.58471049,20.385 L7.58471049,20.385 Z M50.9247105,10.864 C50.9247105,10.864 50.3577105,12.596 48.3717105,14.358 C47.4917105,15.136 45.9347105,16.033 45.9347105,16.033 L47.0627105,18.693 C47.0627105,18.693 50.2627105,17.994 50.9237105,15.315 C51.5877105,12.635 50.9247105,10.864 50.9247105,10.864 L50.9247105,10.864 Z M16.1007105,7.229 C14.9527105,4.984 15.6467105,2 15.6467105,2 C15.6467105,2 13.0997105,4.37 13.4807105,7.316 C13.8997105,10.567 15.4837105,11.482 15.4837105,11.482 L18.1627105,9.599 C18.1627105,9.599 17.0307105,9.046 16.1007105,7.229 L16.1007105,7.229 Z" id="Shape-4" fill="#42332F"></path>
                <path d="M28.3777629,19.435 C28.3777629,19.435 28.1097629,18.943 25.2527629,16.749 C23.5317629,15.428 22.0017629,14.558 20.8357629,14 C20.1577629,14.318 19.4047629,14.946 18.7697629,16.133 C16.8477629,19.722 18.8117629,23.316 21.5067629,24.421 C23.5957629,25.278 25.9617629,24.527 27.4137629,23.176 C27.4417629,23.134 27.4677629,23.094 27.4917629,23.053 C28.6447629,21.043 28.3777629,19.435 28.3777629,19.435 L28.3777629,19.435 Z" id="Shape-4" fill="#F2962D"></path>
                <path d="M43.5043624,18 C42.6293624,18.319 41.4173624,18.652 39.7333624,18.959 C35.2463624,19.772 35.9343624,22.511 36.2063624,24.016 C36.2833624,24.445 36.4203624,24.846 36.5863624,25.219 C38.4453624,27.247 41.6313624,27.656 43.9463624,25.34 C46.6413624,22.645 44.4353624,19.206 43.5043624,18 L43.5043624,18 Z" id="Shape-4" fill="#F2962D"></path>
                <path d="M40.2499351,18.364 C39.8339351,18.458 39.3869351,18.551 38.8989351,18.64 C37.5519351,18.887 36.6589351,19.305 36.0719351,19.81 C35.9069351,20.187 35.8139351,20.603 35.8139351,21.04 C35.8139351,22.72 37.1599351,24.082 38.8199351,24.082 C40.4799351,24.082 41.8249351,22.72 41.8249351,21.04 C41.8249351,19.884 41.1869351,18.88 40.2499351,18.364 L40.2499351,18.364 Z M26.1669351,17.286 C25.9209351,17.091 25.6539351,16.883 25.3529351,16.652 C24.4989351,15.996 23.6899351,15.452 22.9509351,15 C21.4339351,15.154 20.2489351,16.451 20.2489351,18.026 C20.2489351,19.706 21.5949351,21.068 23.2549351,21.068 C24.9139351,21.068 26.2609351,19.706 26.2609351,18.026 C26.2609351,17.77 26.2249351,17.523 26.1669351,17.286 L26.1669351,17.286 Z M29.2479351,25.472 C29.9799351,28.034 30.8229351,31.215 30.8229351,31.215 C33.3949351,27.514 33.6789351,26.849 33.6789351,24.774 C33.6789351,22.763 32.1289351,21.183 32.1289351,21.183 C32.1289351,21.183 29.0349351,24.727 29.2479351,25.472 L29.2479351,25.472 Z M26.2489351,48.917 C25.3529351,50.514 25.4459351,51.409 26.0829351,51.65 C26.8999351,51.959 27.6529351,50.52 28.0369351,48.971 C29.0109351,45.037 28.7529351,42.335 28.7529351,42.335 C28.2379351,44.729 27.6799351,46.368 26.2489351,48.917 L26.2489351,48.917 Z M37.6089351,43.875 C37.0789351,45.03 37.1999351,45.652 37.6639351,45.793 C38.2599351,45.976 38.6999351,44.939 38.8729351,43.837 C39.3119351,41.047 38.9599351,39.168 38.9599351,39.168 C38.7469351,40.862 38.4569351,42.033 37.6089351,43.875 L37.6089351,43.875 Z M16.2599351,42.462 C16.7909351,42.79 17.4749351,41.896 17.9149351,40.875 C19.0319351,38.285 19.1589351,36.377 19.1589351,36.377 C18.5319351,37.963 17.9609351,39.023 16.6829351,40.59 C15.8829351,41.572 15.8469351,42.207 16.2599351,42.462 L16.2599351,42.462 Z" id="Shape-4" fill="#212629"></path>
                <path d="M19.4337025,64.359 C15.9587025,64.359 12.6257025,63.6 9.52670255,62.216 C6.09570255,56.152 4.08370255,48.79 4.08370255,40.85 C4.08370255,29.253 8.37570255,18.886 15.1167025,12 C13.1557025,13.668 11.1627025,15.745 9.08270255,18.281 C-9.54529745,41.005 6.10470255,70.652 7.00170255,70.652 C7.00170255,70.652 10.0957025,71.532 14.5937025,71.55 C14.7037025,71.551 14.8157025,71.552 14.9267025,71.552 C23.1607025,71.552 35.9767025,68.641 43.2577025,52.342 C45.4977025,47.326 47.0707025,42.283 47.9417025,37.476 C44.3097025,53.016 32.9217025,64.359 19.4337025,64.359 L19.4337025,64.359 Z" id="Shape-4" fill="#1F1E20"></path>
                <path d="M40.603,18.333 C34.505,18.922 35.857,23.251 35.857,23.251 C35.857,23.251 35.732,21.308 38.688,20.954 C40.66,20.718 43.51,19.984 44.468,18.765 C45.293,17.713 45.478,16.7 45.478,16.7 C45.478,16.7 42.802,18.122 40.603,18.333 L40.603,18.333 Z M26.445,16.671 C22.934,14.306 22.403,14.254 20.713,12.903 C19.361,11.82 19,11 19,11 C19,11 19,14.183 22.451,16.599 C24.321,17.909 26.363,18.428 27.225,19.255 C29.117,21.067 28.921,22.228 28.921,22.228 C28.921,22.228 29.194,21.891 29.329,21.171 C29.464,20.451 29.495,19.369 29.495,19.369 C29.495,19.369 28.348,17.951 26.445,16.671 L26.445,16.671 Z" id="Shape-4" fill="#1F1E20"></path>
                <path d="M40.15,20.526 C39.091,20.526 38.235,21.394 38.235,22.464 C38.235,23.534 39.091,24.402 40.15,24.402 C41.207,24.402 42.066,23.535 42.066,22.464 C42.066,21.393 41.207,20.526 40.15,20.526 L40.15,20.526 Z M24.277,17.999 C23.219,17.999 22.362,18.867 22.362,19.937 C22.362,21.008 23.218,21.875 24.277,21.875 C25.335,21.875 26.192,21.008 26.192,19.937 C26.192,18.867 25.335,17.999 24.277,17.999 L24.277,17.999 Z" id="Shape-5" fill-opacity="0.400000006" fill="#FFFFFF"></path>
            </g>
            <path d="M66.878,5.639 C65.617,8.717 64.105,12.876 63.141,15.955 L65.187,15.955 C65.425,15.171 65.691,14.297 65.988,13.38 L70.511,13.38 C70.852,14.326 71.208,15.216 71.505,15.955 L73.671,15.955 C72.514,13.202 71.001,8.954 69.948,5.639 L66.878,5.639 L66.878,5.639 Z M66.507,11.707 C67.041,10.152 67.59,8.628 68.109,7.296 L68.509,7.296 C68.91,8.628 69.414,10.183 69.948,11.707 L66.507,11.707 L66.507,11.707 Z M80.956,9.798 C81.564,9.798 82.231,9.946 82.706,10.123 L83.122,8.555 C82.558,8.347 81.55,8.199 80.823,8.199 C78.539,8.199 77.085,9.073 77.085,12.152 C77.085,15.245 78.524,16.163 80.823,16.163 C81.535,16.163 82.529,16.016 83.122,15.778 L82.706,14.209 C82.231,14.401 81.594,14.564 80.956,14.564 C79.621,14.564 78.983,14.179 78.983,12.181 C78.983,10.094 79.621,9.798 80.956,9.798 L80.956,9.798 Z M90.75,9.798 C91.358,9.798 92.025,9.946 92.5,10.123 L92.916,8.555 C92.353,8.347 91.344,8.199 90.617,8.199 C88.333,8.199 86.879,9.073 86.879,12.152 C86.879,15.245 88.317,16.163 90.617,16.163 C91.328,16.163 92.323,16.016 92.916,15.778 L92.5,14.209 C92.025,14.401 91.388,14.564 90.75,14.564 C89.415,14.564 88.777,14.179 88.777,12.181 C88.778,10.094 89.416,9.798 90.75,9.798 L90.75,9.798 Z M100.286,8.198 C97.898,8.198 96.697,9.072 96.697,12.151 C96.697,15.244 97.884,16.162 100.286,16.162 C102.718,16.162 103.905,15.244 103.905,12.151 C103.904,9.072 102.703,8.198 100.286,8.198 L100.286,8.198 Z M100.286,14.667 C98.995,14.667 98.595,14.268 98.595,12.181 C98.595,10.021 98.995,9.695 100.286,9.695 C101.606,9.695 102.006,10.021 102.006,12.181 C102.006,14.268 101.605,14.667 100.286,14.667 L100.286,14.667 Z M115.165,8.421 L113.326,8.421 L113.326,14.357 L110.36,14.357 L110.36,8.421 L108.521,8.421 L108.521,15.955 L114.943,15.955 L114.943,18.042 L116.426,18.042 L116.856,14.356 L115.166,14.356 L115.166,8.421 L115.165,8.421 Z M122.871,13.217 L122.871,8.421 L121.032,8.421 L121.032,15.955 L122.871,15.955 C123.924,14.594 125.036,12.98 125.941,11.352 L125.941,15.955 L127.78,15.955 L127.78,8.421 L125.941,8.421 C125.036,10.034 123.894,11.93 122.871,13.217 L122.871,13.217 Z M135.676,8.198 C134.593,8.198 133.451,8.391 132.665,8.598 L133.006,10.108 C133.629,9.886 134.46,9.768 135.29,9.768 C136.862,9.768 137.173,10.064 137.173,11.381 C136.535,11.247 135.943,11.173 135.304,11.173 C133.539,11.173 132.338,11.514 132.338,13.646 C132.338,15.614 133.139,16.162 135.527,16.162 C136.58,16.162 137.989,15.94 138.938,15.569 L138.938,11.13 C138.939,8.88 137.916,8.198 135.676,8.198 L135.676,8.198 Z M137.174,14.504 C136.744,14.652 136.195,14.757 135.661,14.757 C134.549,14.757 134.267,14.594 134.267,13.572 C134.267,12.609 134.638,12.491 135.676,12.491 C136.225,12.491 136.759,12.535 137.174,12.625 L137.174,14.504 L137.174,14.504 Z M150.417,8.421 L148.578,8.421 L148.578,14.357 L145.612,14.357 L145.612,8.421 L143.773,8.421 L143.773,15.955 L150.194,15.955 L150.194,18.042 L151.677,18.042 L152.107,14.356 L150.417,14.356 L150.417,8.421 L150.417,8.421 Z M158.124,13.217 L158.124,8.421 L156.285,8.421 L156.285,15.955 L158.124,15.955 C159.177,14.594 160.29,12.98 161.194,11.352 L161.194,15.955 L163.033,15.955 L163.033,8.421 L161.194,8.421 C160.289,10.034 159.146,11.93 158.124,13.217 L158.124,13.217 Z M170.266,8.421 C168.457,8.421 167.878,9.412 167.878,10.627 C167.878,11.692 168.412,12.64 170.029,12.699 C168.976,12.846 168.412,13.349 167.344,15.955 L169.45,15.955 C170.295,13.676 170.785,13.275 171.764,13.275 L172.906,13.275 L172.906,15.955 L174.745,15.955 L174.745,8.421 L170.266,8.421 L170.266,8.421 Z M172.906,11.825 L170.8,11.825 C170.192,11.825 169.865,11.529 169.865,10.848 C169.865,10.137 170.177,9.901 170.755,9.901 L172.906,9.901 L172.906,11.825 L172.906,11.825 Z" id="Shape-3" fill="#FFFFFF" sketch:type="MSShapeGroup"></path>
            <path d="M68.942,23.631 C66.971,23.631 64.467,24.03 63.002,24.641 L63.002,42.997 L66.305,42.997 L66.305,37.161 C67.051,37.534 68.01,37.932 69.555,37.932 C73.178,37.932 75.442,36.284 75.442,30.782 C75.441,25.252 73.417,23.631 68.942,23.631 L68.942,23.631 Z M68.969,35.142 C67.504,35.142 66.305,34.637 66.305,33.839 L66.305,26.874 C66.997,26.608 68.036,26.475 68.942,26.475 C71.286,26.475 72.059,27.14 72.059,30.862 C72.059,34.211 71.286,35.142 68.969,35.142 L68.969,35.142 Z M85.354,23.631 C81.412,23.631 79.041,25.306 79.041,30.729 C79.041,36.285 81.705,38.35 85.62,38.35 C87.005,38.35 89.003,38.058 90.362,37.605 L89.829,35 C88.764,35.318 86.979,35.558 86.02,35.558 C83.649,35.558 82.531,34.556 82.504,31.66 L91.268,31.66 C91.507,25.093 89.643,23.631 85.354,23.631 L85.354,23.631 Z M82.531,29.134 C82.744,26.901 83.463,26.236 85.541,26.236 C87.432,26.236 88.124,26.742 88.231,29.134 L82.531,29.134 L82.531,29.134 Z M95.096,37.977 L98.399,37.977 L98.399,26.9 L103.727,26.9 L103.727,37.976 L107.03,37.976 L107.03,24.03 L95.097,24.03 L95.097,37.977 L95.096,37.977 Z M117.347,23.631 C113.405,23.631 111.034,25.306 111.034,30.729 C111.034,36.285 113.698,38.35 117.614,38.35 C118.999,38.35 120.997,38.058 122.355,37.605 L121.821,35 C120.756,35.318 118.971,35.558 118.013,35.558 C115.642,35.558 114.523,34.556 114.496,31.66 L123.26,31.66 C123.5,25.093 121.635,23.631 117.347,23.631 L117.347,23.631 Z M114.523,29.134 C114.736,26.901 115.455,26.236 117.533,26.236 C119.424,26.236 120.116,26.742 120.223,29.134 L114.523,29.134 L114.523,29.134 Z M126.026,26.9 L130.688,26.9 L130.688,37.976 L133.991,37.976 L133.991,26.9 L138.679,26.9 L138.679,24.03 L126.026,24.03 L126.026,26.9 L126.026,26.9 Z M145.232,32.643 L145.232,24.03 L141.929,24.03 L141.929,37.976 L145.232,37.976 C147.123,35.531 149.121,32.216 150.746,29.292 L150.746,37.976 L154.049,37.976 L154.049,24.03 L150.746,24.03 C149.121,26.928 147.07,30.33 145.232,32.643 L145.232,32.643 Z M157.299,26.9 L161.961,26.9 L161.961,37.976 L165.264,37.976 L165.264,26.9 L169.952,26.9 L169.952,24.03 L157.3,24.03 L157.3,26.9 L157.299,26.9 Z M179.211,23.631 C174.923,23.631 172.765,25.199 172.765,30.729 C172.765,36.285 174.896,38.35 179.211,38.35 C183.58,38.35 185.711,36.285 185.711,30.729 C185.711,25.199 183.554,23.631 179.211,23.631 L179.211,23.631 Z M179.211,35.664 C176.894,35.664 176.175,34.53 176.175,30.782 C176.175,26.9 176.894,26.315 179.211,26.315 C181.582,26.315 182.301,26.9 182.301,30.782 C182.302,34.53 181.583,35.664 179.211,35.664 L179.211,35.664 Z M195.643,23.631 C193.672,23.631 191.168,24.03 189.703,24.641 L189.703,42.997 L193.006,42.997 L193.006,37.161 C193.752,37.534 194.711,37.932 196.256,37.932 C199.879,37.932 202.143,36.284 202.143,30.782 C202.142,25.252 200.117,23.631 195.643,23.631 L195.643,23.631 Z M195.669,35.142 C194.204,35.142 193.005,34.637 193.005,33.839 L193.005,26.874 C193.698,26.608 194.737,26.475 195.642,26.475 C197.986,26.475 198.759,27.14 198.759,30.862 C198.759,34.211 197.986,35.142 195.669,35.142 L195.669,35.142 Z M212.188,23.631 C207.9,23.631 205.742,25.199 205.742,30.729 C205.742,36.285 207.873,38.35 212.188,38.35 C216.557,38.35 218.688,36.285 218.688,30.729 C218.687,25.199 216.529,23.631 212.188,23.631 L212.188,23.631 Z M212.188,35.664 C209.871,35.664 209.152,34.53 209.152,30.782 C209.152,26.9 209.871,26.315 212.188,26.315 C214.559,26.315 215.278,26.9 215.278,30.782 C215.277,34.53 214.558,35.664 212.188,35.664 L212.188,35.664 Z M231.588,30.384 C234.172,30.197 234.678,29.054 234.678,27.274 C234.678,25.28 233.959,24.031 230.896,24.031 L222.718,24.031 L222.718,37.977 L231.003,37.977 C233.48,37.977 234.998,36.941 234.998,34.283 C234.998,32.262 234.305,30.463 231.588,30.384 L231.588,30.384 Z M226.021,26.582 L229.937,26.582 C230.896,26.582 231.242,26.874 231.242,27.911 C231.242,28.842 230.896,29.293 229.937,29.293 L226.021,29.293 L226.021,26.582 L226.021,26.582 Z M230.07,35.425 L226.021,35.425 L226.021,31.712 L229.99,31.712 C231.029,31.712 231.535,32.66 231.535,33.883 C231.535,35 231.109,35.425 230.07,35.425 L230.07,35.425 Z" id="Shape-2" fill="#FFFFFF" sketch:type="MSShapeGroup"></path>
        </g>
    </g>
</svg>