<?xml version="1.0" encoding="UTF-8" standalone="no"?>
<svg width="36px" height="36px" viewBox="0 0 36 36" version="1.1" xmlns="http://www.w3.org/2000/svg" xmlns:xlink="http://www.w3.org/1999/xlink" xmlns:sketch="http://www.bohemiancoding.com/sketch/ns">
    <!-- Generator: Sketch 3.1.1 (8761) - http://www.bohemiancoding.com/sketch -->
    <title>Slice 2</title>
    <desc>Created with Sketch.</desc>
    <defs></defs>
    <g id="Page-1" stroke="none" stroke-width="1" fill="none" fill-rule="evenodd" sketch:type="MSPage">
        <g id="Rectangle-175" sketch:type="MSLayerGroup">
            <rect fill="#59ADEB" sketch:type="MSShapeGroup" x="0" y="0" width="36" height="36" rx="4"></rect>
            <path d="M24.879,13.8996998 C25.6425,13.4623194 26.228,12.7703588 26.5025,11.9453656 C25.7885,12.3502056 24.9995,12.6440257 24.1565,12.8014635 C23.485,12.1147667 22.524,11.686 21.4615,11.686 C19.423,11.686 17.7695,13.268513 17.7695,15.2199759 C17.7695,15.4975258 17.801,15.7664621 17.865,16.0248707 C14.7965,15.8770036 12.0755,14.4715483 10.2525,12.3320213 C9.9345,12.8555379 9.7535,13.4623194 9.7535,14.1102549 C9.7535,15.3353027 10.4055,16.4172688 11.3955,17.0518053 C10.7915,17.0340995 10.221,16.8737905 9.722,16.6105967 L9.722,16.6536648 C9.722,18.3672961 10.9955,19.7957211 12.6855,20.1192103 C12.376,20.2019967 12.0505,20.2436292 11.7125,20.2436292 C11.4745,20.2436292 11.243,20.2225737 11.018,20.1809412 C11.488,21.5849609 12.8505,22.6071102 14.4675,22.6343867 C13.203,23.5828417 11.61,24.1475122 9.881,24.1475122 C9.583,24.1475122 9.2885,24.1317205 9,24.0987017 C10.6345,25.1007525 12.5755,25.686 14.66,25.686 C21.4545,25.686 25.1675,20.3015319 25.1675,15.6305584 C25.1675,15.4769489 25.1645,15.3238179 25.1575,15.1730796 C25.8795,14.6744468 26.507,14.0518737 27,13.3436429 C26.3375,13.6245425 25.6255,13.8145206 24.879,13.8996998 Z" id="Fill-6" fill="#FFFFFF" sketch:type="MSShapeGroup"></path>
        </g>
    </g>
</svg>